<svg width="56" height="77" viewBox="0 0 56 77" fill="none" xmlns="http://www.w3.org/2000/svg">
<path d="M55.1431 62.4734C55.0397 62.7611 54.8093 62.9796 54.5328 63.1061L23.3916 76.4445C23.2534 76.5019 23.0921 76.5367 22.9426 76.5367C22.7931 76.5367 22.6549 76.5137 22.5167 76.4563C22.229 76.3411 21.9991 76.1226 21.8834 75.8467L19.1104 69.3677L43.9681 64.4649C44.8773 64.2924 45.6713 63.7743 46.1893 63.0033C46.7074 62.2436 46.903 61.3231 46.7187 60.4028L39.9862 26.2349L55.1425 61.5881C55.2577 61.8753 55.2577 62.186 55.1425 62.4737L55.1431 62.4734Z" fill="#B40307"/>
<path d="M18.3989 20.0208L18.8018 21.0913H18.8248L18.3989 20.0208ZM36.5358 20.6766C35.2013 14.4623 29.0325 10.3996 22.795 11.6195L20.2057 12.1257C20.1017 11.47 19.9989 10.7906 19.8601 10.1118C19.5151 8.37435 17.6625 -0.256811 14.3482 0.375853C12.4956 0.743914 12.3573 3.56363 12.3113 4.49594C12.1618 7.28078 12.6911 10.7102 13.4048 13.4839L10.3322 14.0823C4.01452 15.3365 -0.174618 21.4592 1.09085 27.8692L8.97413 67.8602C9.032 68.1597 9.20396 68.4238 9.45739 68.5851C9.65294 68.7115 9.87208 68.7807 10.1019 68.7807C10.171 68.7807 10.2514 68.7807 10.3205 68.7576L43.5562 62.1982C43.867 62.1403 44.1199 61.9678 44.2924 61.715C44.4649 61.4621 44.5228 61.1513 44.4649 60.8518L36.5358 20.6766ZM19.308 26.7988C17.4554 27.1556 15.6487 25.9475 15.2802 24.106C15.0042 22.7248 15.6027 21.3784 16.6838 20.6305C16.9367 20.8379 17.2014 20.9986 17.4778 21.0907C17.5352 21.1138 17.593 21.1368 17.6503 21.1599C17.6621 21.1599 17.6852 21.1717 17.6964 21.1717C17.7425 21.1835 17.7768 21.1947 17.8229 21.1947C18.0072 21.229 18.1915 21.229 18.3752 21.2177C18.4101 21.2177 18.4331 21.2177 18.4674 21.2065C18.4904 21.2065 18.5253 21.1947 18.5483 21.1835C18.6286 21.1604 18.709 21.1374 18.8012 21.1031L18.8018 21.0913H18.8248C18.8939 21.057 18.9619 21.0222 19.031 20.9761C19.0658 20.9643 19.1001 20.93 19.1349 20.907C19.3648 20.7457 19.5834 20.5159 19.7677 20.2052C23.0825 21.3672 22.7144 26.12 19.308 26.7988ZM14.8424 2.89622C15.533 3.74754 16.7641 6.32567 17.6042 10.5608C18.0184 12.6782 18.5483 16.6369 17.9498 18.6626C15.7746 16.0042 13.8416 6.19894 14.8424 2.89622ZM13.9793 50.1375C13.8529 49.5047 14.2552 48.9063 14.8773 48.7793L31.7598 45.4533C32.3813 45.3268 32.9798 45.7297 33.1062 46.3512C33.2332 46.9839 32.8303 47.5824 32.197 47.7094L15.3259 51.0354C14.8343 51.1748 14.1108 50.8219 13.9793 50.1375ZM33.3822 53.6821L16.4996 57.0081C16.0495 57.1576 15.2881 56.8154 15.1532 56.1102C15.0268 55.4775 15.4409 54.879 16.0624 54.752L32.9335 51.426C33.5549 51.2996 34.1646 51.7025 34.2911 52.3352C34.4057 52.9567 34.0036 53.5551 33.3822 53.6821ZM18.3989 20.0208L18.8018 21.0913H18.8248L18.3989 20.0208Z" fill="#B40307"/>
<path d="M19.5136 19.7561C19.3759 19.2037 18.8348 18.8239 18.2712 18.8812C18.1211 18.893 17.9604 18.9042 17.8104 18.9385C17.2929 19.0307 16.9124 19.4679 16.8669 19.9859C16.8327 20.4579 17.0855 20.8839 17.4772 21.0907C17.5345 21.1137 17.5924 21.1368 17.6497 21.1598C17.6615 21.1598 17.6845 21.1716 17.6958 21.1716C17.7418 21.1834 17.7761 21.1946 17.8222 21.1946C17.9262 21.2289 18.0296 21.2407 18.133 21.2407C18.2251 21.2407 18.3055 21.2289 18.3746 21.2177C18.4094 21.2177 18.4325 21.2177 18.4667 21.2064C18.4898 21.2064 18.5246 21.1946 18.5477 21.1834C18.628 21.1604 18.7084 21.1373 18.8005 21.103V21.0912L18.3976 20.0208L18.8236 21.0912C18.8927 21.057 18.9612 21.0221 19.0303 20.9761C19.0652 20.9643 19.0995 20.93 19.1343 20.9069C19.4563 20.6305 19.6176 20.1933 19.5136 19.7561ZM18.179 19.5718L18.1442 19.4797L18.052 18.9503C18.1903 18.9273 18.3049 18.9503 18.3858 18.9734L18.179 19.5718Z" fill="#B40307"/>
</svg>
