<svg width="25" height="24" viewBox="0 0 25 24" fill="none" xmlns="http://www.w3.org/2000/svg">
<g clip-path="url(#clip0_58_842)">
<path d="M7.99276 10.0848L12.6536 5.424L17.3172 10.0867L20.0292 7.37472L12.6536 0L5.28076 7.3728L7.99276 10.0848ZM0.653564 12L3.36556 9.288L6.07756 11.999L3.36556 14.711L0.653564 12ZM7.99276 13.9152L12.6536 18.576L17.3163 13.9133L20.0302 16.6234L20.0292 16.6253L12.6536 24L5.28076 16.6272L5.27692 16.6234L7.99276 13.9152ZM19.2296 12.001L21.9416 9.28896L24.6536 12.001L21.9416 14.713L19.2296 12.001Z" fill="#F3BA2F"/>
<path d="M15.4039 11.9981H15.4049L12.6536 9.2467L10.6193 11.28L10.386 11.5133L9.90412 11.9952L9.90028 11.999L9.90412 12.0029L12.6536 14.7523L15.4059 12L15.4068 11.9981H15.4039Z" fill="#F3BA2F"/>
</g>
<defs>
<clipPath id="clip0_58_842">
<rect width="24" height="24" fill="white" transform="translate(0.653564)"/>
</clipPath>
</defs>
</svg>
