<svg width="51" height="51" viewBox="0 0 51 51" fill="none" xmlns="http://www.w3.org/2000/svg">
<circle cx="25.6742" cy="25.0461" r="25" fill="#CD181D"/>
<path d="M36.9242 20.0461C36.6717 20.0461 30.8617 20.0824 25.6742 22.5561C20.4867 20.0824 14.6767 20.0461 14.4242 20.0461C14.0927 20.0461 13.7747 20.1778 13.5403 20.4123C13.3059 20.6467 13.1742 20.9646 13.1742 21.2961V33.6499C13.1742 33.8176 13.208 33.9836 13.2734 34.138C13.3389 34.2924 13.4349 34.4321 13.5554 34.5486C13.7992 34.7836 14.1554 34.9299 14.4667 34.8986L14.6254 34.8974C15.4792 34.8974 19.9954 35.0199 25.1454 37.4286C25.1654 37.4386 25.1879 37.4349 25.2079 37.4424C25.3567 37.5036 25.5129 37.5461 25.6742 37.5461C25.8354 37.5461 25.9917 37.5036 26.1417 37.4424C26.1617 37.4349 26.1842 37.4386 26.2042 37.4286C31.3542 35.0186 35.8704 34.8974 36.7242 34.8974L36.8829 34.8986C37.1804 34.9299 37.5492 34.7836 37.7942 34.5486C38.0367 34.3124 38.1742 33.9874 38.1742 33.6499V21.2961C38.1742 20.9646 38.0425 20.6467 37.8081 20.4123C37.5737 20.1778 37.2557 20.0461 36.9242 20.0461ZM15.6742 22.6074C17.5304 22.7461 21.1504 23.2074 24.4242 24.7224V34.3999C20.6742 32.9311 17.4367 32.5324 15.6742 32.4299V22.6074ZM35.6742 32.4299C33.9117 32.5324 30.6742 32.9311 26.9242 34.3999V24.7224C30.1979 23.2074 33.8179 22.7461 35.6742 22.6074V32.4299Z" fill="white"/>
<path d="M25.6742 20.0461C27.7453 20.0461 29.4242 18.3672 29.4242 16.2961C29.4242 14.2251 27.7453 12.5461 25.6742 12.5461C23.6031 12.5461 21.9242 14.2251 21.9242 16.2961C21.9242 18.3672 23.6031 20.0461 25.6742 20.0461Z" fill="white"/>
</svg>
