<svg width="39" height="49" viewBox="0 0 39 49" fill="none" xmlns="http://www.w3.org/2000/svg">
<path d="M35.7666 48.534H2.79244C2.06786 48.534 1.37297 48.2469 0.860272 47.735C0.347556 47.2232 0.0583246 46.5291 0.0570374 45.8045V3.50289C0.0583267 2.77831 0.347556 2.08418 0.860272 1.57237C1.37299 1.06052 2.06796 0.773438 2.79244 0.773438H35.7666C36.4911 0.773438 37.186 1.06052 37.6987 1.57237C38.2114 2.08422 38.5007 2.7783 38.502 3.50289V45.8045C38.5007 46.5291 38.2114 47.2232 37.6987 47.735C37.186 48.2469 36.491 48.534 35.7666 48.534ZM2.79244 1.92506C2.37428 1.92506 1.97288 2.09138 1.67717 2.38706C1.38149 2.68317 1.21517 3.08413 1.21517 3.50277V45.8044C1.21517 46.223 1.38149 46.624 1.67717 46.9201C1.97285 47.2158 2.37425 47.3821 2.79244 47.3821H35.7666C36.1847 47.3821 36.5861 47.2158 36.8818 46.9201C37.1775 46.624 37.3438 46.223 37.3438 45.8044V3.50277C37.3438 3.08418 37.1775 2.68321 36.8818 2.38706C36.5862 2.09138 36.1848 1.92506 35.7666 1.92506H2.79244Z" fill="#D8454A"/>
<path d="M33.5728 35.0789H4.98517C4.66543 35.0789 4.40628 34.8193 4.40628 34.4996V5.6842C4.40972 5.36704 4.66801 5.11133 4.98517 5.11133H33.5728C33.89 5.11133 34.1483 5.36704 34.1517 5.6842V34.5128C34.1452 34.8278 33.8878 35.0796 33.5728 35.0796V35.0789ZM5.56388 33.8957H32.993V6.26308H5.56388V33.8957Z" fill="#D8454A"/>
<path d="M8.80504 44.3697C8.68213 44.3701 8.56266 44.3288 8.46596 44.2528C6.96869 43.156 5.25601 41.6711 5.25601 39.9401C5.26719 39.3689 5.50098 38.8248 5.90711 38.423C6.31324 38.0216 6.85991 37.7943 7.43111 37.7896C7.94983 37.8166 8.43977 38.0362 8.80504 38.4058C9.17206 38.0354 9.66414 37.8158 10.185 37.7896C10.7558 37.7943 11.3015 38.0221 11.7068 38.4235C12.1121 38.8253 12.3442 39.3694 12.3536 39.9401C12.3536 41.6837 10.641 43.1685 9.14972 44.2528H9.15015C9.05131 44.3293 8.92968 44.3705 8.80505 44.3697L8.80504 44.3697ZM7.44959 38.9172C6.90164 38.9266 6.45554 39.3616 6.43276 39.9091C6.43276 41.0303 7.70834 42.195 8.82317 43.0511C9.93845 42.1946 11.22 41.0304 11.22 39.9091H11.2204C11.1976 39.3615 10.7515 38.9266 10.2036 38.9172C9.95086 38.9172 9.63069 39.1329 9.26711 39.5704V39.57C9.15107 39.6886 8.99248 39.7557 8.82659 39.7557C8.66071 39.7557 8.50212 39.6886 8.38608 39.57C8.01648 39.1329 7.70233 38.9172 7.44963 38.9172H7.44959Z" fill="#D8454A"/>
<path d="M18.281 17.6682C18.067 17.8542 17.7872 17.9475 17.5044 17.9269C17.1903 17.8405 16.9745 17.4464 16.8327 17.0888H16.8331C16.8245 17.0222 16.8039 16.9573 16.7713 16.898H16.8147C16.9591 16.9139 17.1035 16.8675 17.2118 16.7708C17.3201 16.6737 17.382 16.5353 17.382 16.3896C17.382 16.2443 17.3201 16.106 17.2118 16.0088C17.1035 15.9117 16.9591 15.8653 16.8147 15.8816H15.8163C15.6719 15.8653 15.5275 15.9117 15.4192 16.0088C15.3109 16.106 15.249 16.2443 15.249 16.3896C15.249 16.5353 15.3109 16.6737 15.4192 16.7708C15.5275 16.8675 15.6719 16.9139 15.8163 16.898H15.8782C15.8455 16.9573 15.8249 17.0222 15.8163 17.0888C15.6745 17.446 15.4592 17.8405 15.1446 17.9269H15.145C14.8554 17.954 14.5678 17.8603 14.3499 17.6682C14.2498 17.5788 14.1179 17.5332 13.9838 17.5414C13.8497 17.5496 13.7242 17.6106 13.6352 17.7111C13.5437 17.81 13.496 17.9419 13.5029 18.0764C13.5098 18.211 13.5708 18.3373 13.6722 18.4258C14.0427 18.7447 14.509 18.9313 14.9967 18.9557C15.1257 18.9562 15.2537 18.942 15.3788 18.9128C15.7536 18.8053 16.081 18.5754 16.3093 18.2595C16.5336 18.5763 16.8598 18.807 17.2332 18.9128C17.3587 18.942 17.4868 18.9562 17.6153 18.9557C18.1035 18.9312 18.5698 18.7447 18.9403 18.4258C19.1143 18.232 19.1148 17.9376 18.9407 17.7434C18.7671 17.5487 18.4744 17.5165 18.2625 17.6682L18.281 17.6682Z" fill="#D8454A"/>
<path d="M30.72 20.6063C30.5103 19.6939 29.9082 18.9203 29.0749 18.4931C27.3808 17.6615 25.1932 18.5546 25.1008 18.5916H25.1012C24.9405 18.6603 24.8258 18.806 24.7974 18.9779C24.7686 19.1502 24.8296 19.3252 24.9594 19.4421C26.1915 20.5203 26.2905 20.9269 26.284 21.5367C26.284 22.8862 25.4524 23.7672 23.7702 24.2293C23.4092 24.329 23.0306 24.3479 22.661 24.2847C22.618 24.0874 22.5746 23.8902 22.5192 23.6684C22.4023 23.2184 22.1496 21.8569 21.8659 20.2797C21.6442 19.0476 21.3975 17.7105 21.1637 16.509L21.1641 16.5094C21.5204 16.1033 21.6932 15.5682 21.642 15.0306C21.5909 14.493 21.3197 14.0005 20.8929 13.6691C21.165 13.2462 21.3726 12.7851 21.5092 12.3011C21.768 11.451 21.7435 10.8777 21.4293 10.5636L21.4289 10.564C21.2179 10.3526 20.9054 10.2786 20.6218 10.3728C19.8615 10.619 19.13 10.9474 18.4407 11.3526C17.7725 11.0939 17.0677 10.9422 16.3521 10.9027H16.2412C15.5278 10.9431 14.8252 11.0948 14.159 11.3526C13.4697 10.9473 12.7386 10.619 11.978 10.3728C11.6943 10.2786 11.3819 10.3526 11.1709 10.564C10.8567 10.8782 10.8322 11.451 11.0909 12.3016L11.0905 12.3011C11.2272 12.785 11.4347 13.2462 11.7068 13.6691C11.28 14.0005 11.0093 14.493 10.9577 15.0306C10.9066 15.5682 11.0793 16.1033 11.4356 16.5094C11.2014 17.7415 10.9551 19.0725 10.7334 20.2862C10.4502 21.8574 10.1975 23.2189 10.0801 23.6684C9.80808 24.5722 9.72041 25.5211 9.8214 26.4593C8.10883 26.9707 7.89902 27.2724 7.79417 27.4267H7.7946C7.61797 27.66 7.59175 27.9742 7.7267 28.2338C7.94845 28.6588 8.55228 28.8501 9.5197 28.8501C10.3208 28.8501 10.9182 28.8501 11.3127 28.8071V28.8067C11.5095 28.9365 11.7154 29.0516 11.9286 29.1518C11.8903 29.1947 11.8443 29.2304 11.7932 29.2566C11.3802 29.4578 11.1623 29.9189 11.2693 30.3654C11.3372 30.5996 11.6079 31.1295 12.6987 31.1295H12.8525C14.0846 31.0801 14.7499 30.8154 15.0705 29.5583H17.6152C17.9354 30.7904 18.6131 31.0801 19.8332 31.1295H19.987C21.0838 31.1295 21.3485 30.5996 21.4164 30.3654H21.4169C21.5148 29.9116 21.2806 29.4509 20.856 29.2627C20.7881 29.2347 20.7318 29.1849 20.6957 29.1213C20.9123 29.0426 21.119 28.9395 21.312 28.8131C21.7065 28.8131 22.3039 28.8561 23.105 28.8561C24.0724 28.8561 24.6698 28.6404 24.898 28.2398L24.8976 28.2403C25.042 27.9729 25.0127 27.6459 24.8236 27.4082C24.6999 27.2307 24.5262 27.0936 24.3247 27.0141C25.3084 27.0012 26.2814 26.8096 27.196 26.4473C30.369 25.1412 31.2439 22.5716 30.72 20.6063L30.72 20.6063ZM19.63 14.2234C20.0275 14.2186 20.3885 14.4537 20.5436 14.8195C20.6992 15.1852 20.6184 15.6085 20.3395 15.8913C20.0601 16.1741 19.6381 16.26 19.2702 16.1092C18.9028 15.9583 18.6626 15.6003 18.6626 15.2032C18.6626 14.9411 18.7674 14.6901 18.9539 14.5062C19.1404 14.3218 19.3927 14.2199 19.6545 14.2234L19.63 14.2234ZM11.9901 15.2028L11.9905 15.2032C11.9905 14.807 12.229 14.4494 12.5952 14.2981C12.9609 14.1464 13.3825 14.2302 13.6627 14.5104C13.9429 14.7906 14.0267 15.2118 13.875 15.578C13.7233 15.9441 13.3662 16.1827 12.9699 16.1827C12.4383 16.1693 12.0145 15.7344 12.015 15.2032L11.9901 15.2028ZM26.7768 25.5104L26.7772 25.5108C25.3298 26.0407 23.7611 26.1477 22.2548 25.8189C22.1087 25.7884 21.9566 25.8271 21.8422 25.9234C21.7236 26.0153 21.6536 26.1559 21.651 26.3054C21.6394 26.4468 21.6394 26.5891 21.651 26.7305C21.639 26.8366 21.6583 26.9436 21.7064 27.0386C21.773 27.162 21.8861 27.2531 22.021 27.2913C22.5526 27.4289 23.0752 27.5999 23.5858 27.8027C23.4105 27.8302 23.2334 27.8427 23.0559 27.8397C22.1504 27.8397 21.5217 27.8088 21.152 27.7843C21.036 27.7765 20.9204 27.8092 20.8254 27.8767C20.7227 27.9532 20.6135 28.0215 20.4992 28.0799C20.4992 27.963 20.4992 27.8337 20.4683 27.6979C20.4184 27.1585 20.629 26.6273 21.0351 26.2685C21.256 26.0983 21.2977 25.7811 21.1275 25.5598C20.9573 25.3389 20.6402 25.2972 20.4188 25.4674C19.7415 26.0373 19.3848 26.9024 19.4639 27.7843C19.4639 27.9446 19.4639 28.0925 19.4948 28.2278C19.5628 29.1028 19.6057 29.7002 20.228 30.0763C20.0987 30.0875 19.9689 30.0875 19.84 30.0763C18.879 30.0333 18.6078 30.0269 18.4535 28.6469C18.2562 27.0572 18.1518 26.0468 18.1518 26.0348V26.0344C18.1226 25.7537 17.8716 25.55 17.5909 25.5784C17.3137 25.6076 17.1126 25.856 17.141 26.1332C17.141 26.1332 17.2334 27.0637 17.4122 28.5052H15.219C15.3978 27.0633 15.4902 26.1453 15.4902 26.1332H15.4898C15.5186 25.856 15.3174 25.6076 15.0402 25.5784C14.7596 25.55 14.5086 25.7538 14.4794 26.0344C14.4794 26.0344 14.381 27.0572 14.1777 28.6465C14.0054 30.0265 13.7526 30.033 12.7912 30.0759V30.0763C12.6623 30.0875 12.5321 30.0875 12.4031 30.0763C13.0194 29.6818 13.0684 29.0844 13.1363 28.2278V27.7843C13.2154 26.9024 12.8587 26.0373 12.1814 25.4674C12.0744 25.3858 11.9394 25.3501 11.8058 25.3681C11.6721 25.3858 11.5513 25.4562 11.4697 25.5632C11.2995 25.7859 11.3425 26.1043 11.5651 26.2745C11.9661 26.6342 12.1741 27.1615 12.1259 27.6979V28.0925L11.7993 27.8832V27.8827C11.7061 27.811 11.59 27.7762 11.4727 27.7843C11.1031 27.7843 10.4683 27.8398 9.56879 27.8398C9.39173 27.8411 9.2151 27.8307 9.03932 27.8088C9.54902 27.6021 10.0716 27.4293 10.6041 27.2914C10.7387 27.2531 10.8521 27.162 10.9183 27.0387C10.9767 26.9115 10.9767 26.7654 10.9183 26.6381C10.7215 25.7326 10.7791 24.7901 11.0846 23.9152C11.214 23.4222 11.4482 22.1102 11.7499 20.4465C11.9472 19.3747 12.1629 18.1855 12.3662 17.0948C12.5643 17.1627 12.7727 17.1984 12.9825 17.1992C13.6955 17.1992 14.3543 16.8189 14.711 16.2013C15.0677 15.5837 15.0677 14.8226 14.711 14.205C14.3543 13.5874 13.6955 13.2071 12.9825 13.2071C12.8858 13.2011 12.7891 13.2011 12.6928 13.2071C12.4148 12.8366 12.2063 12.4193 12.0765 11.975C12.0146 11.7867 11.9734 11.5925 11.9532 11.3956C12.6296 11.6432 13.2795 11.9569 13.894 12.3321C14.0509 12.4211 14.2426 12.4211 14.3995 12.3321C15.0041 12.0558 15.6574 11.9006 16.3218 11.8761C16.9884 11.8976 17.6443 12.0528 18.2502 12.3321C18.4066 12.4211 18.5987 12.4211 18.7551 12.3321C19.3667 11.9586 20.0122 11.6453 20.6839 11.3956C20.6637 11.5925 20.6224 11.7867 20.5605 11.975C20.4312 12.4193 20.2223 12.8366 19.9443 13.2071C19.848 13.2011 19.7513 13.2011 19.6546 13.2071C18.9416 13.2071 18.2828 13.5874 17.9261 14.205C17.5694 14.8226 17.5694 15.5837 17.9261 16.2013C18.2828 16.819 18.9416 17.1992 19.6546 17.1992C19.8643 17.1984 20.0728 17.1627 20.2709 17.0948C20.4802 18.1851 20.6959 19.3682 20.8872 20.4465C21.1889 22.1102 21.4231 23.4223 21.5525 23.9152C21.6315 24.1962 21.6934 24.4824 21.7373 24.7712C21.7699 24.9754 21.9238 25.1391 22.1253 25.1842C22.7601 25.3476 23.4253 25.3476 24.0601 25.1842C26.7157 24.445 27.2886 22.8059 27.2886 21.5123C27.2963 20.6472 26.9194 19.823 26.2597 19.2634C27.035 19.0425 27.8618 19.0816 28.6131 19.3743C29.2002 19.6721 29.6197 20.2209 29.7528 20.8652C30.1164 22.2945 29.5741 24.3648 26.7896 25.511L26.7768 25.5104Z" fill="#D8454A"/>
<path d="M32.4142 41.2891H15.2313C14.936 41.2585 14.7117 41.0097 14.7117 40.7132C14.7117 40.4162 14.936 40.1674 15.2313 40.1368H32.4142C32.5775 40.1201 32.74 40.1729 32.862 40.283C32.9837 40.393 33.0533 40.549 33.0533 40.7132C33.0533 40.8769 32.9837 41.0333 32.862 41.1434C32.74 41.253 32.5775 41.3063 32.4142 41.2891Z" fill="#D8454A"/>
</svg>
