<svg width="24" height="24" viewBox="0 0 24 24" fill="none" xmlns="http://www.w3.org/2000/svg">
<path d="M5.00704 20.2144C5.24575 19.9757 5.24575 19.5886 5.00704 19.3499C3.05791 17.4005 1.96304 14.7565 1.96304 12.0001C1.96304 9.24325 3.05827 6.59933 5.00767 4.65024C6.95702 2.7009 9.60083 1.60582 12.3575 1.60582C15.1143 1.60582 17.7582 2.7009 19.7073 4.65024C21.6566 6.59938 22.7517 9.24319 22.7519 12.0001C22.7519 14.7567 21.6568 17.4008 19.7077 19.3499C19.5906 19.4639 19.5243 19.6203 19.5233 19.7837C19.5222 19.9472 19.5867 20.1045 19.7024 20.2199C19.8178 20.3356 19.9751 20.4001 20.1384 20.3991C20.302 20.398 20.4582 20.3315 20.5725 20.2144C22.7509 18.0358 23.9747 15.0808 23.9747 11.9998C23.9747 8.91889 22.7507 5.96393 20.572 3.7853C18.3934 1.60687 15.4384 0.382812 12.3575 0.382812C9.27642 0.382812 6.32156 1.60682 4.14293 3.7853C1.96429 5.96393 0.740234 8.91868 0.740234 11.9998C0.74003 15.0809 1.96387 18.0358 4.14251 20.2144C4.38121 20.4531 4.76832 20.4531 5.00704 20.2144V20.2144Z" fill="#848484"/>
<path d="M17.1124 17.6203C17.3511 17.859 17.7382 17.859 17.9769 17.6203C19.4679 16.1297 20.3055 14.1079 20.3057 11.9994C20.3059 9.8912 19.4683 7.86937 17.9778 6.37861C16.487 4.88784 14.4652 4.05029 12.3569 4.05029C10.2487 4.05029 8.22686 4.88779 6.7361 6.37861C5.24533 7.86937 4.40799 9.8912 4.4082 11.9994C4.4082 14.1077 5.24591 16.1295 6.73694 17.6203C6.97687 17.852 7.35808 17.8488 7.59392 17.6129C7.82997 17.3771 7.83324 16.9957 7.6015 16.7558C6.34002 15.4945 5.63124 13.7836 5.63103 11.9999C5.63083 10.2159 6.33939 8.50506 7.60087 7.24379C8.86214 5.98231 10.573 5.27353 12.3568 5.27353C14.1407 5.27353 15.8516 5.98226 17.1129 7.24379C18.3741 8.50506 19.0827 10.2159 19.0827 11.9999C19.0825 13.7836 18.3738 15.4945 17.1122 16.7558C16.8735 16.9945 16.8735 17.3816 17.1122 17.6203L17.1124 17.6203Z" fill="#848484"/>
<path d="M14.5197 15.0257C14.7584 15.2644 15.1455 15.2644 15.3842 15.0257C16.1871 14.2232 16.6382 13.1347 16.6382 11.9995C16.6382 10.8645 16.1872 9.77581 15.3842 8.97353C14.569 8.195 13.4852 7.76074 12.358 7.76074C11.231 7.76074 10.1472 8.19496 9.33206 8.97353C8.52915 9.77586 8.07812 10.8645 8.07812 11.9995C8.07812 13.1347 8.52913 14.2232 9.33206 15.0257C9.57199 15.2574 9.95321 15.2542 10.189 15.0183C10.4251 14.7825 10.4284 14.4011 10.1966 14.1612C9.62322 13.5879 9.30095 12.8105 9.30095 11.9995C9.30095 11.1888 9.62318 10.4113 10.1966 9.83809C10.7788 9.28229 11.5531 8.97214 12.3581 8.97214C13.1632 8.97214 13.9373 9.28229 14.5197 9.83809C15.0931 10.4113 15.4154 11.1888 15.4154 11.9995C15.4154 12.8105 15.0932 13.588 14.5197 14.1612C14.281 14.3999 14.281 14.787 14.5197 15.0257L14.5197 15.0257Z" fill="#848484"/>
<path d="M4.45968 23.2513C4.55734 23.4734 4.777 23.617 5.01962 23.6174H19.6941C19.9371 23.6174 20.157 23.4736 20.2544 23.2509C20.3516 23.0284 20.308 22.7692 20.1432 22.5909L12.806 14.642C12.6875 14.5219 12.5257 14.4541 12.3568 14.4541C12.1881 14.4541 12.0264 14.5219 11.9079 14.642L4.57064 22.5909C4.40564 22.7694 4.36203 23.0288 4.45968 23.2513V23.2513ZM12.3566 15.9592L18.2977 22.395H6.41506L12.3566 15.9592Z" fill="#848484"/>
</svg>
