<svg width="24" height="27" viewBox="0 0 24 27" fill="none" xmlns="http://www.w3.org/2000/svg">
<path d="M4.52783 21.5632H3.23848C3.1456 21.5632 3.05547 21.5632 2.95689 21.5801H2.95708C2.20951 21.672 1.55343 22.1213 1.19761 22.785C1.02068 23.1124 0.924265 23.477 0.916016 23.8491V26.0534C0.917587 26.2545 0.998686 26.4467 1.14165 26.5881C1.2846 26.7297 1.47783 26.8087 1.67894 26.8079C4.73052 26.791 7.66366 26.7177 10.1611 26.6192C12.6581 26.5206 14.7188 26.4081 16.1121 26.3122C16.2276 26.3122 16.1909 26.1744 16.0305 26.0306L16.0306 26.0308C15.9164 25.9132 15.7724 25.8286 15.614 25.786C14.1023 25.6874 12.0218 25.5776 9.63174 25.479C7.45558 25.3889 5.0261 25.3213 2.47572 25.2988V23.8688C2.48181 23.7465 2.51538 23.6271 2.57429 23.5199C2.69231 23.3011 2.90792 23.1525 3.15417 23.1201H3.24705H4.53071C6.48438 23.1201 8.40723 23.089 10.2088 23.0582L12.8129 23.0018L14.0289 22.9681L14.5919 22.9539C14.7082 22.9529 14.8236 22.973 14.9326 23.013C15.1484 23.0937 15.3297 23.2471 15.4449 23.4466C15.5023 23.5421 15.5423 23.6469 15.5632 23.7563C15.5745 23.8121 15.582 23.8684 15.5857 23.9252V24.1251C15.628 24.6486 15.7124 25.1358 15.7829 25.6087C15.8463 25.7834 15.9506 25.9407 16.0869 26.0676C16.2247 26.1999 16.3431 26.2111 16.3685 26.0929C16.4388 25.5749 16.5232 24.9302 16.5656 24.1956V23.914H16.5654C16.5727 23.808 16.5727 23.7017 16.5654 23.5959C16.5452 23.3697 16.4863 23.1488 16.3909 22.9428C16.1856 22.4954 15.8286 22.1353 15.3831 21.9264C15.1466 21.8158 14.8918 21.75 14.6314 21.7321H14.0317L12.9901 21.6927C12.7085 20.3752 11.6106 18.1034 10.7379 16.9802C10.865 16.8895 10.9846 16.7887 11.0955 16.679C11.1208 16.6536 11.1434 16.6226 11.1688 16.5973L11.3433 16.7043L11.8783 16.9661H11.8781C12.0683 17.0593 12.2637 17.1412 12.4636 17.2111C12.6714 17.2964 12.8838 17.3696 13.0998 17.4307C14.0764 17.7293 15.094 17.8717 16.1149 17.8529C17.3161 17.8299 18.5036 17.5905 19.6197 17.1463C20.8779 16.6473 22.0256 15.906 22.9981 14.9645C23.1304 14.8325 23.2049 14.6532 23.2049 14.4663C23.2049 14.2793 23.1304 14.1 22.9981 13.9679L22.9867 13.9624C18.7359 9.59613 13.7163 4.57082 9.3724 0.334011C9.09178 0.0616444 8.64327 0.0679283 8.3703 0.348149C7.43537 1.31113 6.69724 2.44715 6.1969 3.6925C5.74957 4.80731 5.50648 5.99354 5.47918 7.19456C5.45346 8.21727 5.58935 9.23761 5.88174 10.2181C5.94183 10.438 6.01527 10.6542 6.10128 10.8655C6.17139 11.0662 6.25327 11.2628 6.34616 11.4538L6.61086 11.9917L6.89246 12.4675L6.89226 12.4673C6.92132 12.5103 6.96394 12.5421 7.01342 12.5574C7.0637 12.6529 7.13046 12.7385 7.21038 12.8107C7.34824 12.9431 7.47784 13.0275 7.51162 13.0079C7.82267 12.8143 8.17655 12.7002 8.54196 12.6756C8.98262 12.6472 9.41914 12.7746 9.77495 13.036C10.162 13.3246 10.4094 13.7631 10.4564 14.2436C10.5104 14.7406 10.3364 15.2353 9.98292 15.5888C9.62945 15.9422 9.1346 16.1164 8.63778 16.0622C8.16021 16.0092 7.72723 15.7579 7.44405 15.3698C7.18131 15.0166 7.05171 14.5818 7.07822 14.1423C7.09216 13.9507 7.12986 13.7616 7.19074 13.5794C7.25004 13.4183 7.32545 13.2636 7.41598 13.1177C7.43856 13.0812 7.32879 12.9205 7.17385 12.7685C7.01912 12.6166 6.89226 12.5545 6.85004 12.5912C6.65858 12.7407 6.49049 12.9182 6.35185 13.1177C6.18454 13.3771 6.06181 13.6624 5.98876 13.9623C5.80535 14.6946 5.91866 15.4696 6.30393 16.1187C6.49539 16.4443 6.74674 16.7308 7.04442 16.9633C6.01663 18.3498 5.24176 19.9071 4.75554 21.5632L4.52783 21.5632ZM8.35076 11.592C8.06052 11.6688 7.78481 11.7923 7.53446 11.958H7.52032C6.83619 10.478 6.53612 8.84949 6.64768 7.22279C6.79397 5.24594 7.57612 3.36964 8.87728 1.87399C12.8298 5.9251 17.3931 10.4854 21.4359 14.4492C19.9341 15.7647 18.0446 16.5553 16.0534 16.7014C14.5375 16.7958 13.0205 16.5325 11.6251 15.9328C11.888 15.4393 12.01 14.8832 11.9776 14.3249C11.9454 13.7668 11.76 13.2284 11.4421 12.7685C11.1946 12.4154 10.874 12.1195 10.5019 11.9015C9.85382 11.5188 9.08091 11.4075 8.35103 11.5918L8.35076 11.592ZM8.00456 17.442C8.14732 17.4874 8.29322 17.5223 8.44089 17.5463C8.86859 17.6144 9.3059 17.5875 9.72179 17.4673C10.1597 18.9592 10.8244 20.3748 11.6923 21.6647L10.1946 21.6337C8.87422 21.6111 7.48927 21.5942 6.07596 21.583H6.07616C6.92508 20.3084 7.57523 18.9122 8.00449 17.442L8.00456 17.442Z" fill="#848484"/>
</svg>
