<svg width="51" height="51" viewBox="0 0 51 51" fill="none" xmlns="http://www.w3.org/2000/svg">
<circle cx="25.6742" cy="25.2236" r="25" fill="#FBFBFB"/>
<g clip-path="url(#clip0_50_648)">
<path d="M17.625 25.468L21.75 29.593L31.375 19.968M35.5 29.593C34.125 30.968 37.2188 34.7493 35.5 36.468C33.7812 38.1868 30 35.093 28.625 36.468C27.25 37.843 26.5625 40.593 24.5 40.593C22.4375 40.593 21.75 37.843 20.375 36.468C19 35.093 15.2188 38.1868 13.5 36.468C11.7812 34.7493 14.875 30.968 13.5 29.593C12.125 28.218 9.375 27.5305 9.375 25.468C9.375 23.4055 12.125 22.718 13.5 21.343C14.875 19.968 11.7812 16.1868 13.5 14.468C15.2188 12.7493 19 15.843 20.375 14.468C21.75 13.093 22.4375 10.343 24.5 10.343C26.5625 10.343 27.25 13.093 28.625 14.468C30 15.843 33.7812 12.7493 35.5 14.468C37.2188 16.1868 34.125 19.968 35.5 21.343C36.875 22.718 39.625 23.4055 39.625 25.468C39.625 27.5305 36.875 28.218 35.5 29.593Z" stroke="#CA1419" stroke-width="2"/>
</g>
<defs>
<clipPath id="clip0_50_648">
<rect width="33" height="33" fill="white" transform="translate(8 8.96802)"/>
</clipPath>
</defs>
</svg>
