<svg width="78" height="78" viewBox="0 0 78 78" fill="none" xmlns="http://www.w3.org/2000/svg">
<path fill-rule="evenodd" clip-rule="evenodd" d="M31.1465 57.2903C31.4448 59.2962 31.5398 60.9771 31.6481 62.6719C32.1224 61.6687 32.5972 60.666 33.1257 59.9203C33.6541 59.1611 34.2239 58.6734 34.8065 58.1719C35.5382 59.3243 36.284 60.4901 36.4873 61.1811C36.6906 61.8726 36.3655 62.1162 35.9722 64.7053C35.5656 67.2945 35.1047 72.2554 34.6439 77.2029H10.1625C10.7451 72.1471 11.3283 67.0905 12.2634 63.6612C13.1985 60.218 14.4867 58.4019 16.5061 57.0054C18.5394 55.6095 23.6769 54.6331 25.6287 53.6437C27.5943 52.6404 28.7462 51.6103 29.9121 50.5803C30.0071 50.6752 31.0506 56.6261 31.1455 57.2901L31.1465 57.2903ZM47.3172 50.5804C46.843 52.9254 46.3682 55.2704 46.0704 57.2903C45.7856 59.2962 45.6772 60.9771 45.5822 62.6719C45.108 61.6687 44.6332 60.666 44.1047 59.9203C43.5762 59.1611 42.9931 58.6734 42.4239 58.1719C41.6782 59.3243 40.9464 60.4901 40.7431 61.1811C40.5397 61.8726 40.8649 62.1162 41.2581 64.7053C41.6514 67.2945 42.1122 72.2554 42.5731 77.2029H67.0544C66.4852 72.1471 65.902 67.0905 64.9669 63.6612C64.0318 60.218 62.7436 58.4019 60.7104 57.0054C58.6905 55.6095 53.5531 54.6331 51.5878 53.6437C50.9371 53.3046 47.3179 50.5803 47.3179 50.5803L47.3172 50.5804ZM41.7463 18.4133C43.9154 18.8334 45.9213 19.6875 47.6837 20.8667L49.6087 18.9417C50.0969 18.4535 50.9102 18.4535 51.3978 18.9417L54.0411 21.585C54.5293 22.0866 54.5293 22.8865 54.0411 23.3742L52.1161 25.2992C53.2953 27.0615 54.1495 29.0809 54.5695 31.2365H57.2938C57.9854 31.2365 58.5546 31.8057 58.5546 32.5107V36.2383C58.5546 36.9432 57.9854 37.5125 57.2938 37.5125H54.5695C54.1494 39.6675 53.2953 41.6741 52.1161 43.4498L54.0411 45.3613C54.5293 45.8629 54.5293 46.6629 54.0411 47.1505L51.3978 49.7938C50.9096 50.2954 50.0963 50.2954 49.6087 49.7938L47.6837 47.8688C45.9213 49.0614 43.9153 49.9155 41.7463 50.3356V53.0599C41.7463 53.7515 41.1771 54.3207 40.4856 54.3207H36.7446C36.0531 54.3207 35.4839 53.7515 35.4839 53.0599V50.3356C33.3148 49.9155 31.3089 49.0614 29.5465 47.8688L27.6215 49.7938C27.1199 50.2954 26.32 50.2954 25.8324 49.7938L23.1891 47.1505C22.6875 46.6623 22.6875 45.8629 23.1891 45.3613L25.1141 43.4363C23.9214 41.6739 23.0674 39.6679 22.6473 37.5129H19.9364C19.2314 37.5129 18.6622 36.9436 18.6622 36.2387V32.5111C18.6622 31.8061 19.2314 31.2369 19.9364 31.2369H22.6473C23.0673 29.0819 23.9214 27.0619 25.1141 25.2996L23.1891 23.3746C22.6875 22.8864 22.6875 22.087 23.1891 21.5854L25.8324 18.9421C26.3206 18.4539 27.12 18.4539 27.6215 18.9421L29.5465 20.8671C31.3089 19.6879 33.315 18.8337 35.4839 18.4137V15.6894C35.4839 14.9979 36.0531 14.4287 36.7446 14.4287H40.4856C41.1771 14.4287 41.7463 14.9979 41.7463 15.6894V18.4137V18.4133ZM38.6153 21.4225C45.7588 21.4225 51.5605 27.2242 51.5605 34.3676C51.5605 41.525 45.7588 47.3127 38.6153 47.3127C31.458 47.3127 25.6702 41.5244 25.6702 34.3676C25.6702 27.2242 31.4585 21.4225 38.6153 21.4225ZM38.6153 23.2251C44.7695 23.2251 49.7578 28.2134 49.7578 34.3676C49.7578 40.5351 44.7695 45.5236 38.6153 45.5236C32.4612 45.5236 27.4594 40.5353 27.4594 34.3676C27.4594 28.2134 32.4612 23.2251 38.6153 23.2251ZM39.632 25.4484V27.3734C40.5671 27.5634 41.2855 28.0242 41.801 28.6203C42.4384 29.366 42.7635 30.3285 42.7769 31.3043C42.7769 31.3993 42.7769 31.4943 42.7635 31.5753L40.7302 31.4803V31.3178C40.7302 30.8161 40.5676 30.3145 40.2559 29.9486C39.9576 29.5961 39.4834 29.352 38.8192 29.3252H38.6158C37.9785 29.3252 37.5042 29.5419 37.1656 29.8676C36.9081 30.1117 36.7316 30.4234 36.6372 30.7485C36.5422 31.0602 36.5422 31.3993 36.6238 31.6976C36.7053 31.9959 36.8813 32.2534 37.1388 32.416L39.0638 33.4734L41.0564 34.5308L41.0971 34.5582C41.8697 35.019 42.3579 35.724 42.5747 36.51C42.7506 37.1607 42.7506 37.8791 42.5613 38.5433C42.3713 39.2209 42.0054 39.8449 41.477 40.36C40.9888 40.8208 40.3788 41.1733 39.6336 41.3493V43.301H37.5869V41.3627C36.6652 41.1868 35.9469 40.7254 35.4179 40.1159C34.7805 39.3702 34.4688 38.4216 34.4554 37.4458V37.1609L36.5021 37.2693C36.5021 37.3235 36.4887 37.3777 36.4887 37.4185C36.5021 37.9335 36.6512 38.4217 36.9769 38.7876C37.2752 39.1401 37.7494 39.3842 38.4136 39.425H38.6169C39.2404 39.4115 39.7286 39.2082 40.0671 38.8826C40.3247 38.6385 40.5012 38.3268 40.5956 38.0016C40.6771 37.6765 40.6906 37.3509 40.609 37.0526C40.5275 36.7543 40.3515 36.4968 40.094 36.3342L38.1014 35.2768L38.088 35.2634L36.163 34.2059L36.1356 34.1925C35.3497 33.7317 34.8615 33.0267 34.6448 32.2269C34.4688 31.5761 34.4822 30.8711 34.6721 30.1935C34.8621 29.5293 35.228 28.892 35.7564 28.3909C36.2307 27.93 36.8546 27.5775 37.5863 27.4016V25.4498H39.633L39.632 25.4484ZM68.8709 20.826V25.4211H58.6641V28.2404H70.2809C71.135 28.1454 71.65 27.7119 71.6768 26.8304V20.7712C73.561 20.1478 74.9167 18.643 74.9167 16.2845C74.9167 13.9395 72.8019 11.5538 70.186 11.5538C67.57 11.5538 65.4552 13.8987 65.4552 16.2845C65.4552 18.6703 66.8919 20.2562 68.871 20.8253L68.8709 20.826ZM67.7867 38.638L60.4259 38.6654V35.8595L67.8408 35.8321C68.4642 33.9479 70.24 32.5922 72.3409 32.5922C74.9434 32.5922 77.0717 34.707 77.0717 37.323C77.0717 39.9389 74.9434 42.0537 72.3409 42.0537C70.1859 42.0537 68.3558 40.617 67.7867 38.6379V38.638ZM8.36117 20.826V25.4211H18.5546V28.2404H6.95134C6.09724 28.1454 5.5822 27.7119 5.54138 26.8304V20.7712C3.65718 20.1478 2.30147 18.643 2.30147 16.2845C2.30147 13.9395 4.42973 11.5538 7.03224 11.5538C9.64821 11.5538 11.763 13.8987 11.763 16.2845C11.763 18.6703 10.3263 20.2562 8.36062 20.8253L8.36117 20.826ZM9.43202 38.638L16.8061 38.6654V35.8595L9.37777 35.8321C8.75435 33.9479 6.97852 32.5922 4.89105 32.5922C2.27508 32.5922 0.160278 34.707 0.160278 37.323C0.160278 39.9389 2.27508 42.0537 4.89105 42.0537C7.0461 42.0537 8.86273 40.617 9.43188 38.6379L9.43202 38.638ZM55.3031 8.49128H50.7081V15.8654H47.8888V7.08187C47.9838 6.22776 48.4173 5.71273 49.2988 5.67191H55.3579C55.9813 3.7877 57.4862 2.43199 59.8447 2.43199C62.1896 2.43199 64.5754 4.56025 64.5754 7.16276C64.5754 9.77873 62.2304 11.8935 59.8447 11.8935C57.4589 11.8935 55.873 10.4568 55.3038 8.49114L55.3031 8.49128ZM21.9302 8.49128H26.5253V15.8654H29.3312V7.08187C29.2362 6.22776 28.8162 5.71273 27.9353 5.67191H21.8761C21.2527 3.7877 19.7344 2.43199 17.3894 2.43199C15.0309 2.43199 12.6586 4.56025 12.6586 7.16276C12.6586 9.77873 15.0036 11.8935 17.3894 11.8935C19.7752 11.8935 21.3611 10.4568 21.9302 8.49114V8.49128ZM39.7422 9.56213L39.7556 13.4389H36.9497L36.9363 9.50802C35.0521 8.8846 33.6964 7.10877 33.6964 5.0213C33.6964 2.40533 35.8112 0.290527 38.4271 0.290527C41.0431 0.290527 43.1579 2.40533 43.1579 5.0213C43.1579 7.17635 41.7212 8.99298 39.7421 9.56213H39.7422Z" fill="#B40207"/>
</svg>
