<svg width="17" height="26" viewBox="0 0 17 26" fill="none" xmlns="http://www.w3.org/2000/svg">
<path d="M16.1332 12.7861C16.132 12.8368 16.1212 12.8849 16.1009 12.9314C16.0944 12.947 16.0894 12.9621 16.0803 12.9764C16.0489 13.0288 16.0091 13.0768 15.9528 13.1109C15.952 13.1114 15.9505 13.1114 15.9497 13.1119C15.9488 13.1124 15.9485 13.1137 15.9474 13.1142L8.47866 17.4904C8.47286 17.494 8.46608 17.4922 8.45987 17.4958C8.40619 17.5234 8.34695 17.544 8.28142 17.544C8.21589 17.544 8.15666 17.5234 8.10248 17.4948C8.0957 17.492 8.08794 17.493 8.0814 17.4895L0.745439 13.1124C0.687999 13.0782 0.647799 13.0293 0.615197 12.9759C0.606373 12.9611 0.600899 12.9473 0.594607 12.9314C0.574018 12.8848 0.563232 12.8368 0.561436 12.7861C0.561436 12.7753 0.554409 12.7665 0.555144 12.7562C0.555144 12.7514 0.558903 12.7482 0.559883 12.7433C0.564377 12.6859 0.578675 12.6296 0.61005 12.5769L7.94643 0.295765C7.94921 0.290781 7.95395 0.288738 7.95722 0.283999C7.96604 0.269945 7.97683 0.258916 7.98761 0.246332C8.00118 0.230481 8.01499 0.216427 8.03075 0.202373C8.04277 0.192568 8.05363 0.181783 8.06638 0.173776C8.07136 0.170262 8.07389 0.165278 8.07896 0.162255C8.08746 0.156944 8.09677 0.156944 8.10535 0.152695C8.12243 0.143626 8.1395 0.137171 8.1583 0.130634C8.17382 0.125078 8.18943 0.119604 8.20626 0.116336C8.22285 0.112577 8.23886 0.111842 8.25545 0.111025C8.26443 0.109963 8.27244 0.105469 8.28151 0.105469C8.29058 0.105469 8.29761 0.109963 8.30659 0.110453C8.32269 0.111924 8.33773 0.11225 8.35325 0.115437C8.37106 0.118705 8.3874 0.124506 8.40497 0.130226C8.42327 0.136517 8.44035 0.143299 8.45743 0.152287C8.46519 0.156535 8.47401 0.156535 8.48178 0.160784C8.48627 0.163562 8.48905 0.168301 8.4933 0.171079C8.5071 0.180149 8.51887 0.191179 8.53194 0.202455C8.54747 0.216018 8.56152 0.229337 8.57509 0.245106C8.58489 0.257117 8.59568 0.267985 8.60368 0.28073C8.60744 0.285714 8.61218 0.288247 8.61545 0.293313L16.084 12.5749C16.1164 12.6276 16.1307 12.6851 16.1357 12.7435C16.1362 12.7485 16.1398 12.7518 16.1402 12.7571C16.1406 12.7668 16.1339 12.7758 16.1334 12.7861L16.1332 12.7861ZM7.89096 1.91036L1.92546 11.898L7.89096 9.16161V1.91036ZM8.67182 9.15931L14.7614 11.903L8.67182 1.88923V9.15931ZM8.67182 10.0163V16.4716L14.9005 12.8225L8.67182 10.0163ZM7.89096 16.4653V10.0204L1.78365 12.8227L7.89096 16.4653Z" fill="white"/>
<path d="M0.588439 14.1206C0.712144 13.985 0.915998 13.9581 1.07411 14.0488L8.28143 18.3041L15.486 14.049C15.6434 13.9574 15.8473 13.9852 15.9725 14.1208C16.0973 14.2573 16.1104 14.4606 16.0037 14.6115L8.60034 25.0419C8.59454 25.0499 8.58506 25.0525 8.57926 25.0597C8.56398 25.0783 8.54862 25.0946 8.53081 25.1099C8.52231 25.1169 8.51724 25.1277 8.50793 25.134C8.50066 25.1393 8.49134 25.137 8.48358 25.142C8.471 25.1493 8.46021 25.1598 8.4464 25.1666C8.39673 25.1907 8.34174 25.206 8.28299 25.206H8.28226H8.28176H8.28127H8.28054C8.22179 25.206 8.16705 25.1905 8.11713 25.1666C8.10332 25.1601 8.09253 25.1495 8.07995 25.142C8.07243 25.1367 8.06312 25.1392 8.0556 25.134C8.04629 25.128 8.0413 25.1172 8.03272 25.1099C8.01491 25.0944 7.9993 25.0783 7.98452 25.0597C7.97871 25.0525 7.96899 25.0499 7.96344 25.0419L0.5574 14.6115C0.450282 14.4606 0.463518 14.2572 0.588531 14.1207L0.588439 14.1206ZM8.67176 18.9814V23.5903L14.3057 15.6532L8.67176 18.9814ZM7.8909 23.5903V18.9814L2.25464 15.6532L7.8909 23.5903Z" fill="white"/>
</svg>
