<svg width="98" height="72" viewBox="0 0 98 72" fill="none" xmlns="http://www.w3.org/2000/svg">
<path fill-rule="evenodd" clip-rule="evenodd" d="M72.3754 60.7761H67.5711V58.9365C67.5711 57.0969 66.14 55.665 64.2997 55.665H37.0069C35.1673 55.665 33.7354 57.0961 33.7354 58.9365V60.7761H28.9311C27.0915 60.7761 25.6597 62.2071 25.6597 64.0475V69.6698C25.6597 70.3857 26.2729 70.9988 26.9888 70.9988H74.419C75.1349 70.9988 75.7481 70.3856 75.7481 69.6698V64.0475C75.6461 62.3091 74.215 60.7761 72.3753 60.7761H72.3754Z" fill="#B40207"/>
<path fill-rule="evenodd" clip-rule="evenodd" d="M96.9083 54.6432L72.682 30.417L75.4422 27.6569L62.7667 14.9819L50.9089 26.9417L63.4819 39.6167L66.242 36.8565L90.4682 61.0827C91.4907 62.1052 93.2283 62.1052 94.2502 61.0827L96.9077 58.4252C98.0329 57.4034 98.0329 55.6658 96.9084 54.6432H96.9083Z" fill="#B40207"/>
<path fill-rule="evenodd" clip-rule="evenodd" d="M55.8157 48.6118C56.8382 49.6343 58.4733 49.6343 59.5977 48.6118L62.0512 46.1583C63.0737 45.1358 63.0737 43.5008 62.0512 42.3764L47.9453 28.4744C46.9228 27.4519 45.2878 27.4519 44.1633 28.4744L41.7099 30.9279C40.6874 31.9504 40.6874 33.5854 41.7099 34.7098L55.8157 48.6118Z" fill="#B40207"/>
<path fill-rule="evenodd" clip-rule="evenodd" d="M78.4064 26.1235C79.4289 27.146 81.064 27.146 82.1884 26.1235L84.6419 23.67C85.6644 22.6475 85.6644 21.0125 84.6419 19.8881L70.5353 5.88406C69.5128 4.86156 67.8777 4.86156 66.7533 5.88406L64.2998 8.33753C63.2773 9.36002 63.2773 10.9951 64.2998 12.1195L78.4064 26.1235Z" fill="#B40207"/>
<path fill-rule="evenodd" clip-rule="evenodd" d="M28.8296 36.0389C31.6918 36.0389 34.0426 33.688 34.0426 30.8259L34.0434 5.7819C34.0434 2.91973 31.6925 0.568848 28.8303 0.568848H5.83073C2.96856 0.568848 0.617676 2.91973 0.617676 5.7819V30.9281C0.617676 33.7903 2.96856 36.1411 5.83073 36.1411H13.7019V69.8738C13.7019 70.5897 14.3151 71.2029 15.031 71.2029H19.7335C20.4493 71.2029 21.0625 70.5897 21.0625 69.8738V36.1411H28.8304L28.8296 36.0389ZM11.1457 23.2614C11.1457 23.0567 11.1457 22.8528 11.3503 22.6482C11.4523 22.4435 11.7589 22.3416 11.9635 22.3416H14.2124C14.519 22.3416 14.9282 22.5462 14.9282 22.9548C15.0302 23.466 15.5415 23.8746 16.0527 23.8746H17.9951C19.0176 23.8746 19.8347 23.1587 19.9374 22.2389C20.0394 21.7277 19.8355 21.2164 19.4262 20.8079C19.1196 20.3993 18.6083 20.1947 17.9951 20.1947H16.5641C13.6001 20.1947 11.0446 17.9458 10.7372 15.1857C10.4306 12.2217 12.4748 9.66614 15.2351 9.15486V7.21249C15.2351 6.80392 15.5417 6.39464 16.0529 6.39464H18.3018C18.7103 6.39464 19.1196 6.70124 19.1196 7.21249V9.15486C21.3685 9.46146 23.2081 11.1991 23.4129 13.55C23.4129 13.7546 23.4129 13.9585 23.2082 14.1632C23.1063 14.3678 22.7996 14.4698 22.595 14.4698H20.3462C19.9376 14.4698 19.6303 14.2651 19.6303 13.8566C19.5283 13.3453 19.0171 12.9368 18.5058 12.9368H16.5634C15.5409 12.9368 14.6211 13.6526 14.6211 14.5724C14.5191 15.0837 14.723 15.5949 15.1323 16.0035C15.4389 16.2081 15.9502 16.4128 16.4614 16.4128H18.0971C19.6301 16.4128 21.1639 17.1287 22.2883 18.2524C23.4128 19.4788 23.924 21.0125 23.7194 22.5456C23.5147 24.8965 21.6751 26.9407 19.2215 27.452V29.3944C19.2215 29.803 18.9149 30.2122 18.4036 30.2122H16.1548C15.7462 30.2122 15.3369 29.9056 15.3369 29.3944V27.6567C13.1899 27.3501 11.4524 25.5105 11.1457 23.2616L11.1457 23.2614Z" fill="#B40207"/>
</svg>
