<svg width="29" height="22" viewBox="0 0 29 22" fill="none" xmlns="http://www.w3.org/2000/svg">
<path d="M11.0042 10.994C11.0042 11.9616 11.3886 12.8897 12.0729 13.5739C12.7571 14.2581 13.6851 14.6425 14.6528 14.6425C15.6204 14.6425 16.5485 14.2581 17.2327 13.5739C17.917 12.8897 18.3014 11.9616 18.3014 10.994C18.3014 10.0263 17.917 9.09828 17.2327 8.41404C16.5485 7.7298 15.6204 7.34539 14.6528 7.34539C13.6851 7.34539 12.7571 7.7298 12.0729 8.41404C11.3886 9.09828 11.0042 10.0263 11.0042 10.994V10.994ZM28.7975 10.1535C25.7092 3.64796 21.041 0.374023 14.7831 0.374023C8.52189 0.374023 3.85693 3.64796 0.76868 10.1567C0.644809 10.419 0.580566 10.7055 0.580566 10.9956C0.580566 11.2857 0.644809 11.5721 0.76868 11.8344C3.85693 18.34 8.52514 21.6139 14.7831 21.6139C21.0443 21.6139 25.7092 18.34 28.7975 11.8312C29.0483 11.3034 29.0483 10.691 28.7975 10.1535V10.1535ZM14.6528 16.7274C11.4863 16.7274 8.91932 14.1604 8.91932 10.994C8.91932 7.82753 11.4863 5.2605 14.6528 5.2605C17.8192 5.2605 20.3862 7.82753 20.3862 10.994C20.3862 14.1604 17.8192 16.7274 14.6528 16.7274Z" fill="#CA1419"/>
</svg>
