<svg width="40" height="30" viewBox="0 0 40 30" fill="none" xmlns="http://www.w3.org/2000/svg">
<path d="M37.7426 12.9993C38.6511 14.1618 38.6511 15.7312 37.7426 16.8918C34.881 20.5462 28.0155 28.0706 20 28.0706C11.9845 28.0706 5.11898 20.5462 2.2574 16.8918C1.81538 16.3352 1.57544 15.6504 1.57544 14.9456C1.57544 14.2407 1.81538 13.5559 2.2574 12.9993C5.11898 9.34493 11.9845 1.82056 20 1.82056C28.0155 1.82056 34.881 9.34493 37.7426 12.9993V12.9993Z" stroke="#CA1419" stroke-width="2" stroke-linecap="round" stroke-linejoin="round"/>
<path d="M20 20.5706C23.1756 20.5706 25.75 18.0522 25.75 14.9456C25.75 11.839 23.1756 9.32056 20 9.32056C16.8244 9.32056 14.25 11.839 14.25 14.9456C14.25 18.0522 16.8244 20.5706 20 20.5706Z" stroke="#CA1419" stroke-width="2" stroke-linecap="round" stroke-linejoin="round"/>
</svg>
