<svg width="50" height="51" viewBox="0 0 50 51" fill="none" xmlns="http://www.w3.org/2000/svg">
<circle cx="25" cy="25.0444" r="25" fill="white"/>
<g clip-path="url(#clip0_50_495)">
<path d="M22.5676 21.67C22.5676 22.9516 21.5286 23.9906 20.2468 23.9906C18.965 23.9906 17.9259 22.9516 17.9259 21.67C17.9259 20.3882 18.965 19.3491 20.2468 19.3491C21.5286 19.3491 22.5676 20.3882 22.5676 21.67Z" fill="#CA1419"/>
<path d="M32.0743 21.67C32.0743 22.9516 31.0352 23.9906 29.7534 23.9906C28.4716 23.9906 27.4326 22.9516 27.4326 21.67C27.4326 20.3882 28.4716 19.3491 29.7534 19.3491C31.0352 19.3491 32.0743 20.3882 32.0743 21.67Z" fill="#CA1419"/>
<path d="M20 29.4058H30V31.0724H20V29.4058Z" fill="#CA1419"/>
<path d="M15.4267 38.7976H34.5743C36.6467 38.7976 38.3334 37.1109 38.3334 35.0376V15.8909C38.3334 13.8176 36.6466 12.1309 34.5733 12.1309H15.4267C13.3534 12.1309 11.6666 13.8176 11.6666 15.8909V35.0385C11.6666 37.1109 13.3534 38.7976 15.4267 38.7976ZM13.3333 15.891C13.3333 14.7368 14.2725 13.7976 15.4267 13.7976H34.5743C35.7276 13.7976 36.6667 14.7368 36.6667 15.891V35.0386C36.6667 36.1919 35.7275 37.131 34.5733 37.131H15.4267C14.2725 37.131 13.3333 36.1918 13.3333 35.0376V15.891Z" fill="#CA1419"/>
</g>
<defs>
<clipPath id="clip0_50_495">
<rect width="33.3333" height="33.3333" fill="white" transform="translate(8.33334 12.1309)"/>
</clipPath>
</defs>
</svg>
