<svg width="23" height="21" viewBox="0 0 23 21" fill="none" xmlns="http://www.w3.org/2000/svg">
<path d="M0.964671 11.7764C1.41457 12.3885 2.24686 12.7989 3.0329 12.7989L8.2961 12.7989L7.51234 19.2629C7.47992 19.5389 7.56566 19.8101 7.75587 20.0235C7.95992 20.2553 8.26827 20.3921 8.57664 20.3921L10.4477 20.3921C11.053 20.3921 11.3032 19.8797 11.4378 19.6061L14.7905 12.801L15.609 12.801L15.609 13.0861C15.609 13.3713 15.8409 13.6032 16.1261 13.6032L22.1197 13.6032C22.4048 13.6009 22.6367 13.3713 22.6367 13.0861L22.6367 0.519125C22.6367 0.233957 22.4049 0.00208853 22.1197 0.00208851L16.1237 0.00208807C15.8385 0.00208805 15.6067 0.233938 15.6067 0.519124L15.6067 0.748672C15.2774 0.546935 14.8925 0.428781 14.4798 0.428781L5.39776 0.42878C4.29642 0.42878 3.50574 1.17533 3.04896 2.64773L0.681724 10.2761C0.524083 10.7814 0.626101 11.3147 0.964585 11.7761L0.964671 11.7764ZM21.6049 1.03404L21.6049 12.5693L16.6406 12.5693L16.6406 12.2865L16.6406 12.2842L16.6406 2.5877L16.6406 2.5831L16.6406 1.03666L21.6049 1.03651L21.6049 1.03404ZM1.66953 10.5799L4.03677 2.95154C4.50047 1.4584 5.17759 1.4584 5.40006 1.4584L14.4798 1.4584C15.1011 1.4584 15.6066 1.96392 15.6066 2.58294L15.6066 11.7669L14.4683 11.7669C14.2711 11.7669 14.0926 11.8781 14.0046 12.0544L10.5358 19.0958L10.508 19.1538C10.4756 19.2188 10.4315 19.3114 10.3991 19.3601L8.57668 19.3601C8.56516 19.3601 8.55118 19.3555 8.54196 19.3486L9.39054 12.3465C9.40913 12.2003 9.36273 12.0521 9.26532 11.943C9.16791 11.8317 9.02655 11.769 8.87813 11.769L3.03279 11.769C2.57369 11.769 2.05437 11.5163 1.79702 11.1661C1.65305 10.9692 1.60895 10.772 1.66918 10.5797L1.66953 10.5799Z" fill="#D5D5D5"/>
</svg>
