<svg width="54" height="54" viewBox="0 0 54 54" fill="none" xmlns="http://www.w3.org/2000/svg">
<path d="M7.76931 27.9956H6.01674C5.55211 27.9956 5.10617 28.1804 4.77761 28.509C4.44904 28.8376 4.26419 29.2835 4.26419 29.7482V32.3768C4.26419 32.8415 4.44902 33.2874 4.77761 33.616C5.10619 33.9445 5.55212 34.1294 6.01674 34.1294H7.76931C8.23395 34.1294 8.67988 33.9445 9.00845 33.616C9.33701 33.2874 9.52149 32.8414 9.52149 32.3768V29.7482C9.52149 29.2835 9.33703 28.8376 9.00845 28.509C8.67986 28.1805 8.23393 27.9956 7.76931 27.9956ZM6.01674 32.3768V29.7482H7.76931V32.3768H6.01674Z" fill="#D8454A"/>
<path d="M7.76931 35.8818H6.01674C5.55211 35.8818 5.10617 36.0667 4.77761 36.3953C4.44904 36.7238 4.26419 37.1698 4.26419 37.6344V40.2631C4.26419 40.7277 4.44902 41.1736 4.77761 41.5022C5.10619 41.8308 5.55212 42.0156 6.01674 42.0156H7.76931C8.23395 42.0156 8.67988 41.8308 9.00845 41.5022C9.33701 41.1736 9.52149 40.7277 9.52149 40.2631V37.6344C9.52149 37.1698 9.33703 36.7238 9.00845 36.3953C8.67986 36.0667 8.23393 35.8818 7.76931 35.8818ZM6.01674 40.2631V37.6344H7.76931V40.2631H6.01674Z" fill="#D8454A"/>
<path d="M52.819 37.7649L51.5799 36.5243C51.1739 36.1209 50.5966 35.9412 50.0334 36.0431L43.3891 29.3978C43.4918 28.8341 43.3114 28.2558 42.9062 27.8506L41.667 26.6115H41.6674C41.4958 26.4417 41.2908 26.3089 41.0652 26.2217C41.0597 25.7607 40.8723 25.3206 40.5445 24.9964C40.2163 24.6726 39.774 24.4911 39.313 24.4911H35.8079V19.2338C35.8079 18.5366 35.531 17.8681 35.0382 17.3748C34.5453 16.8819 33.8764 16.6051 33.1792 16.6051H32.8657C30.9888 12.6269 26.6794 9.9168 21.7887 9.62596V8.47442L26.7673 6.81573C27.2187 6.66574 27.5854 6.33239 27.778 5.89746C27.9701 5.46253 27.9701 4.96672 27.778 4.53178C27.5855 4.09684 27.2187 3.76349 26.7673 3.61313L21.7887 1.95444V1.7091C21.7887 1.2254 21.3963 0.833008 20.9126 0.833008C20.4285 0.833008 20.0361 1.2254 20.0361 1.7091V9.6259C15.1451 9.91671 10.8358 12.6268 8.95909 16.605H8.64555C7.94841 16.605 7.27986 16.8819 6.78661 17.3748C6.29374 17.868 6.01686 18.5365 6.01686 19.2337V24.491H2.5121C2.0471 24.491 1.60153 24.6755 1.27297 25.0044C0.944018 25.333 0.759552 25.7786 0.759552 26.2436V43.7674C0.759552 44.2324 0.944009 44.678 1.27297 45.0065C1.60155 45.3355 2.04712 45.5199 2.5121 45.5199H30.206L26.8054 48.918C26.2986 49.4061 26.0092 50.0776 26.0023 50.7813C25.9953 51.485 26.2714 52.162 26.7683 52.6604C27.2656 53.1584 27.9419 53.436 28.6456 53.4305C29.3493 53.425 30.0215 53.1372 30.5107 52.6315L38.7201 44.4319V44.4315C38.8668 44.4726 39.0183 44.4946 39.1705 44.4975C39.6362 44.4979 40.0829 44.3131 40.4122 43.9838L41.5652 42.8308L42.4057 43.6713C42.2972 44.2353 42.4787 44.8162 42.8883 45.2185L44.1275 46.4576C44.456 46.7858 44.9016 46.9707 45.3662 46.9707C45.8308 46.9707 46.2768 46.7858 46.6054 46.4576L52.8194 40.2453V40.245C53.148 39.9164 53.3328 39.4704 53.3328 39.0058C53.3328 38.5408 53.148 38.0949 52.8194 37.7663L52.819 37.7649ZM37.2226 36.0124L42.3721 30.8628L48.5679 37.0586L43.4191 42.2081L37.2226 36.0124ZM35.4579 35.3053L34.2136 34.0666L40.4277 27.8525L41.6675 29.0916L35.4579 35.3053ZM35.8081 29.9937L34.0555 31.7463L34.0559 29.7484H35.8085L35.8081 29.9937ZM39.3129 26.5106C39.2718 26.5447 39.2252 26.5744 39.1885 26.6132L37.1576 28.6434C36.8283 28.2352 36.3325 27.9976 35.8081 27.9958H34.0559C33.5909 27.9958 33.1453 28.1806 32.8168 28.5092C32.4878 28.8378 32.3033 29.2837 32.3033 29.7483V32.377C32.3048 32.7298 32.4126 33.0741 32.6125 33.3646C32.4706 33.6873 32.4291 34.0453 32.4937 34.3918C32.5582 34.7383 32.7258 35.0574 32.9744 35.3071L34.2143 36.5463V36.5459C34.6181 36.9541 35.1979 37.1348 35.7619 37.0289L36.602 37.869L35.4491 39.0198C35.2312 39.2391 35.0754 39.5127 34.9973 39.8119C34.9192 40.1112 34.9217 40.4258 35.0046 40.724L31.9597 43.7678H31.4272V42.0156C31.4254 41.3922 31.0913 40.8171 30.5507 40.5065V26.2432H39.3132L39.3129 26.5106ZM26.1695 40.2632V28.8726C26.6532 28.8726 27.0456 28.4802 27.0456 27.9961C27.0456 27.5124 26.6532 27.12 26.1695 27.12H16.5308C16.0467 27.12 15.6547 27.5124 15.6547 27.9961C15.6547 28.4802 16.0467 28.8726 16.5308 28.8726V40.2632H13.9021V24.8413C13.9021 24.464 14.1434 24.1288 14.5013 24.0096L20.6623 21.9498C20.8324 21.8926 21.0162 21.89 21.1878 21.9417L28.1706 24.0368C28.5417 24.1468 28.7958 24.4882 28.7943 24.8755V40.2625L26.1695 40.2632ZM18.2835 40.2632V28.8726H20.0361L20.0357 40.2632H18.2835ZM21.7883 28.8726H24.417V40.2632H21.7883V28.8726ZM26.0302 5.2146L21.7883 6.62685V3.80197L26.0302 5.2146ZM20.9122 11.348C24.9256 11.2435 28.7047 13.2352 30.887 16.6054H10.9374C13.1201 13.2352 16.8988 11.2435 20.9122 11.348ZM7.76887 19.234C7.76887 18.75 8.1609 18.3579 8.64497 18.3579H33.1789C33.4114 18.3579 33.6343 18.45 33.7986 18.6143C33.9629 18.7789 34.0553 19.0015 34.0553 19.234V24.4914H30.5187C30.4475 23.9978 30.2366 23.5349 29.9103 23.1576C29.5842 22.7806 29.1567 22.5048 28.6788 22.3629L21.6972 20.2679C21.1783 20.1116 20.6238 20.1205 20.11 20.2924L13.9483 22.3472H13.9487C13.4819 22.5023 13.0682 22.7858 12.755 23.165C12.4422 23.5442 12.242 24.0037 12.1778 24.4914H7.76868L7.76887 19.234ZM2.51154 26.2439H12.1494V40.5054C11.8838 40.6583 11.6627 40.8783 11.5091 41.1435C11.355 41.4086 11.274 41.7097 11.2733 42.0163V43.7688L2.51116 43.7685L2.51154 26.2439ZM13.0262 42.0159H29.6741V43.7685L13.0262 43.7681V42.0159ZM29.2667 51.3915C29.1027 51.5544 28.8801 51.6453 28.6491 51.6438C28.4177 51.6424 28.1966 51.5485 28.0348 51.3835C27.868 51.2228 27.7737 51.0013 27.7737 50.7699C27.7737 50.5389 27.868 50.3174 28.0348 50.1568L32.9214 45.2746C32.935 45.2625 32.9478 45.2497 32.9599 45.2357L36.0716 42.127L37.3034 43.36L29.2667 51.3915ZM39.1673 42.7406L36.6835 40.2634L37.8401 39.1067L40.3243 41.5898L39.1673 42.7406ZM45.3668 45.2148L44.1261 43.9786L50.3402 37.7652L51.579 39.0043L45.3668 45.2148Z" fill="#D8454A"/>
</svg>
