<svg width="20" height="20" viewBox="0 0 20 20" fill="none" xmlns="http://www.w3.org/2000/svg">
<path d="M-1.03312e-06 10C-5.50191e-07 4.47593 4.47754 5.50332e-07 10 1.03312e-06C15.5225 1.51591e-06 20 4.47593 20 10C20 15.5208 15.5225 20 10 20C4.47754 20 -1.51577e-06 15.5208 -1.03312e-06 10ZM10 7.98387C11.0244 7.98387 11.8548 7.15343 11.8548 6.12903C11.8548 5.10464 11.0244 4.27419 10 4.27419C8.97561 4.27419 8.14516 5.10464 8.14516 6.12903C8.14516 7.15343 8.97561 7.98387 10 7.98387ZM11.761 14.651L11.4619 9.16718C11.4479 8.91057 11.2357 8.70968 10.9788 8.70968L9.02125 8.70968C8.76427 8.70968 8.5521 8.91057 8.53811 9.16718L8.23899 14.651C8.22387 14.9282 8.44456 15.1613 8.72214 15.1613L11.2779 15.1613C11.5555 15.1613 11.7761 14.9282 11.761 14.651Z" fill="#A0A0A0"/>
</svg>
