<svg width="51" height="51" viewBox="0 0 51 51" fill="none" xmlns="http://www.w3.org/2000/svg">
<circle cx="25.6742" cy="25.5557" r="25" fill="#CD181D"/>
<path d="M12.5492 34.3057H38.7992V36.1807H12.5492V34.3057Z" fill="white"/>
<path d="M35.9867 18.3683C36.2353 18.3683 36.4738 18.2695 36.6496 18.0937C36.8254 17.9179 36.9242 17.6794 36.9242 17.4308V14.6183C36.9241 14.4256 36.8647 14.2376 36.754 14.0799C36.6432 13.9223 36.4866 13.8025 36.3054 13.737L25.9929 9.987C25.787 9.91254 25.5614 9.91254 25.3554 9.987L15.0429 13.737C14.8618 13.8025 14.7051 13.9223 14.5944 14.0799C14.4837 14.2376 14.4243 14.4256 14.4242 14.6183V17.4308C14.4242 17.6794 14.523 17.9179 14.6988 18.0937C14.8746 18.2695 15.1131 18.3683 15.3617 18.3683H16.2992V30.5558H14.4242V32.4308H36.9242V30.5558H35.0492V18.3683H35.9867ZM16.2992 15.2745L25.6742 11.862L35.0492 15.2745V16.4933H16.2992V15.2745ZM27.5492 30.5558H23.7992V18.3683H27.5492V30.5558ZM18.1742 18.3683H21.9242V30.5558H18.1742V18.3683ZM33.1742 30.5558H29.4242V18.3683H33.1742V30.5558Z" fill="white"/>
</svg>
