<svg width="51" height="51" viewBox="0 0 51 51" fill="none" xmlns="http://www.w3.org/2000/svg">
<circle cx="25.2936" cy="25.3418" r="25" fill="#464545"/>
<path d="M25.2964 18.9321C21.7493 18.9321 18.8882 21.7939 18.8882 25.3418C18.8882 28.8897 21.7493 31.7515 25.2964 31.7515C28.8436 31.7515 31.7047 28.8897 31.7047 25.3418C31.7047 21.7939 28.8436 18.9321 25.2964 18.9321ZM25.2964 29.5089C23.0042 29.5089 21.1302 27.6401 21.1302 25.3418C21.1302 23.0435 22.9986 21.1747 25.2964 21.1747C27.5943 21.1747 29.4626 23.0435 29.4626 25.3418C29.4626 27.6401 27.5887 29.5089 25.2964 29.5089ZM33.4615 18.6699C33.4615 19.5011 32.7922 20.165 31.9668 20.165C31.1358 20.165 30.4721 19.4955 30.4721 18.6699C30.4721 17.8443 31.1414 17.1749 31.9668 17.1749C32.7922 17.1749 33.4615 17.8443 33.4615 18.6699ZM37.7058 20.1873C37.611 18.1846 37.1537 16.4106 35.6868 14.9491C34.2256 13.4875 32.452 13.0301 30.4498 12.9297C28.3862 12.8125 22.2011 12.8125 20.1375 12.9297C18.1408 13.0245 16.3673 13.4819 14.9004 14.9435C13.4336 16.4051 12.9819 18.179 12.8815 20.1817C12.7644 22.2457 12.7644 28.4323 12.8815 30.4963C12.9763 32.499 13.4336 34.273 14.9004 35.7345C16.3673 37.1961 18.1352 37.6535 20.1375 37.7539C22.2011 37.8711 28.3862 37.8711 30.4498 37.7539C32.452 37.6591 34.2256 37.2017 35.6868 35.7345C37.1481 34.273 37.6054 32.499 37.7058 30.4963C37.8229 28.4323 37.8229 22.2513 37.7058 20.1873ZM35.0399 32.711C34.6049 33.8044 33.7627 34.6467 32.664 35.0874C31.0187 35.7401 27.1146 35.5895 25.2964 35.5895C23.4782 35.5895 19.5686 35.7345 17.9289 35.0874C16.8357 34.6523 15.9936 33.8099 15.553 32.711C14.9004 31.0653 15.051 27.1604 15.051 25.3418C15.051 23.5232 14.906 19.6127 15.553 17.9726C15.988 16.8792 16.8302 16.0369 17.9289 15.5962C19.5742 14.9435 23.4782 15.0941 25.2964 15.0941C27.1146 15.0941 31.0243 14.9491 32.664 15.5962C33.7571 16.0313 34.5993 16.8737 35.0399 17.9726C35.6924 19.6183 35.5418 23.5232 35.5418 25.3418C35.5418 27.1604 35.6924 31.0709 35.0399 32.711Z" fill="white"/>
</svg>
