<svg width="74" height="75" viewBox="0 0 74 75" fill="none" xmlns="http://www.w3.org/2000/svg">
<path d="M36.8524 40.1306C39.0432 40.1306 40.8277 41.9151 40.8277 44.1203C40.8277 45.252 41.7417 46.166 42.8734 46.166C44.005 46.166 44.919 45.252 44.919 44.1203C44.919 40.3772 42.3511 37.2289 38.8981 36.3149V34.4143C38.8981 33.2827 37.9841 32.3687 36.8524 32.3687C35.7208 32.3687 34.8067 33.2827 34.8067 34.4143V36.3149C31.3538 37.2289 28.7858 40.3772 28.7858 44.1203C28.7858 48.5743 32.703 52.1724 37.157 52.1724C37.0844 52.1869 37.157 52.1724 37.1715 52.1724C39.2172 52.3319 40.813 54.0585 40.813 56.1476C40.813 58.3529 39.0285 60.1374 36.8377 60.1374C34.647 60.1374 32.8625 58.3529 32.8625 56.1476C32.8625 55.016 31.9484 54.102 30.8168 54.102C29.6851 54.102 28.7711 55.016 28.7711 56.1476C28.7711 59.8908 31.339 63.039 34.7921 63.9531V65.8392C34.7921 66.9708 35.7061 67.8849 36.8377 67.8849C37.9694 67.8849 38.8834 66.9708 38.8834 65.8392V63.9531C42.3363 63.0391 44.9044 59.8908 44.9044 56.1476C44.9044 51.6936 41.2919 48.0666 36.8379 48.0666C36.9104 48.052 36.8379 48.0666 36.8234 48.0666C34.7777 47.907 32.8771 46.2095 32.8771 44.1203C32.8771 41.9151 34.6616 40.1306 36.8524 40.1306Z" fill="#B40207"/>
<path d="M72.7173 21.8358L37.9122 0.741054C37.2594 0.349336 36.4469 0.349336 35.794 0.741054L0.988919 21.8358C0.205483 22.3146 -0.171736 23.2576 0.0749069 24.1427C0.32155 25.0277 1.13401 25.6371 2.04802 25.6371H3.49891V30.9905C3.49891 32.1222 4.41292 33.0362 5.54458 33.0362H7.32907V62.7782H5.55904C4.42741 62.7782 3.51337 63.6922 3.51337 64.8238V72.0925C3.51337 73.2241 4.42738 74.1381 5.55904 74.1381H21.6782C22.8099 74.1381 23.7239 73.2241 23.7239 72.0925V64.8238C23.7239 63.6922 22.8099 62.7782 21.6782 62.7782H19.8793V33.0362H21.6638C22.7954 33.0362 23.7094 32.1222 23.7094 30.9905V25.6371H49.9694V30.9905C49.9694 32.1222 50.8835 33.0362 52.0151 33.0362H53.8287V62.7782H52.0442C50.9125 62.7782 49.9985 63.6922 49.9985 64.8238V72.0925C49.9985 73.2241 50.9125 74.1381 52.0442 74.1381H68.1634C69.295 74.1381 70.209 73.2241 70.209 72.0925V64.8238C70.209 63.6922 69.295 62.7782 68.1634 62.7782H66.3789V33.0362H68.1634C69.295 33.0362 70.209 32.1222 70.209 30.9905V25.6371H71.6599C72.5739 25.6371 73.3864 25.0277 73.633 24.1427C73.8796 23.2576 73.5025 22.3147 72.719 21.8358H72.7173ZM19.6322 70.0607H7.60492V66.8835H19.6322V70.0607ZM11.4351 62.7776V33.0357H15.7875V62.7776H11.4351ZM19.6322 28.9449H7.60492V25.7676H19.6322V28.9449ZM9.37496 21.5457L36.854 4.89063L64.333 21.5457H9.37496ZM66.1025 70.0611H54.0752V66.8839H66.1025V70.0611ZM57.9198 62.778V33.0361H62.2722V62.778H57.9198ZM66.1025 28.9453H54.0752V25.768H66.1025V28.9453Z" fill="#B40207"/>
</svg>
