<svg width="26" height="26" viewBox="0 0 26 26" fill="none" xmlns="http://www.w3.org/2000/svg">
<path d="M12.9284 13.0357C14.9163 13.0357 16.534 11.4183 16.534 9.4301C16.5343 7.44167 14.9166 5.82422 12.9284 5.82422C10.94 5.82422 9.32227 7.44167 9.32227 9.42986C9.3225 11.4183 10.9402 13.0357 12.9284 13.0357ZM12.9284 6.81781C14.3689 6.81781 15.5409 7.98973 15.5409 9.43034C15.5409 10.8709 14.369 12.0429 12.9284 12.0429C11.4876 12.0429 10.3156 10.8709 10.3156 9.43034C10.3156 7.98979 11.4875 6.81781 12.9284 6.81781Z" fill="#848484"/>
<path d="M4.64996 12.5862C6.59729 16.9356 12.3562 21.9279 12.6009 22.1389C12.6042 22.1419 12.6083 22.1424 12.6116 22.1452C12.6522 22.1789 12.697 22.2048 12.7441 22.223C12.7538 22.2269 12.7635 22.2295 12.7733 22.2327C12.8224 22.2482 12.8726 22.2588 12.9238 22.2593H12.9245H12.9252H12.9266C12.9777 22.259 13.0278 22.2482 13.0767 22.2327C13.0867 22.2295 13.0962 22.2269 13.1061 22.223C13.1537 22.2045 13.1975 22.1787 13.2384 22.1454C13.2419 22.1424 13.2463 22.1419 13.2495 22.1389C13.4946 21.9278 19.2706 16.9206 21.2094 12.5667C21.2119 12.5609 21.2144 12.5547 21.2172 12.5486C21.2186 12.5454 21.2198 12.5415 21.2211 12.5383C21.5949 11.5455 21.7845 10.4995 21.7845 9.42822C21.7845 4.54411 17.8111 0.570801 12.9271 0.570801C12.9268 0.570801 12.9261 0.571032 12.9254 0.571032C12.9248 0.571032 12.9241 0.570801 12.9238 0.570801C8.03953 0.570801 4.06641 4.54416 4.06641 9.42822C4.06641 10.4999 4.2558 11.546 4.62905 12.5383C4.63482 12.5544 4.64198 12.5706 4.64983 12.5861L4.64996 12.5862ZM12.9238 1.56407H12.9254H12.927C17.2633 1.56407 20.7911 5.0919 20.7911 9.42813C20.7911 10.3749 20.6246 11.299 20.2963 12.1753C18.6957 15.7546 14.1724 19.9761 12.9254 21.0983C11.6773 19.9754 7.14722 15.7477 5.55034 12.167C5.22513 11.2937 5.05953 10.3724 5.05953 9.42843C5.05953 5.09219 8.58736 1.56436 12.9236 1.56436L12.9238 1.56407Z" fill="#848484"/>
<path d="M25.0151 23.5924L23.1317 21.2851C22.5788 20.6069 21.4602 20.0759 20.5853 20.0759H16.9773C16.7031 20.0759 16.4807 20.2984 16.4807 20.5725C16.4807 20.8467 16.7031 21.0691 16.9773 21.0691H20.5853C21.1655 21.0691 21.9954 21.4634 22.3622 21.9129L24.2455 24.2202C24.316 24.3066 24.3481 24.3697 24.3626 24.408C24.3238 24.4209 24.2545 24.4357 24.143 24.4357H1.70971C1.60947 24.4357 1.54087 24.4235 1.49883 24.4112C1.51639 24.3711 1.5508 24.3108 1.61525 24.2336L3.55536 21.9073C3.92792 21.4608 4.76495 21.0688 5.34677 21.0688H8.87969C9.15385 21.0688 9.37627 20.8464 9.37627 20.5723C9.37627 20.2981 9.15385 20.0757 8.87969 20.0757L5.34677 20.0759C4.47369 20.0759 3.35167 20.6011 2.79225 21.2714L0.852136 23.5978C0.501292 24.0184 0.399437 24.4732 0.573357 24.8446C0.747277 25.2164 1.16164 25.4296 1.70974 25.4296H24.143C24.6897 25.4296 25.1048 25.2164 25.2812 24.8446C25.4577 24.4727 25.3607 24.0163 25.0152 23.5925L25.0151 23.5924Z" fill="#848484"/>
</svg>
