<svg width="51" height="51" viewBox="0 0 51 51" fill="none" xmlns="http://www.w3.org/2000/svg">
<circle cx="25.7136" cy="25.4456" r="25" fill="#FBFBFB"/>
<path d="M24.2287 8.65347C23.9144 8.63268 23.6047 8.73761 23.3677 8.94517C23.1308 9.15272 22.986 9.44591 22.9652 9.76022C22.9444 10.0745 23.0493 10.3842 23.2569 10.6212C23.4645 10.8581 23.7576 11.0029 24.072 11.0237C32.3718 11.57 39.0091 18.2089 39.5522 26.5087C39.5624 26.6644 39.6031 26.8165 39.6721 26.9563C39.7411 27.0962 39.8369 27.2212 39.9542 27.324C40.0714 27.4269 40.2078 27.5056 40.3555 27.5557C40.5032 27.6059 40.6593 27.6264 40.8149 27.6163C40.9706 27.6061 41.1227 27.5653 41.2625 27.4964C41.4024 27.4274 41.5274 27.3315 41.6302 27.2143C41.733 27.097 41.8118 26.9607 41.8619 26.813C41.9121 26.6653 41.9327 26.5092 41.9225 26.3536C41.3002 16.8615 33.716 9.2773 24.2287 8.65347ZM22.1672 30.1805C22.6396 30.1805 23.0927 29.9928 23.4267 29.6588C23.7608 29.3247 23.9485 28.8716 23.9485 28.3992C23.9485 27.9268 23.7608 27.4737 23.4267 27.1397C23.0927 26.8056 22.6396 26.618 22.1672 26.618C21.6948 26.618 21.2417 26.8056 20.9077 27.1397C20.5736 27.4737 20.386 27.9268 20.386 28.3992C20.386 28.8716 20.5736 29.3247 20.9077 29.6588C21.2417 29.9928 21.6948 30.1805 22.1672 30.1805ZM21.3439 39.918L20.7264 39.3068C19.1586 37.7485 17.5917 36.1895 16.0255 34.6296C14.8086 33.4126 13.9799 31.862 13.6442 30.1741C13.3085 28.4861 13.4809 26.7364 14.1396 25.1464C14.7983 23.5564 15.9136 22.1974 17.3446 21.2413C18.7756 20.2851 20.458 19.7748 22.1791 19.7748C23.9001 19.7748 25.5825 20.2851 27.0135 21.2413C28.4446 22.1974 29.5599 23.5564 30.2186 25.1464C30.8772 26.7364 31.0496 28.4861 30.714 30.1741C30.3783 31.862 29.5496 33.4126 28.3327 34.6296C27.6297 35.3326 26.2997 36.6563 25.147 37.8011L23.0159 39.918C22.7934 40.1389 22.4926 40.2629 22.1791 40.2629C21.8656 40.2629 21.5648 40.1389 21.3423 39.918H21.3439ZM17.7038 24.0023C16.5173 25.1888 15.8508 26.7981 15.8508 28.476C15.8508 30.154 16.5173 31.7632 17.7038 32.9497C18.467 33.7129 19.7938 35.0334 20.9322 36.1639L22.1783 37.4021L23.4703 36.1164C24.6245 34.9701 25.9514 33.6511 26.6528 32.9497C27.8393 31.763 28.5058 30.1536 28.5056 28.4755C28.5055 26.7973 27.8387 25.188 26.652 24.0015C25.4653 22.815 23.8558 22.1485 22.1777 22.1487C20.4996 22.1488 18.8903 22.8156 17.7038 24.0023ZM24.2588 14.1587C23.9451 14.1304 23.633 14.2278 23.3912 14.4296C23.1493 14.6313 22.9975 14.9209 22.9692 15.2346C22.9408 15.5483 23.0382 15.8604 23.24 16.1022C23.4418 16.3441 23.7314 16.4959 24.045 16.5242C26.6181 16.7603 29.0273 17.8897 30.8548 19.7163C32.6823 21.5429 33.8128 23.9516 34.0501 26.5246C34.0785 26.8382 34.2303 27.1278 34.4721 27.3296C34.714 27.5313 35.0261 27.6288 35.3398 27.6004C35.6534 27.5721 35.943 27.4203 36.1448 27.1784C36.3465 26.9366 36.444 26.6245 36.4156 26.3108C36.1282 23.1838 34.7548 20.2562 32.5337 18.0363C30.3127 15.8164 27.3844 14.4445 24.2572 14.1587H24.2588Z" fill="#CA1419"/>
</svg>
