<svg width="27" height="42" viewBox="0 0 27 42" fill="none" xmlns="http://www.w3.org/2000/svg">
<path d="M1.96875 17.5225C2.30856 17.5225 2.63445 17.6574 2.87473 17.8977C3.11501 18.138 3.25 18.4639 3.25 18.8037V21.3662C3.25 24.0847 4.32991 26.6918 6.25215 28.6141C8.1744 30.5363 10.7815 31.6162 13.5 31.6162C16.2185 31.6162 18.8256 30.5363 20.7478 28.6141C22.6701 26.6918 23.75 24.0847 23.75 21.3662V18.8037C23.75 18.4639 23.885 18.138 24.1253 17.8977C24.3655 17.6574 24.6914 17.5225 25.0312 17.5225C25.3711 17.5225 25.697 17.6574 25.9372 17.8977C26.1775 18.138 26.3125 18.4639 26.3125 18.8037V21.3662C26.3125 24.5425 25.1328 27.6056 23.0021 29.9612C20.8714 32.3168 17.9416 33.797 14.7812 34.1146V39.3037H22.4688C22.8086 39.3037 23.1345 39.4387 23.3747 39.679C23.615 39.9193 23.75 40.2452 23.75 40.585C23.75 40.9248 23.615 41.2507 23.3747 41.4909C23.1345 41.7312 22.8086 41.8662 22.4688 41.8662H4.53125C4.19144 41.8662 3.86555 41.7312 3.62527 41.4909C3.38499 41.2507 3.25 40.9248 3.25 40.585C3.25 40.2452 3.38499 39.9193 3.62527 39.679C3.86555 39.4387 4.19144 39.3037 4.53125 39.3037H12.2188V34.1146C9.05838 33.797 6.12865 32.3168 3.99794 29.9612C1.86723 27.6056 0.68746 24.5425 0.6875 21.3662V18.8037C0.6875 18.4639 0.822489 18.138 1.06277 17.8977C1.30305 17.6574 1.62894 17.5225 1.96875 17.5225Z" fill="#CA1419"/>
<path d="M18.625 21.3662C18.625 22.7254 18.085 24.029 17.1239 24.9901C16.1628 25.9513 14.8592 26.4912 13.5 26.4912C12.1408 26.4912 10.8372 25.9513 9.87608 24.9901C8.91495 24.029 8.375 22.7254 8.375 21.3662V8.55371C8.375 7.19448 8.91495 5.89091 9.87608 4.92979C10.8372 3.96866 12.1408 3.42871 13.5 3.42871C14.8592 3.42871 16.1628 3.96866 17.1239 4.92979C18.085 5.89091 18.625 7.19448 18.625 8.55371V21.3662ZM13.5 0.866211C11.4611 0.866211 9.5058 1.67614 8.06412 3.11783C6.62243 4.55951 5.8125 6.51486 5.8125 8.55371V21.3662C5.8125 23.4051 6.62243 25.3604 8.06412 26.8021C9.5058 28.2438 11.4611 29.0537 13.5 29.0537C15.5389 29.0537 17.4942 28.2438 18.9359 26.8021C20.3776 25.3604 21.1875 23.4051 21.1875 21.3662V8.55371C21.1875 6.51486 20.3776 4.55951 18.9359 3.11783C17.4942 1.67614 15.5389 0.866211 13.5 0.866211V0.866211Z" fill="#CA1419"/>
</svg>
