<svg width="51" height="51" viewBox="0 0 51 51" fill="none" xmlns="http://www.w3.org/2000/svg">
<circle cx="25.7136" cy="25.5557" r="25" fill="#CD181D"/>
<path d="M30.2903 33.0552C31.4985 33.0552 32.4778 32.0758 32.4778 30.8677C32.4778 29.6596 31.4985 28.6802 30.2903 28.6802C29.0822 28.6802 28.1028 29.6596 28.1028 30.8677C28.1028 32.0758 29.0822 33.0552 30.2903 33.0552Z" fill="white"/>
<path d="M14.9778 17.7427C16.186 17.7427 17.1653 16.7633 17.1653 15.5552C17.1653 14.3471 16.186 13.3677 14.9778 13.3677C13.7697 13.3677 12.7903 14.3471 12.7903 15.5552C12.7903 16.7633 13.7697 17.7427 14.9778 17.7427Z" fill="white"/>
<path d="M36.8528 41.8052C35.9876 41.8052 35.1417 41.5486 34.4222 41.0679C33.7028 40.5871 33.142 39.9038 32.8109 39.1044C32.4797 38.305 32.3931 37.4253 32.5619 36.5767C32.7307 35.728 33.1474 34.9484 33.7593 34.3366C34.3711 33.7247 35.1507 33.3081 35.9993 33.1392C36.848 32.9704 37.7277 33.0571 38.5271 33.3882C39.3265 33.7193 40.0098 34.2801 40.4905 34.9996C40.9713 35.719 41.2278 36.5649 41.2278 37.4302C41.2244 38.5894 40.7623 39.7002 39.9426 40.5199C39.1229 41.3397 38.0121 41.8017 36.8528 41.8052ZM36.8528 35.2427C36.4202 35.2427 35.9973 35.371 35.6375 35.6113C35.2778 35.8517 34.9974 36.1933 34.8319 36.5931C34.6663 36.9928 34.623 37.4326 34.7074 37.8569C34.7918 38.2813 35.0001 38.671 35.3061 38.977C35.612 39.2829 36.0018 39.4912 36.4261 39.5756C36.8504 39.6601 37.2903 39.6167 37.69 39.4512C38.0897 39.2856 38.4313 39.0052 38.6717 38.6455C38.9121 38.2858 39.0403 37.8628 39.0403 37.4302C39.0386 36.8505 38.8076 36.2952 38.3977 35.8853C37.9879 35.4754 37.4325 35.2444 36.8528 35.2427Z" fill="white"/>
<path d="M40.1341 25.3989C40.1223 21.3414 38.5052 17.4535 35.6361 14.5844C32.767 11.7153 28.8791 10.0982 24.8216 10.0864C22.2089 10.0491 19.6362 10.7302 17.3841 12.0552L18.5872 13.9145C19.4422 13.5036 20.3184 13.1385 21.2122 12.8208C19.4041 16.3885 18.3963 20.3078 18.2591 24.3052H11.6966C11.8191 22.4992 12.3422 20.7432 13.2278 19.1645L11.5872 17.7427C10.2263 20.0647 9.50895 22.7075 9.50909 25.3989C9.50881 27.4099 9.90468 29.4012 10.6741 31.2591C11.4435 33.117 12.5714 34.8052 13.9934 36.2271C15.4153 37.6491 17.1035 38.777 18.9614 39.5464C20.8193 40.3158 22.8106 40.7117 24.8216 40.7114C26.7714 40.7298 28.7052 40.3579 30.5091 39.6177L29.8528 37.5395C28.0596 38.3064 26.112 38.6434 24.1653 38.5239C21.8329 34.9365 20.5452 30.7705 20.4466 26.4927H40.0247C40.1151 26.1355 40.152 25.7669 40.1341 25.3989ZM21.3216 38.0864C19.1466 37.4345 17.1591 36.272 15.5247 34.6958C13.3546 32.4752 12.0045 29.5823 11.6966 26.4927H18.2591C18.4096 30.5362 19.4556 34.496 21.3216 38.0864ZM20.4466 24.3052C20.5336 20.0412 21.7815 15.8816 24.056 12.2739H25.5872C27.8617 15.8816 29.1096 20.0412 29.1966 24.3052H20.4466ZM31.3841 24.3052C31.3009 20.2519 30.2509 16.2771 28.3216 12.7114C30.895 13.4532 33.1827 14.9587 34.8818 17.029C36.5809 19.0992 37.6115 21.6365 37.8372 24.3052H31.3841Z" fill="white"/>
</svg>
