<svg width="21" height="21" viewBox="0 0 21 21" fill="none" xmlns="http://www.w3.org/2000/svg">
<path d="M10.1045 0.196777C12.8687 0.196777 15.3719 1.31737 17.1831 3.1289C17.8488 3.79382 18.4202 4.55236 18.8776 5.38283C18.8821 5.39052 18.8859 5.39806 18.8904 5.40576C19.6711 6.83171 20.1153 8.4678 20.1153 10.2073C20.1153 11.9476 19.6711 13.5836 18.8904 15.0088C18.8865 15.0165 18.8821 15.0241 18.8776 15.0318C18.4202 15.8622 17.848 16.6206 17.1831 17.2857C15.3715 19.0974 12.8687 20.2178 10.1045 20.2178C7.34032 20.2178 4.8371 19.0972 3.02587 17.2857C2.36024 16.6208 1.78885 15.8622 1.33138 15.0318C1.32694 15.0241 1.3231 15.0165 1.31866 15.0088C0.537921 13.5829 0.09375 11.9468 0.09375 10.2073C0.09375 8.46693 0.537921 6.83099 1.31866 5.40576C1.3225 5.39807 1.32694 5.39052 1.33138 5.38283C1.78885 4.55236 2.361 3.79397 3.02587 3.1289C4.83756 1.31722 7.34032 0.196777 10.1045 0.196777ZM1.92672 14.4184H5.37047C5.09365 13.2552 4.92766 11.9692 4.90028 10.6153H0.917625C0.977397 11.9815 1.33502 13.27 1.9274 14.4184H1.92672ZM6.20594 14.4184H9.69749V10.6153H5.71484C5.74354 11.9815 5.91783 13.2694 6.20605 14.4184H6.20594ZM10.5121 14.4184H14.0036C14.2926 13.2693 14.4663 11.9813 14.4948 10.6153H10.5122L10.5121 14.4184ZM14.839 14.4184H18.2828C18.8752 13.2704 19.2328 11.9813 19.2925 10.6153H15.3099C15.2819 11.9694 15.1165 13.2554 14.8397 14.4184H14.839ZM17.8081 15.2329H14.6214C14.4095 15.9437 14.1543 16.5972 13.8628 17.1801C13.4836 17.9387 13.0406 18.58 12.5494 19.0757C14.1065 18.6475 15.4982 17.8202 16.6078 16.7105C17.057 16.2614 17.4593 15.7663 17.8086 15.2323L17.8081 15.2329ZM13.7725 15.2329H10.5119V19.3633C11.5141 19.1616 12.4329 18.2269 13.1373 16.8173C13.3765 16.3388 13.5897 15.8075 13.7723 15.2329L13.7725 15.2329ZM9.69738 15.2329H6.43679C6.61936 15.8082 6.83256 16.3395 7.07182 16.8173C7.77624 18.2267 8.69499 19.1622 9.69723 19.3633V15.233L9.69738 15.2329ZM5.58784 15.2329H2.40107C2.7498 15.7667 3.15253 16.2618 3.60185 16.7111C4.71166 17.8209 6.10329 18.6481 7.66026 19.0763C7.16905 18.5806 6.72609 17.9391 6.34687 17.1807C6.05541 16.5977 5.80032 15.9437 5.58833 15.2335L5.58784 15.2329ZM0.916602 9.80075H4.89926C4.92722 8.44668 5.09263 7.16068 5.3702 5.99763H1.92645C1.33403 7.14561 0.976446 8.43472 0.916678 9.80075H0.916602ZM5.71397 9.80075H9.69662V5.99763H6.20507C5.91612 7.14678 5.74241 8.43472 5.71385 9.80075H5.71397ZM10.5117 9.80075H14.4944C14.4651 8.43456 14.2914 7.14663 14.0032 5.99763H10.5116L10.5117 9.80075ZM15.3091 9.80075H19.2917C19.232 8.43456 18.8743 7.14603 18.282 5.99763H14.8382C15.115 7.16084 15.281 8.44684 15.3092 9.80075H15.3091ZM2.40058 5.18292H5.58792C5.79979 4.47214 6.055 3.81863 6.34646 3.23571C6.72567 2.47717 7.16863 1.83578 7.65984 1.34014C6.1028 1.76833 4.71113 2.59565 3.60144 3.7053C3.15227 4.15447 2.74999 4.64955 2.40066 5.18348L2.40058 5.18292ZM6.43626 5.18292H9.69685V1.05255C8.69461 1.25421 7.77582 2.18898 7.07144 3.59853C6.8322 4.07701 6.61901 4.6083 6.43641 5.18295L6.43626 5.18292ZM10.5113 5.18292H13.7719C13.5893 4.60766 13.3762 4.07637 13.1369 3.59849C12.4325 2.18909 11.5137 1.25359 10.5115 1.05251V5.18288L10.5113 5.18292ZM14.6201 5.18292H17.8074C17.4587 4.64909 17.056 4.15405 16.6067 3.70473C15.4969 2.59493 14.1052 1.76772 12.5483 1.33957C13.0395 1.83521 13.4824 2.47672 13.8616 3.23515C14.1531 3.81809 14.4082 4.47217 14.6202 5.18235L14.6201 5.18292Z" fill="#D5D5D5"/>
</svg>
