<svg width="50" height="51" viewBox="0 0 50 51" fill="none" xmlns="http://www.w3.org/2000/svg">
<circle cx="25" cy="25.2432" r="25" fill="white"/>
<path d="M35.0384 15.1499H30.1186V11.5973C30.1186 11.1775 29.7795 10.8384 29.3597 10.8384H14.2454C12.636 10.8384 11.328 12.1464 11.328 13.7558V34.5492C11.328 36.5516 12.959 38.1825 14.9613 38.1825H35.0387C37.0411 38.1825 38.672 36.5516 38.672 34.5492V18.7834C38.672 16.781 37.041 15.1501 35.0387 15.1501L35.0384 15.1499ZM14.245 12.3563H28.6004V15.1499H14.245C13.4752 15.1499 12.8454 14.5255 12.8454 13.7558C12.8454 12.9861 13.4752 12.3563 14.245 12.3563ZM37.1536 34.5489C37.1536 35.7169 36.2062 36.6643 35.0382 36.6643H14.9608C13.7928 36.6643 12.8454 35.7169 12.8454 34.5489V16.3125C13.2599 16.5386 13.7389 16.6678 14.245 16.6678H35.0384C36.2064 16.6678 37.1538 17.6151 37.1538 18.7832L37.1536 34.5489Z" fill="#C91318"/>
<path d="M35.0439 18.0244H29.3061C28.9186 18.0244 28.5472 18.3581 28.5472 18.7834V23.7194C28.5472 24.1393 28.8863 24.4784 29.3061 24.4784H35.0439C35.4637 24.4784 35.8028 24.1393 35.8028 23.7194V18.7888C35.8028 18.3636 35.4637 18.0245 35.0439 18.0245V18.0244ZM34.2796 22.9605H30.0595V19.5479H34.2796V22.9605Z" fill="#C91318"/>
<path d="M35.0439 26.5613H14.9665C14.5466 26.5613 14.2075 26.9004 14.2075 27.3202C14.2075 27.7401 14.5466 28.0792 14.9665 28.0792H35.0439C35.4637 28.0792 35.8029 27.7401 35.8029 27.3202C35.8029 26.9004 35.4637 26.5613 35.0439 26.5613Z" fill="#C91318"/>
<path d="M14.9665 24.4781H25.0049C25.4248 24.4781 25.7639 24.139 25.7639 23.7192C25.7639 23.2993 25.4248 22.9602 25.0049 22.9602H14.9665C14.5466 22.9602 14.2075 23.2993 14.2075 23.7192C14.2075 24.139 14.5466 24.4781 14.9665 24.4781Z" fill="#C91318"/>
<path d="M35.0439 30.1621H14.9665C14.5466 30.1621 14.2075 30.5012 14.2075 30.9211C14.2075 31.3409 14.5466 31.68 14.9665 31.68H35.0439C35.4637 31.68 35.8029 31.3409 35.8029 30.9211C35.8029 30.5012 35.4637 30.1621 35.0439 30.1621Z" fill="#C91318"/>
<path d="M35.0439 33.7634H14.9665C14.5466 33.7634 14.2075 34.1025 14.2075 34.5224C14.2075 34.9422 14.5466 35.2814 14.9665 35.2814H35.0439C35.4637 35.2814 35.8029 34.9422 35.8029 34.5224C35.8029 34.1025 35.4637 33.7634 35.0439 33.7634Z" fill="#C91318"/>
<path d="M14.9881 19.3969L16.3984 21.2485H17.0604V18.2935H16.3984V20.1935L14.9451 18.2935H14.3314V21.2485H14.9881V19.3969Z" fill="#C91318"/>
<path d="M19.967 20.6674H18.449V20.0538H19.7732V19.4886H18.449V18.8804H19.9185V18.2937H17.787V21.2488H19.967V20.6674Z" fill="#C91318"/>
<path d="M21.7003 21.2485L22.3462 19.1924L22.9921 21.2485H23.4819L24.5154 18.2935H23.7995L23.2128 19.9944L22.6907 18.2935H22.0017L21.4742 19.9944L20.8929 18.2935H20.177L21.2105 21.2485H21.7003Z" fill="#C91318"/>
<path d="M25.9094 20.6994C25.6403 20.6994 25.3443 20.5595 25.0267 20.2796L24.6337 20.764C25.0105 21.1085 25.4304 21.2861 25.8986 21.2861C26.5392 21.2861 26.9805 20.9147 26.9805 20.3926C27.0021 19.8813 26.6522 19.6122 26.0924 19.4776C25.6887 19.3699 25.4518 19.2999 25.4411 19.09C25.4626 18.9231 25.5542 18.8047 25.7964 18.8047C26.0709 18.8047 26.3347 18.9016 26.593 19.0954L26.9268 18.6109C26.6253 18.3795 26.2701 18.2288 25.8179 18.2234C25.1612 18.2611 24.7791 18.5302 24.7575 19.1008C24.7575 19.639 25.0751 19.8866 25.7533 20.0373C26.044 20.1073 26.3185 20.188 26.297 20.4087C26.3077 20.5971 26.0924 20.7102 25.9094 20.6994L25.9094 20.6994Z" fill="#C91318"/>
</svg>
