<svg width="51" height="51" viewBox="0 0 51 51" fill="none" xmlns="http://www.w3.org/2000/svg">
<circle cx="25.9069" cy="25.5557" r="25" fill="#CD181D"/>
<g clip-path="url(#clip0_50_539)">
<path d="M24.3444 33.6807C24.3444 33.6807 22.7819 33.6807 22.7819 32.1182C22.7819 30.5557 24.3444 25.8682 30.5944 25.8682C36.8444 25.8682 38.4069 30.5557 38.4069 32.1182C38.4069 33.6807 36.8444 33.6807 36.8444 33.6807H24.3444ZM30.5944 24.3057C31.8376 24.3057 33.0298 23.8118 33.9089 22.9327C34.788 22.0537 35.2819 20.8614 35.2819 19.6182C35.2819 18.375 34.788 17.1827 33.9089 16.3036C33.0298 15.4245 31.8376 14.9307 30.5944 14.9307C29.3512 14.9307 28.1589 15.4245 27.2798 16.3036C26.4007 17.1827 25.9069 18.375 25.9069 19.6182C25.9069 20.8614 26.4007 22.0537 27.2798 22.9327C28.1589 23.8118 29.3512 24.3057 30.5944 24.3057V24.3057Z" fill="white"/>
<path fill-rule="evenodd" clip-rule="evenodd" d="M21.5569 33.6808C21.3252 33.1931 21.2097 32.6582 21.2194 32.1183C21.2194 30.0012 22.2819 27.8215 24.2444 26.3058C23.2648 26.004 22.2443 25.8564 21.2194 25.8683C14.9694 25.8683 13.4069 30.5558 13.4069 32.1183C13.4069 33.6808 14.9694 33.6808 14.9694 33.6808H21.5569Z" fill="white"/>
<path d="M20.4381 24.3057C21.4741 24.3057 22.4677 23.8941 23.2002 23.1615C23.9328 22.429 24.3444 21.4354 24.3444 20.3994C24.3444 19.3634 23.9328 18.3698 23.2002 17.6373C22.4677 16.9047 21.4741 16.4932 20.4381 16.4932C19.4021 16.4932 18.4085 16.9047 17.676 17.6373C16.9434 18.3698 16.5319 19.3634 16.5319 20.3994C16.5319 21.4354 16.9434 22.429 17.676 23.1615C18.4085 23.8941 19.4021 24.3057 20.4381 24.3057V24.3057Z" fill="white"/>
</g>
<defs>
<clipPath id="clip0_50_539">
<rect width="25" height="25" fill="white" transform="translate(13.4069 11.8057)"/>
</clipPath>
</defs>
</svg>
