<svg width="51" height="51" viewBox="0 0 51 51" fill="none" xmlns="http://www.w3.org/2000/svg">
<circle cx="25.6742" cy="25.4456" r="25" fill="#FBFBFB"/>
<path d="M32.6742 16.4456H36.6742V20.4456H32.6742V16.4456Z" fill="#CA1419"/>
<path d="M32.6742 22.4456H36.6742V26.4456H32.6742V22.4456Z" fill="#CA1419"/>
<path d="M26.6742 16.4456H30.6742V20.4456H26.6742V16.4456Z" fill="#CA1419"/>
<path d="M26.6742 22.4456H30.6742V26.4456H26.6742V22.4456Z" fill="#CA1419"/>
<path d="M24.1742 35.4456C25.0026 35.4456 25.6742 34.774 25.6742 33.9456C25.6742 33.1171 25.0026 32.4456 24.1742 32.4456C23.3458 32.4456 22.6742 33.1171 22.6742 33.9456C22.6742 34.774 23.3458 35.4456 24.1742 35.4456Z" fill="#CA1419"/>
<path d="M30.6742 39.4456H17.6742C17.1439 39.445 16.6355 39.2341 16.2606 38.8592C15.8856 38.4842 15.6747 37.9758 15.6742 37.4456V13.4456C15.6747 12.9153 15.8856 12.4069 16.2606 12.0319C16.6355 11.657 17.1439 11.4461 17.6742 11.4456H30.6742V13.4456H17.6742V37.4456H30.6742V29.4456H32.6742V37.4456C32.6737 37.9758 32.4628 38.4842 32.0878 38.8592C31.7129 39.2341 31.2045 39.445 30.6742 39.4456Z" fill="#CA1419"/>
</svg>
