<svg width="51" height="51" viewBox="0 0 51 51" fill="none" xmlns="http://www.w3.org/2000/svg">
<circle cx="25.6742" cy="25.2083" r="25" fill="#FBFBFB"/>
<g clip-path="url(#clip0_50_628)">
<path d="M20.2159 30.6667C15.0104 25.2339 15.0104 16.6107 20.2159 11.2917L39.5909 30.6667C34.2718 35.8721 25.6486 35.8721 20.2159 30.6667ZM20.2159 30.6667C15.9598 30.6667 12.4659 34.4771 12.4659 38.4167H27.9659C27.9659 36.9455 27.4879 35.7894 26.6742 34.5417L20.2159 30.6667ZM30.5492 20.3333L35.7159 15.1667L30.5492 20.3333ZM37.6534 10C36.7969 10 35.9756 10.3402 35.37 10.9458C34.7644 11.5514 34.4242 12.3727 34.4242 13.2292C34.4242 14.0856 34.7644 14.9069 35.37 15.5125C35.9756 16.1181 36.7969 16.4583 37.6534 16.4583C38.5098 16.4583 39.3311 16.1181 39.9367 15.5125C40.5423 14.9069 40.8825 14.0856 40.8825 13.2292C40.8825 12.3727 40.5423 11.5514 39.9367 10.9458C39.3311 10.3402 38.5098 10 37.6534 10V10Z" stroke="#CA1419" stroke-width="2"/>
</g>
<defs>
<clipPath id="clip0_50_628">
<rect width="31" height="31" fill="white" transform="translate(11.1742 8.70825)"/>
</clipPath>
</defs>
</svg>
