<svg width="51" height="51" viewBox="0 0 51 51" fill="none" xmlns="http://www.w3.org/2000/svg">
<circle cx="25.4069" cy="25.2083" r="25" fill="#FBFBFB"/>
<path d="M23.7653 11.5107C24.192 10.3854 25.8067 10.3854 26.2347 11.5107L28.9947 19.1561C29.188 19.6627 29.68 20.0001 30.2293 20.0001H37.012C38.2653 20.0001 38.812 21.5601 37.8267 22.3241L33 26.6667C32.7838 26.833 32.6258 27.0634 32.5487 27.325C32.4715 27.5865 32.4792 27.8658 32.5707 28.1227L34.3333 35.5934C34.7627 36.7934 33.3733 37.8241 32.3227 37.0854L25.7667 32.9254C25.5422 32.7676 25.2744 32.683 25 32.683C24.7256 32.683 24.4579 32.7676 24.2333 32.9254L17.6773 37.0854C16.628 37.8241 15.2373 36.7921 15.6667 35.5934L17.4293 28.1227C17.5208 27.8658 17.5285 27.5865 17.4513 27.325C17.3742 27.0634 17.2162 26.833 17 26.6667L12.1733 22.3241C11.1867 21.5601 11.736 20.0001 12.9867 20.0001H19.7693C20.0364 20.001 20.2974 19.9208 20.5179 19.77C20.7384 19.6193 20.9079 19.4052 21.004 19.1561L23.764 11.5107H23.7653Z" stroke="#CA1419" stroke-width="2" stroke-linecap="round" stroke-linejoin="round"/>
</svg>
