<svg width="51" height="51" viewBox="0 0 51 51" fill="none" xmlns="http://www.w3.org/2000/svg">
<circle cx="25.4069" cy="25.2236" r="25" fill="#FBFBFB"/>
<path d="M26.8013 21.8988C25.8457 20.9436 24.5498 20.407 23.1987 20.407C21.8475 20.407 20.5516 20.9436 19.596 21.8988L15.9922 25.5015C15.0365 26.4571 14.4996 27.7533 14.4996 29.1047C14.4996 30.4562 15.0365 31.7523 15.9922 32.708C16.9478 33.6636 18.2439 34.2005 19.5954 34.2005C20.9469 34.2005 22.243 33.6636 23.1987 32.708L25 30.9067" stroke="#CA1419" stroke-width="2" stroke-linecap="round" stroke-linejoin="round"/>
<path d="M23.1987 25.5014C24.1543 26.4566 25.4502 26.9932 26.8013 26.9932C28.1525 26.9932 29.4484 26.4566 30.404 25.5014L34.0078 21.8987C34.9635 20.9431 35.5003 19.647 35.5003 18.2955C35.5003 16.944 34.9635 15.6479 34.0078 14.6922C33.0522 13.7366 31.7561 13.1997 30.4046 13.1997C29.0531 13.1997 27.757 13.7366 26.8013 14.6922L25 16.4936" stroke="#CA1419" stroke-width="2" stroke-linecap="round" stroke-linejoin="round"/>
</svg>
