<svg width="200" height="146" viewBox="0 0 200 146" fill="none" xmlns="http://www.w3.org/2000/svg">
<path d="M199.795 124.434C199.795 124.434 199.795 124.201 199.795 123.792C199.795 123.383 199.795 122.74 199.795 121.923C199.795 120.287 199.795 117.951 199.795 114.855C199.795 108.78 199.737 99.9599 199.737 89.2122L199.854 89.3291C183.53 89.3291 162.176 89.3291 138.948 89.3291L139.065 89.2122C139.065 101.654 139.065 113.57 139.065 124.376L138.948 124.259C156.793 124.259 172.005 124.318 182.77 124.318C188.152 124.318 192.423 124.318 195.349 124.376C196.811 124.376 197.923 124.376 198.684 124.376C199.035 124.376 199.327 124.376 199.561 124.376C199.678 124.434 199.795 124.434 199.795 124.434C199.795 124.434 199.678 124.434 199.503 124.434C199.327 124.434 199.035 124.434 198.625 124.434C197.864 124.434 196.753 124.434 195.29 124.434C192.365 124.434 188.094 124.434 182.711 124.493C171.946 124.493 156.676 124.551 138.831 124.551H138.714V124.434C138.714 113.57 138.714 101.712 138.714 89.2706V89.1538H138.831C162.059 89.1538 183.413 89.1538 199.737 89.1538H199.854V89.2706C199.854 100.077 199.795 108.897 199.795 114.972C199.795 118.009 199.795 120.404 199.795 121.981C199.795 122.799 199.795 123.383 199.795 123.792C199.795 124.201 199.795 124.434 199.795 124.434Z" fill="#E0E0E0"/>
<path d="M199.795 93.4762C199.795 93.5346 186.163 93.593 169.372 93.593C152.58 93.593 138.948 93.5346 138.948 93.4762C138.948 93.4178 152.58 93.3594 169.372 93.3594C186.163 93.3594 199.795 93.4178 199.795 93.4762Z" fill="#E0E0E0"/>
<path d="M162.936 99.2593H144.097V118.068H162.936V99.2593Z" fill="#F5F5F5"/>
<path d="M195.349 102.355C195.349 102.355 195.232 102.355 195.056 102.355C194.822 102.355 194.588 102.355 194.237 102.355C193.535 102.355 192.54 102.355 191.312 102.414C188.796 102.414 185.403 102.414 181.658 102.472C177.914 102.472 174.52 102.472 172.005 102.414C170.776 102.414 169.781 102.355 169.079 102.355C168.728 102.355 168.494 102.355 168.26 102.355C168.085 102.355 167.968 102.355 167.968 102.355C167.968 102.355 168.085 102.355 168.26 102.355C168.494 102.355 168.728 102.355 169.079 102.355C169.781 102.355 170.776 102.355 172.005 102.297C174.52 102.297 177.914 102.297 181.658 102.238C185.403 102.238 188.796 102.238 191.312 102.297C192.54 102.297 193.535 102.355 194.237 102.355C194.588 102.355 194.822 102.355 195.056 102.355C195.232 102.355 195.349 102.355 195.349 102.355Z" fill="#E0E0E0"/>
<path d="M195.934 106.561C195.934 106.561 195.817 106.561 195.641 106.561C195.407 106.561 195.173 106.561 194.822 106.561C194.062 106.561 193.067 106.561 191.838 106.619C189.264 106.619 185.812 106.619 182.009 106.677C178.206 106.677 174.696 106.677 172.18 106.619C170.951 106.619 169.957 106.561 169.196 106.561C168.845 106.561 168.611 106.561 168.377 106.561C168.202 106.561 168.085 106.561 168.085 106.561C168.085 106.561 168.202 106.561 168.377 106.561C168.611 106.561 168.845 106.561 169.196 106.561C169.957 106.561 170.951 106.561 172.18 106.502C174.754 106.502 178.206 106.502 182.009 106.444C185.812 106.444 189.323 106.444 191.838 106.502C193.067 106.502 194.062 106.561 194.822 106.561C195.173 106.561 195.407 106.561 195.641 106.561C195.875 106.561 195.934 106.561 195.934 106.561Z" fill="#E0E0E0"/>
<path d="M195.934 110.766C195.934 110.766 195.817 110.766 195.641 110.766C195.407 110.766 195.173 110.766 194.822 110.766C194.062 110.766 193.067 110.766 191.838 110.825C189.264 110.825 185.812 110.825 182.009 110.883C178.206 110.883 174.696 110.883 172.18 110.825C170.951 110.825 169.957 110.766 169.196 110.766C168.845 110.766 168.611 110.766 168.377 110.766C168.202 110.766 168.085 110.766 168.085 110.766C168.085 110.766 168.202 110.766 168.377 110.766C168.611 110.766 168.845 110.766 169.196 110.766C169.957 110.766 170.951 110.766 172.18 110.708C174.754 110.708 178.206 110.708 182.009 110.649C185.812 110.649 189.323 110.649 191.838 110.708C193.067 110.708 194.062 110.766 194.822 110.766C195.173 110.766 195.407 110.766 195.641 110.766C195.875 110.766 195.934 110.766 195.934 110.766Z" fill="#E0E0E0"/>
<path d="M195.934 114.972C195.934 114.972 195.817 114.972 195.641 114.972C195.407 114.972 195.173 114.972 194.822 114.972C194.062 114.972 193.067 114.972 191.838 115.03C189.264 115.03 185.812 115.03 182.009 115.089C178.206 115.089 174.696 115.089 172.18 115.03C170.951 115.03 169.957 114.972 169.196 114.972C168.845 114.972 168.611 114.972 168.377 114.972C168.202 114.972 168.085 114.972 168.085 114.972C168.085 114.972 168.202 114.972 168.377 114.972C168.611 114.972 168.845 114.972 169.196 114.972C169.957 114.972 170.951 114.972 172.18 114.913C174.754 114.913 178.206 114.913 182.009 114.855C185.812 114.855 189.323 114.855 191.838 114.913C193.067 114.913 194.062 114.972 194.822 114.972C195.173 114.972 195.407 114.972 195.641 114.972C195.875 114.972 195.934 114.972 195.934 114.972Z" fill="#E0E0E0"/>
<path d="M167.616 51.0107H163.521V64.1533H167.616V51.0107Z" fill="#E8505B"/>
<path d="M175.105 45.5786H171.01V64.1535H175.105V45.5786Z" fill="#E8505B"/>
<path d="M183.121 43.0669H179.025V64.1535H183.121V43.0669Z" fill="#E8505B"/>
<path d="M191.078 40.3799H186.982V64.1534H191.078V40.3799Z" fill="#E8505B"/>
<path d="M26.0306 68.0663C26.0306 68.0663 26.3817 68.0663 26.9082 68.3584C27.4348 68.592 28.1954 69.1177 28.6634 70.1107C28.8975 70.578 29.0145 71.1622 29.0145 71.8047C29.0145 72.4472 28.839 73.0897 28.4294 73.7323C28.2539 74.0243 28.0199 74.3164 27.7273 74.55C27.4348 74.7837 27.1423 75.0173 26.7912 75.1341C26.0892 75.4846 25.2116 75.543 24.451 75.3678C23.6319 75.1926 22.9298 74.7253 22.4032 74.1412C22.1692 73.8491 21.9352 73.4986 21.8182 73.2066C21.6427 72.8561 21.5842 72.5056 21.5256 72.1552C21.4086 71.4542 21.5842 70.7533 21.8182 70.1692C22.0522 69.585 22.4618 69.1178 22.8713 68.7673C23.6904 68.0663 24.6265 67.8911 25.2116 67.8911C25.7381 67.9495 26.0306 68.0663 26.0306 68.0663C26.0306 68.0663 25.6796 68.0079 25.0945 68.0079C24.5095 68.0079 23.6319 68.2416 22.8713 68.8841C22.4618 69.2346 22.1107 69.6435 21.8767 70.2276C21.6427 70.8117 21.5257 71.4542 21.6427 72.0968C21.7012 72.4472 21.7597 72.7977 21.9352 73.0897C22.0522 73.4402 22.2862 73.7323 22.5203 74.0243C22.9883 74.6084 23.6904 75.0173 24.451 75.1926C25.2116 75.3678 26.0307 75.251 26.6742 74.9589C27.0253 74.8421 27.3178 74.6084 27.6103 74.3748C27.9029 74.1412 28.1369 73.9075 28.3124 73.6154C28.6634 73.0313 28.839 72.3888 28.8975 71.8047C28.956 71.2206 28.7805 70.6365 28.6049 70.1692C28.1954 69.2346 27.4933 68.6505 26.9668 68.4168C26.3817 68.1248 26.0306 68.0663 26.0306 68.0663Z" fill="#263238"/>
<path d="M29.0145 64.0946C29.0145 64.0946 29.0145 64.0362 29.0145 63.9778C29.0145 63.8609 29.0145 63.7441 29.0145 63.5689C29.0145 63.2184 29.0145 62.6927 29.0145 61.9918V62.0502C28.1369 61.8749 27.0253 61.6413 25.6211 61.2908L25.6796 61.2324C25.3871 61.8165 25.0946 62.4591 24.802 63.1016V63.16H24.7435C24.0415 63.2184 23.2809 63.3352 22.5203 63.5689H22.4618L22.4033 63.5105C21.9352 63.0432 21.4672 62.5759 20.9406 62.0502H21.0576C20.1215 62.6343 19.1854 63.2768 18.1323 63.9194L18.1908 63.8025C18.4248 64.3866 18.6588 65.0876 18.8929 65.7885V65.8469L18.8344 65.9053C18.3663 66.431 17.8983 67.0152 17.5472 67.7161V67.7745H17.4887C16.8451 67.7745 16.1431 67.7745 15.3825 67.7745L15.4995 67.7161C15.2655 68.7675 15.0314 69.9357 14.7389 71.104L14.6804 70.9871C15.2655 71.2792 15.909 71.5712 16.5526 71.8633H16.6111V71.9217C16.6111 72.6227 16.7866 73.382 17.0207 74.0829V74.1414L16.9622 74.1998C16.4941 74.6671 16.0261 75.1928 15.4995 75.66V75.5432C16.0846 76.4778 16.7281 77.4708 17.3717 78.4638L17.2547 78.4054C17.8983 78.1717 18.5418 77.9381 19.2439 77.7044H19.3024L19.3609 77.7629C19.8875 78.2302 20.4726 78.6975 21.1746 79.0479C21.1746 79.1063 21.1161 78.9311 21.2331 79.1647V79.2231V79.2816V79.3984V79.632V80.1577C21.2331 80.5082 21.2331 80.8587 21.2331 81.2091L21.1746 81.0923C22.2863 81.326 23.4564 81.618 24.568 81.8517L24.451 81.9101C24.7435 81.2676 25.0361 80.625 25.3286 80.0409V79.9825H25.3871C26.1477 79.9825 26.8498 79.8073 27.5518 79.632H27.6104L27.6689 79.6905C28.1954 80.2162 28.6635 80.6834 29.1315 81.1507H29.0145C30.0091 80.5082 31.0037 79.9241 31.9398 79.2816L31.8813 79.3984C31.6473 78.7559 31.4133 78.0549 31.1793 77.4124V77.354L31.2378 77.2956C31.7643 76.7115 32.1739 76.1273 32.5249 75.4848V75.4264H32.5834C33.2855 75.4264 33.9876 75.4264 34.6896 75.4264L34.6311 75.4848C34.9237 74.3166 35.1577 73.2068 35.3917 72.097L35.4502 72.2138C34.8067 71.9217 34.1631 71.6297 33.578 71.3376H33.5195V71.2792C33.461 70.4614 33.344 69.7605 33.1685 69.0596V69.0011L33.227 68.9427C33.7535 68.417 34.2216 67.9497 34.6896 67.4824V67.5409C33.9876 66.431 33.344 65.438 32.8759 64.6203H32.9344C32.1739 64.9123 31.4718 65.146 30.9452 65.3212C30.4187 64.7955 29.8921 64.5035 29.5996 64.2698C29.4241 64.153 29.307 64.0946 29.2485 64.0362C29.073 64.0946 29.0145 64.0946 29.0145 64.0946C29.0145 64.0946 29.073 64.0946 29.1315 64.153C29.19 64.2114 29.3656 64.2698 29.4826 64.3282C29.8336 64.5035 30.3017 64.8539 30.8282 65.3212H30.7697C31.2963 65.146 31.9398 64.9123 32.7589 64.6203H32.8174V64.6787C33.344 65.4965 33.9291 66.431 34.6896 67.5993V67.6577L34.6311 67.7161C34.1631 68.1834 33.695 68.6507 33.1685 69.1764V69.118C33.4025 69.8189 33.5195 70.5198 33.578 71.3376L33.5195 71.2792C34.1046 71.5712 34.7481 71.8633 35.3917 72.1554H35.4502V72.2138C35.2162 73.2652 34.9822 74.375 34.6896 75.6016V75.66H34.6311C33.9291 75.66 33.2855 75.66 32.5249 75.66L32.5834 75.6016C32.2324 76.2442 31.8228 76.8867 31.2963 77.4708V77.354C31.5303 77.9965 31.7643 78.639 31.9983 79.34V79.3984L31.9398 79.4568C31.0037 80.0409 30.0091 80.6834 29.0145 81.326L28.956 81.3844L28.8975 81.326C28.4294 80.8587 27.9029 80.333 27.4348 79.8657H27.5518C26.8498 80.0993 26.0892 80.2162 25.3286 80.2746L25.4456 80.2162C25.1531 80.8587 24.8605 81.4428 24.568 82.0853L24.5095 82.1437H24.451C23.3394 81.9101 22.2278 81.618 21.0576 81.3844H20.9991V81.326C20.9991 80.9755 20.9991 80.625 20.9991 80.2746V79.7488V79.5152V79.3984V79.34V79.2816C21.1161 79.4568 21.0576 79.34 21.0576 79.3984C20.3555 79.0479 19.712 78.5806 19.1854 78.1133H19.3024C18.6003 78.347 17.9568 78.5806 17.3132 78.8143H17.2547L17.1962 78.7559C16.5526 77.7629 15.909 76.7699 15.324 75.8353L15.2655 75.7769L15.324 75.7185C15.8505 75.1928 16.3186 74.7255 16.7866 74.2582V74.375C16.5526 73.6157 16.4356 72.8563 16.3771 72.1554L16.4356 72.2138C15.792 71.9217 15.1485 71.5712 14.5634 71.3376L14.5049 71.2792V71.2208C14.7974 70.0526 15.0314 68.8843 15.2655 67.8329V67.7745H15.324C16.0261 67.7745 16.7866 67.7745 17.4302 67.7745L17.3717 67.8329C17.7227 67.132 18.1908 66.4895 18.6589 65.9638V66.0806C18.4248 65.3796 18.1908 64.7371 17.9568 64.0946V64.0362L18.0153 63.9778C19.0684 63.3352 20.0045 62.6927 20.9406 62.167L20.9991 62.1086L21.0576 62.167C21.5842 62.6927 22.0522 63.16 22.5203 63.6273H22.4618C23.2224 63.3937 23.983 63.2768 24.685 63.2184L24.6265 63.2768C24.9776 62.5759 25.2701 61.9918 25.5041 61.4076V61.3492H25.5626C26.9083 61.6413 28.0784 61.9334 28.956 62.1086C28.956 62.7511 28.956 63.2768 28.956 63.6273C28.956 63.8025 28.956 63.9193 28.956 64.0362C29.0145 64.0362 29.0145 64.0946 29.0145 64.0946Z" fill="#263238"/>
<path fill-rule="evenodd" clip-rule="evenodd" d="M9.18073 59.8313C9.59028 60.0649 9.99983 60.357 10.3509 60.649L11.638 60.1817L12.8081 62.0509L11.872 62.9855C11.989 63.4528 12.1061 63.9201 12.1061 64.3874L13.3347 64.9715L12.8666 67.1327H11.521C11.287 67.5416 10.9944 67.9505 10.7019 68.3009L11.17 69.586L9.29775 70.7542L8.36164 69.8196C7.89359 69.9364 7.42554 70.0533 6.95749 70.0533L6.37242 71.2799L4.20768 70.8126V69.4692C3.79813 69.2355 3.38858 68.9434 3.03754 68.6514L1.7504 69.1187L0.580271 67.2495L1.51637 66.3149C1.39936 65.8476 1.28235 65.3803 1.28235 64.9131L0.0537109 64.3289L0.521765 62.1677H1.86741C2.10144 61.7588 2.39397 61.35 2.68651 60.9995L2.21845 59.7144L4.09066 58.5462L5.02677 59.4808C5.49482 59.364 5.96287 59.2472 6.43093 59.2472L7.01599 58.0205L9.18073 58.4878V59.8313ZM7.25002 62.343C5.96288 62.0509 4.67573 62.8687 4.3832 64.1537C4.09066 65.4388 4.90976 66.7238 6.1969 67.0159C7.48404 67.3079 8.77119 66.4902 9.06372 65.2051C9.35625 63.9201 8.53716 62.635 7.25002 62.343Z" fill="#E8505B"/>
<g opacity="0.4">
<g opacity="0.4">
<g opacity="0.4">
<path opacity="0.4" fill-rule="evenodd" clip-rule="evenodd" d="M9.18073 59.8313C9.59028 60.0649 9.99983 60.357 10.3509 60.649L11.638 60.1817L12.8081 62.0509L11.872 62.9855C11.989 63.4528 12.1061 63.9201 12.1061 64.3874L13.3347 64.9715L12.8666 67.1327H11.521C11.287 67.5416 10.9944 67.9505 10.7019 68.3009L11.17 69.586L9.29775 70.7542L8.36164 69.8196C7.89359 69.9364 7.42554 70.0533 6.95749 70.0533L6.37242 71.2799L4.20768 70.8126V69.4692C3.79813 69.2355 3.38858 68.9434 3.03754 68.6514L1.7504 69.1187L0.580271 67.2495L1.51637 66.3149C1.39936 65.8476 1.28235 65.3803 1.28235 64.9131L0.0537109 64.3289L0.521765 62.1677H1.86741C2.10144 61.7588 2.39397 61.35 2.68651 60.9995L2.21845 59.7144L4.09066 58.5462L5.02677 59.4808C5.49482 59.364 5.96287 59.2472 6.43093 59.2472L7.01599 58.0205L9.18073 58.4878V59.8313ZM7.25002 62.343C5.96288 62.0509 4.67573 62.8687 4.3832 64.1537C4.09066 65.4388 4.90976 66.7238 6.1969 67.0159C7.48404 67.3079 8.77119 66.4902 9.06372 65.2051C9.35625 63.9201 8.53716 62.635 7.25002 62.343Z" fill="white"/>
</g>
</g>
</g>
<path d="M138.363 38.3358C140.82 37.6933 142.634 35.1816 142.517 32.6699C142.459 31.5017 141.991 30.3918 142.049 29.282C142.108 27.5297 143.278 26.011 144.214 24.4923C145.091 22.9736 145.676 20.9292 144.682 19.4689C144.038 18.5343 142.81 18.1254 141.991 17.3077C141.171 16.4899 140.82 15.3801 140.411 14.3287C140.001 13.2773 139.416 12.2259 138.422 11.6417C137.427 11.0576 135.906 11.3497 135.555 12.4011" fill="#263238"/>
<path d="M127.773 9.53889C129.529 8.42907 129.938 5.85896 129.002 3.9898C128.066 2.12063 126.018 1.01081 123.971 0.718749C120.987 0.251457 117.827 1.30286 115.721 3.46409C114.61 4.63232 113.673 6.15102 112.152 6.67672C110.807 7.14401 109.285 6.73514 107.881 6.91037C106.009 7.14402 104.371 8.48748 103.376 10.123C102.382 11.7585 102.031 13.6861 101.797 15.5553C101.563 17.3076 101.446 19.2352 100.217 20.4618C99.0468 21.6885 97.1746 21.9805 95.7119 22.8567C92.9621 24.4922 92.0845 28.6394 93.8982 31.268C94.4832 32.0857 95.3023 32.9035 95.3608 33.8965C95.4194 34.8311 94.8343 35.6488 94.5418 36.5834C93.8397 38.8615 95.7119 41.6068 98.1107 41.7236C99.3393 41.782 100.626 41.3147 101.738 41.8404C102.85 42.3661 103.201 43.7096 103.903 44.7026C105.248 46.6302 108.115 47.3895 110.28 46.3381C111.158 45.8708 112.035 45.1699 113.03 45.2283C114.024 45.2867 114.785 46.1629 115.78 46.3381C117.067 46.5718 118.295 45.6372 119.056 44.5858C119.817 43.5344 120.343 42.3077 121.338 41.4316C122.625 40.3217 124.38 40.0297 126.018 39.4456C129.587 38.2189 132.571 35.4152 133.975 31.9105C135.379 28.4058 135.204 24.317 133.507 20.9875" fill="#263238"/>
<path d="M131.635 11.8168C133.098 11.9921 134.151 13.2187 134.151 14.679L132.454 52.4712C132.395 56.9105 125.843 59.4222 121.045 59.3054C116.189 59.1886 116.072 56.8521 116.014 52.5881C115.897 45.5203 115.897 42.8333 115.897 42.8918C115.897 42.8918 109.812 41.8404 108.525 33.8964C107.881 29.9244 108.115 23.4407 108.466 18.1837C108.759 13.3939 111.977 7.5528 116.716 8.07851L131.635 11.8168Z" fill="#FFBE9D"/>
<path d="M110.221 23.2656C110.221 23.7913 110.631 24.2586 111.216 24.317C111.801 24.3755 112.269 23.9666 112.269 23.3825C112.269 22.8568 111.86 22.3895 111.275 22.3311C110.748 22.3311 110.28 22.7399 110.221 23.2656Z" fill="#263238"/>
<path d="M109.87 21.5131C109.987 21.63 110.748 21.1043 111.86 21.1043C112.971 21.1043 113.79 21.6884 113.907 21.5131C113.966 21.4547 113.849 21.2211 113.498 20.929C113.147 20.6954 112.562 20.4033 111.86 20.4033C111.158 20.4033 110.573 20.637 110.28 20.929C109.929 21.2211 109.812 21.4547 109.87 21.5131Z" fill="#263238"/>
<path d="M121.221 23.2656C121.221 23.7913 121.63 24.2586 122.215 24.317C122.8 24.3755 123.268 23.9666 123.268 23.3825C123.268 22.8568 122.859 22.3895 122.274 22.3311C121.689 22.3311 121.221 22.7399 121.221 23.2656Z" fill="#263238"/>
<path d="M120.694 21.747C120.811 21.8638 121.572 21.3381 122.683 21.3381C123.795 21.3381 124.614 21.9223 124.731 21.747C124.79 21.6886 124.673 21.455 124.322 21.1629C123.971 20.9293 123.385 20.6372 122.683 20.6372C121.981 20.6372 121.396 20.8708 121.104 21.1629C120.753 21.455 120.636 21.6886 120.694 21.747Z" fill="#263238"/>
<path d="M116.716 29.866C116.716 29.8075 116.014 29.6907 114.902 29.5155C114.61 29.4571 114.375 29.4571 114.317 29.2234C114.258 29.0482 114.375 28.6977 114.492 28.4057C114.785 27.7047 115.019 27.0038 115.312 26.2444C116.482 23.2071 117.301 20.6954 117.184 20.6954C117.067 20.6369 116.014 23.0902 114.844 26.1276C114.551 26.887 114.317 27.5879 114.024 28.2889C113.907 28.5809 113.732 28.9898 113.849 29.3987C113.907 29.6323 114.141 29.7491 114.317 29.8076C114.492 29.866 114.668 29.866 114.785 29.866C116.014 29.9244 116.716 29.9244 116.716 29.866Z" fill="#263238"/>
<path d="M115.897 42.8335C115.897 42.8335 121.279 43.184 126.545 40.0298C126.545 40.0298 123.854 45.6373 115.897 44.878V42.8335Z" fill="#EB996E"/>
<path d="M117.125 32.4947C117.535 31.969 118.237 31.677 118.88 31.7354C119.349 31.7938 119.817 32.0274 120.109 32.3779C120.402 32.7868 120.46 33.3125 120.168 33.663C119.875 34.0718 119.232 34.1887 118.705 34.0134C118.178 33.8382 117.71 33.5461 117.301 33.1957C117.184 33.0789 117.067 33.0204 117.008 32.8452C117.008 32.8452 117.008 32.67 117.125 32.4947Z" fill="#E8505B"/>
<path d="M119.934 30.6255C119.758 30.6255 119.758 31.7937 118.705 32.6699C117.71 33.4877 116.423 33.3708 116.423 33.5461C116.423 33.6045 116.716 33.7797 117.242 33.7797C117.769 33.7797 118.529 33.6045 119.173 33.1372C119.817 32.6115 120.051 31.9105 120.109 31.4433C120.168 30.9176 119.992 30.6255 119.934 30.6255Z" fill="#263238"/>
<path d="M120.226 19.8193C120.343 20.1113 121.455 19.9945 122.742 20.1113C124.029 20.2282 125.082 20.6371 125.258 20.345C125.316 20.2282 125.141 19.9361 124.731 19.644C124.322 19.352 123.678 19.0599 122.859 19.0015C122.098 18.9431 121.396 19.0599 120.928 19.2352C120.402 19.4104 120.168 19.644 120.226 19.8193Z" fill="#263238"/>
<path d="M110.28 18.3007C110.456 18.5344 111.216 18.3007 112.152 18.3007C113.088 18.2423 113.849 18.476 114.024 18.1839C114.083 18.0671 113.966 17.8334 113.673 17.5998C113.322 17.3662 112.796 17.1909 112.152 17.1909C111.509 17.1909 110.982 17.4246 110.69 17.7166C110.339 17.9503 110.221 18.1839 110.28 18.3007Z" fill="#263238"/>
<path d="M126.369 9.24672C128.183 8.02008 130.582 7.43597 132.688 8.07849C134.794 8.66261 136.549 10.5902 136.666 12.7514C136.725 14.1533 136.081 15.672 136.725 16.8986C137.31 18.1253 138.773 18.5926 139.826 19.4687C141.464 20.8122 141.932 23.3239 140.937 25.1931C140.06 26.7702 138.246 27.9384 138.071 29.7492C137.954 31.4431 139.358 32.845 139.709 34.5389C140.118 36.3497 139.065 38.2772 137.603 39.5039C136.14 40.7305 134.326 41.373 132.512 42.0156C131.108 42.5413 129.587 43.0086 128.125 42.7165C126.369 42.3076 125.082 40.7305 124.848 38.9782C124.614 37.2258 125.316 35.4735 126.486 34.1884C127.481 33.0786 128.944 32.0856 129.178 30.6253C129.587 28.2889 126.779 26.4197 126.954 24.0832C127.013 22.8566 127.89 21.8636 128.593 20.8706C129.295 19.8776 129.938 18.651 129.47 17.4827C128.885 16.0225 126.954 15.6136 125.784 14.5622C124.79 13.686 124.439 12.2257 124.79 10.9407C125.199 9.71401 126.369 8.72102 127.656 8.48737" fill="#263238"/>
<path d="M127.247 7.43582C127.247 9.01293 126.545 10.59 125.316 11.6414C124.088 12.6344 122.391 13.1017 120.811 12.8097C119.583 12.576 118.237 11.9919 117.184 12.6344C116.072 13.3354 116.014 14.9709 115.019 15.8471C113.615 17.0737 111.392 15.9055 109.578 16.4312C108.174 16.8401 107.355 18.1251 106.419 19.2349C105.482 20.3448 104.137 21.3962 102.733 20.9873C102.791 19.7606 102.908 18.4756 103.259 17.3074C103.61 16.1391 104.312 14.9709 105.365 14.3284C105.951 13.9779 106.594 13.7443 107.121 13.277C108.291 12.3424 108.525 10.7653 109.227 9.48022C110.163 7.8447 111.918 6.67647 113.79 6.44283C115.37 6.26759 116.95 6.73488 118.471 6.38441C119.583 6.09235 120.577 5.39142 121.747 5.15777C123.971 4.74889 126.018 6.326 127.656 7.90311" fill="#263238"/>
<path d="M141.757 26.4199C141.698 26.4199 141.991 26.1278 141.932 25.4853C141.874 24.9012 141.405 24.025 140.352 23.6745C139.826 23.4409 139.241 23.3241 138.597 23.2072C137.954 23.032 137.252 22.8568 136.608 22.3895C135.964 21.9222 135.613 21.1044 135.555 20.2867C135.496 19.4689 135.613 18.6511 135.672 17.775C135.672 17.3661 135.672 16.9572 135.613 16.5483C135.555 16.1394 135.379 15.789 135.145 15.4969C134.677 14.9128 133.917 14.6207 133.215 14.3871C132.513 14.1535 131.81 13.9198 131.284 13.5693C130.699 13.2189 130.231 12.81 129.821 12.4011C129.061 11.5833 128.651 10.7072 128.417 10.1231C128.3 9.83101 128.242 9.59735 128.242 9.42212C128.183 9.24688 128.183 9.18848 128.183 9.18848C128.183 9.18848 128.3 9.53895 128.534 10.0646C128.768 10.6488 129.236 11.4081 129.997 12.2259C130.757 13.0436 131.869 13.7446 133.332 14.095C134.034 14.3287 134.853 14.6207 135.379 15.2633C135.613 15.6137 135.847 16.0226 135.906 16.4315C135.964 16.8404 135.964 17.3077 135.964 17.7166C135.906 18.5927 135.789 19.4105 135.847 20.1698C135.906 20.9292 136.198 21.6885 136.725 22.0974C137.31 22.5063 137.954 22.7399 138.597 22.9152C139.241 23.0904 139.826 23.2072 140.352 23.4409C140.879 23.6745 141.347 23.9666 141.581 24.3755C141.874 24.7259 141.991 25.1348 141.991 25.4853C141.991 25.8358 141.932 26.0694 141.874 26.1862C141.874 26.3615 141.815 26.4199 141.757 26.4199Z" fill="#455A64"/>
<path d="M94.8343 31.3847C94.8343 31.3847 94.7758 31.3847 94.7172 31.3263C94.6587 31.2679 94.5417 31.2095 94.4247 31.0343C94.2492 30.6838 94.1907 30.0997 94.6002 29.4571C94.7758 29.1651 95.0683 28.8146 95.4778 28.6394C95.8289 28.4057 96.2969 28.2889 96.765 28.1137C97.233 27.9384 97.7011 27.7048 98.1106 27.3543C98.5202 27.0039 98.7542 26.4197 98.8712 25.8356C98.9882 25.2515 99.0467 24.609 99.1637 23.9081C99.2808 23.2071 99.4563 22.5062 99.9828 21.9221C100.919 20.6954 102.44 20.0529 103.552 18.8847C104.137 18.3006 104.546 17.5996 104.78 16.7819C105.073 15.9641 105.19 15.1463 105.365 14.2118C105.599 12.4594 105.833 10.5318 107.062 8.8963C107.647 8.07854 108.525 7.49443 109.461 7.3192C110.397 7.14396 111.333 7.26078 112.211 7.3776C113.088 7.49442 113.966 7.61125 114.785 7.55284C115.604 7.43602 116.365 7.02714 116.891 6.44302C118.003 5.27479 118.588 3.69768 119.934 2.87992C121.221 2.06216 122.742 2.00375 123.971 2.35422C125.199 2.70469 126.135 3.52245 126.603 4.39862C127.13 5.27479 127.305 6.15096 127.305 6.8519C127.305 7.55284 127.188 8.07854 127.071 8.42901C126.954 8.77948 126.837 8.95472 126.837 8.95472C126.837 8.95472 126.896 8.77948 127.013 8.42901C127.13 8.07854 127.247 7.55284 127.188 6.8519C127.13 6.15096 126.954 5.3332 126.486 4.45703C126.018 3.63927 125.141 2.82151 123.912 2.52946C122.742 2.2374 121.279 2.29581 120.109 3.11357C119.524 3.52245 118.997 4.04815 118.588 4.69068C118.12 5.33321 117.71 6.03415 117.125 6.61826C116.833 6.91032 116.482 7.20237 116.131 7.43602C115.721 7.61125 115.312 7.78648 114.844 7.8449C113.966 7.96172 113.088 7.8449 112.152 7.72807C111.275 7.61125 110.338 7.49442 109.461 7.66966C108.583 7.84489 107.764 8.3706 107.238 9.12995C106.711 9.8893 106.36 10.7655 106.126 11.6416C105.892 12.5178 105.775 13.4524 105.658 14.3286C105.541 15.2047 105.365 16.0809 105.073 16.8987C104.78 17.7164 104.371 18.4758 103.727 19.1183C102.499 20.2865 101.036 20.9291 100.158 22.0973C99.6903 22.6814 99.5148 23.3239 99.3978 23.9665C99.2808 24.609 99.2222 25.3099 99.1052 25.894C98.9882 26.5366 98.6957 27.1207 98.2861 27.4712C97.8766 27.88 97.35 28.0553 96.882 28.2305C96.4139 28.4057 96.0044 28.5226 95.5948 28.7562C95.2438 28.9314 94.9513 29.2235 94.7757 29.5156C94.4247 30.0997 94.4247 30.6838 94.5417 30.9758C94.6587 31.3263 94.8928 31.3847 94.8343 31.3847Z" fill="#455A64"/>
<path d="M75.2931 86.175L89.4517 84.8899C89.4517 84.8899 98.1692 62.051 108.876 56.502L115.838 68.5931L100.978 96.4554H71.9583L75.2931 86.175Z" fill="#E8505B"/>
<path opacity="0.3" d="M75.2931 86.175L89.4517 84.8899C89.4517 84.8899 98.1692 62.051 108.876 56.502L115.838 68.5931L100.978 96.4554H71.9583L75.2931 86.175Z" fill="black"/>
<path d="M80.9098 92.6002C80.8513 92.5418 81.3778 91.5488 82.0799 90.3222C82.782 89.0956 83.4841 88.161 83.5426 88.2194C83.6011 88.2778 83.0745 89.2708 82.3724 90.4974C81.6119 91.7241 80.9683 92.6587 80.9098 92.6002Z" fill="#FAFAFA"/>
<path d="M90.9143 92.3081C90.8558 92.3665 90.0953 91.4903 89.1592 90.3805C88.2816 89.2707 87.5795 88.3361 87.6965 88.2777C87.755 88.2193 88.5156 89.0954 89.4517 90.2053C90.3293 91.3735 90.9729 92.3081 90.9143 92.3081Z" fill="#FAFAFA"/>
<path d="M92.6695 87.1094C92.611 87.1094 92.494 86.2917 92.494 85.2403C92.494 84.2473 92.5525 83.3711 92.6695 83.3711C92.7865 83.3711 92.8451 84.1889 92.8451 85.2403C92.7865 86.2917 92.728 87.1094 92.6695 87.1094Z" fill="#FAFAFA"/>
<path d="M87.6965 95.287C87.638 95.3454 87.0529 95.0533 86.3508 94.586C85.6488 94.1187 85.1222 93.7099 85.1807 93.6514C85.2392 93.593 85.8243 93.8851 86.5264 94.3524C87.1699 94.7613 87.6965 95.1701 87.6965 95.287Z" fill="#FAFAFA"/>
<path d="M95.7704 74.259C95.8289 74.3175 95.4194 75.4273 94.7758 76.8291C94.1322 78.231 93.6057 79.2824 93.5472 79.224C93.4887 79.1656 93.8982 78.0558 94.5418 76.6539C95.1268 75.3105 95.7119 74.2006 95.7704 74.259Z" fill="#FAFAFA"/>
<path d="M101.504 64.9717C101.563 65.0301 101.036 65.4974 100.392 66.0231C99.6903 66.5488 99.1053 66.8993 99.1053 66.8409C99.0468 66.7824 99.5733 66.3151 100.217 65.7894C100.86 65.2637 101.446 64.9133 101.504 64.9717Z" fill="#FAFAFA"/>
<path d="M122.625 94.6446L129.938 65.2636C131.225 60.1234 136.257 56.9108 141.406 57.8454C146.73 58.78 150.357 63.8618 149.538 69.2356L145.091 97.9741C143.98 103.99 139.182 108.663 133.156 109.598L127.364 110.474L122.625 94.6446Z" fill="#E8505B"/>
<path d="M145.618 55.9177C145.56 55.9761 144.799 55.0415 143.044 54.6326C142.166 54.4574 141.055 54.399 139.884 54.6326C138.714 54.9247 137.544 55.5088 136.491 56.385C134.326 58.1957 133.215 60.4738 132.396 62.1093C131.986 62.927 131.693 63.628 131.518 64.0953C131.284 64.5626 131.167 64.7962 131.167 64.7962C131.167 64.7962 131.225 64.5041 131.401 64.0369C131.576 63.5696 131.869 62.8686 132.22 61.9924C132.571 61.1747 133.039 60.1817 133.741 59.1303C134.385 58.0789 135.262 57.0275 136.315 56.0929C137.427 55.1583 138.656 54.5742 139.884 54.2821C141.113 53.9901 142.225 54.1069 143.161 54.3406C144.038 54.5742 144.74 54.9831 145.15 55.2751C145.325 55.4504 145.501 55.5672 145.618 55.684C145.56 55.8593 145.618 55.9177 145.618 55.9177Z" fill="#263238"/>
<path d="M104.312 62.5181C104.312 62.5181 104.254 62.6349 104.137 62.8101C103.961 62.9854 103.786 63.2774 103.493 63.5695C102.967 64.212 102.206 65.1466 101.329 66.3732C99.5734 68.8265 97.4087 72.448 96.3556 76.9457C95.361 81.4434 95.3024 85.649 95.1269 88.628C95.0684 90.1467 95.0099 91.3734 94.8929 92.1911C94.8344 92.6 94.8344 92.892 94.8344 93.1841C94.8344 93.4177 94.7759 93.5346 94.7759 93.5346C94.7759 93.5346 94.7759 93.4177 94.7759 93.1841C94.7759 92.9505 94.7759 92.6 94.7759 92.1911C94.7759 91.3149 94.8344 90.0883 94.8929 88.628C95.0099 85.649 95.0099 81.385 96.063 76.8873C97.1161 72.3312 99.3394 68.7097 101.153 66.2564C102.031 65.0298 102.85 64.0952 103.435 63.5111C103.727 63.219 103.961 62.9854 104.078 62.8101C104.254 62.5765 104.312 62.5181 104.312 62.5181Z" fill="#263238"/>
<path d="M151.059 62.4599C150.24 57.2028 147.373 55.9178 144.331 54.2823C143.336 53.7566 138.597 52.5299 134.853 51.5953C134.502 49.3173 133.858 45.2285 133.683 44.4107C133.507 43.1841 114.493 46.2215 114.259 46.6888C114.083 46.9808 113.673 51.7122 113.381 54.8664L108.817 56.4435L102.908 63.9786L99.8074 68.3594C97.9937 70.8711 96.6481 73.7333 96.0045 76.7707C95.2439 80.1002 95.1269 83.3712 95.1269 86.9343L94.1908 106.21L133.858 117.425L136.959 97.8572L147.198 83.9553C148.134 78.3478 151.995 68.9436 151.059 62.4599Z" fill="#E8505B"/>
<path d="M117.184 55.4506C117.125 55.4506 117.067 54.9249 116.891 54.1071C116.774 53.2893 116.599 52.1211 116.482 50.8361C116.423 50.1935 116.365 49.6094 116.306 49.0253C116.248 48.4996 116.189 47.9739 116.189 47.565C116.189 47.1561 116.306 46.8057 116.482 46.572C116.657 46.3968 116.774 46.3384 116.774 46.3384C116.774 46.3384 116.716 46.4552 116.599 46.6304C116.482 46.8057 116.423 47.1561 116.423 47.565C116.423 47.9739 116.54 48.4412 116.599 49.0253C116.657 49.6094 116.716 50.1935 116.833 50.8361C117.008 52.1211 117.125 53.2893 117.184 54.1071C117.184 54.9249 117.184 55.4506 117.184 55.4506Z" fill="#263238"/>
<path d="M122.215 54.2822C122.157 54.2822 121.981 53.8149 121.806 53.0556C121.572 52.2962 121.396 51.1864 121.279 49.9598C121.162 48.7331 121.162 47.6233 121.221 46.8056C121.279 45.9878 121.396 45.5205 121.396 45.5205C121.513 45.5205 121.338 47.5065 121.572 49.9014C121.806 52.3546 122.332 54.2822 122.215 54.2822Z" fill="#263238"/>
<path d="M131.635 52.9387C131.518 52.9387 131.927 50.9527 131.518 48.5579C131.108 46.163 130.055 44.4691 130.172 44.4106C130.231 44.4106 130.523 44.7611 130.874 45.5205C131.225 46.2214 131.635 47.2728 131.869 48.4994C132.103 49.7261 132.044 50.8359 131.986 51.6537C131.81 52.4714 131.693 52.9387 131.635 52.9387Z" fill="#263238"/>
<path d="M104.722 70.1117C104.663 70.0533 105.307 68.9435 106.302 67.6585C107.238 66.3734 108.174 65.4388 108.232 65.4972C108.291 65.5556 107.53 66.607 106.536 67.8337C105.541 69.1187 104.78 70.1702 104.722 70.1117Z" fill="#FAFAFA"/>
<path d="M113.615 62.8104C113.556 62.8688 112.854 62.0511 112.035 60.9997C111.216 59.9483 110.631 59.0721 110.69 59.0137C110.748 58.9553 111.45 59.773 112.269 60.8244C113.088 61.8758 113.673 62.8104 113.615 62.8104Z" fill="#FAFAFA"/>
<path d="M122.976 58.2544C123.034 58.3128 122.157 59.1305 121.104 60.1235C120.051 61.1165 119.232 61.9927 119.173 61.9343C119.115 61.8759 119.817 60.9413 120.87 59.8899C121.923 58.8969 122.917 58.196 122.976 58.2544Z" fill="#FAFAFA"/>
<path d="M120.343 52.7053C120.285 52.7637 119.641 52.2964 118.881 51.5955C118.12 50.8945 117.593 50.3104 117.652 50.252C117.71 50.1936 118.354 50.6609 119.115 51.3618C119.817 52.0628 120.402 52.6469 120.343 52.7053Z" fill="#FAFAFA"/>
<path d="M128.534 48.3827C128.534 48.4411 127.657 48.7331 126.545 48.9668C125.433 49.2004 124.556 49.3173 124.497 49.2588C124.497 49.2004 125.375 48.9084 126.486 48.6747C127.598 48.3827 128.534 48.2658 128.534 48.3827Z" fill="#FAFAFA"/>
<path d="M130.172 61.2914C130.114 61.2914 129.997 60.3569 129.938 59.247C129.88 58.1372 129.88 57.2026 129.997 57.2026C130.055 57.2026 130.172 58.1372 130.231 59.247C130.289 60.3569 130.231 61.2914 130.172 61.2914Z" fill="#FAFAFA"/>
<path d="M127.188 67.5417C127.13 67.5417 126.662 66.4903 126.135 65.2052C125.667 63.8618 125.316 62.752 125.375 62.752C125.433 62.752 125.901 63.8034 126.428 65.0884C126.954 66.3735 127.247 67.4833 127.188 67.5417Z" fill="#FAFAFA"/>
<path d="M119.056 71.9226C118.998 71.981 118.471 70.8712 117.944 69.4693C117.418 68.0674 117.008 66.8992 117.125 66.8992C117.184 66.8408 117.71 67.9506 118.237 69.3525C118.764 70.6959 119.173 71.8642 119.056 71.9226Z" fill="#FAFAFA"/>
<path d="M111.45 76.8874C111.392 76.8874 111.099 75.836 110.807 74.4341C110.514 73.0906 110.339 71.9224 110.456 71.9224C110.514 71.9224 110.807 72.9738 111.099 74.3757C111.392 75.7191 111.509 76.8289 111.45 76.8874Z" fill="#FAFAFA"/>
<path d="M102.382 77.0628C102.323 77.1212 101.738 76.1282 101.153 74.9016C100.568 73.6749 100.1 72.6235 100.217 72.6235C100.275 72.5651 100.86 73.5581 101.446 74.7848C102.031 76.0114 102.44 77.0628 102.382 77.0628Z" fill="#FAFAFA"/>
<path d="M102.206 82.8453C102.265 82.9037 101.153 83.5462 99.8074 84.1887C98.4618 84.8312 97.3501 85.3569 97.2916 85.2401C97.2331 85.1817 98.3448 84.5392 99.6904 83.8967C101.036 83.2541 102.148 82.7869 102.206 82.8453Z" fill="#FAFAFA"/>
<path d="M102.323 92.0742C102.265 92.1326 101.797 91.1396 101.504 89.9714C101.153 88.7448 101.095 87.7518 101.153 87.6934C101.212 87.6934 101.446 88.6864 101.797 89.8546C102.089 91.0812 102.382 92.0158 102.323 92.0742Z" fill="#FAFAFA"/>
<path d="M100.451 98.4996C100.392 98.558 99.5148 97.857 98.5202 96.9808C97.5256 96.0463 96.765 95.2869 96.8235 95.2285C96.882 95.1701 97.7596 95.871 98.7542 96.7472C99.7488 97.6818 100.509 98.4411 100.451 98.4996Z" fill="#FAFAFA"/>
<path d="M112.386 94.1188C112.386 94.1772 111.041 94.5861 109.519 95.287C107.94 95.988 106.77 96.6889 106.711 96.6305C106.653 96.5721 107.823 95.6959 109.402 94.995C110.982 94.294 112.328 94.002 112.386 94.1188Z" fill="#FAFAFA"/>
<path d="M108.876 90.9063C108.817 90.9063 108.408 90.0302 107.998 88.9204C107.589 87.8105 107.355 86.876 107.413 86.8175C107.472 86.7591 107.881 87.6937 108.291 88.8035C108.7 89.9133 108.934 90.9063 108.876 90.9063Z" fill="#FAFAFA"/>
<path d="M115.955 83.0207C116.014 83.0791 115.312 84.3057 114.375 85.8244C113.439 87.3431 112.562 88.5113 112.503 88.5113C112.445 88.4529 113.147 87.2263 114.083 85.7076C115.078 84.1305 115.897 82.9622 115.955 83.0207Z" fill="#FAFAFA"/>
<path d="M123.561 83.7797C123.503 83.8382 122.566 82.6699 121.63 81.1512C120.694 79.5741 120.109 78.2307 120.226 78.1722C120.285 78.1138 120.987 79.4573 121.923 80.976C122.8 82.4947 123.62 83.7213 123.561 83.7797Z" fill="#FAFAFA"/>
<path d="M128.125 76.2449C128.125 76.3033 127.13 76.5954 125.901 76.6538C124.673 76.7122 123.62 76.537 123.62 76.4786C123.62 76.4202 124.614 76.4202 125.843 76.3617C127.13 76.3033 128.125 76.1865 128.125 76.2449Z" fill="#FAFAFA"/>
<path d="M138.948 67.7168C139.007 67.7752 137.72 68.4762 136.081 69.2355C134.443 69.9949 133.098 70.579 133.098 70.5206C133.039 70.4622 134.326 69.7612 135.964 69.0019C137.603 68.1841 138.948 67.6584 138.948 67.7168Z" fill="#FAFAFA"/>
<path d="M139.709 62.2846C139.65 62.2262 140.118 61.1748 140.762 59.8897C141.406 58.6047 141.991 57.5533 142.049 57.6117C142.108 57.6701 141.64 58.7215 140.996 60.0066C140.352 61.2916 139.767 62.343 139.709 62.2846Z" fill="#FAFAFA"/>
<path d="M146.554 66.5485C146.496 66.5485 146.145 65.3803 145.677 63.92C145.208 62.4597 144.799 61.2915 144.916 61.2331C144.974 61.1746 145.501 62.3429 145.969 63.8032C146.437 65.2634 146.671 66.5485 146.554 66.5485Z" fill="#FAFAFA"/>
<path d="M147.666 72.2147C147.666 72.2731 146.554 72.7988 145.091 73.1493C143.629 73.4998 142.4 73.6166 142.4 73.5582C142.4 73.4998 143.57 73.2077 145.033 72.8572C146.437 72.5068 147.607 72.0979 147.666 72.2147Z" fill="#FAFAFA"/>
<path d="M135.847 79.1069C135.73 79.1069 136.023 77.6466 136.081 75.8943C136.14 74.1419 136.023 72.6816 136.14 72.6816C136.198 72.6816 136.491 74.0835 136.432 75.8943C136.315 77.705 135.906 79.1069 135.847 79.1069Z" fill="#FAFAFA"/>
<path d="M133.507 86.2334C133.449 86.2918 132.396 85.4157 131.342 84.1306C130.289 82.8455 129.587 81.6773 129.704 81.6189C129.763 81.5605 130.582 82.6703 131.576 83.897C132.63 85.182 133.566 86.175 133.507 86.2334Z" fill="#FAFAFA"/>
<path d="M145.325 84.7145C145.384 84.773 144.272 85.2987 142.868 85.8828C141.464 86.4669 140.352 86.8758 140.294 86.7589C140.235 86.7005 141.347 86.1748 142.751 85.5907C144.155 85.065 145.325 84.6561 145.325 84.7145Z" fill="#FAFAFA"/>
<path d="M141.113 98.0908C141.054 98.0908 140.996 96.6305 140.996 94.8782C140.996 93.1258 141.113 91.6655 141.171 91.6655C141.23 91.6655 141.288 93.1258 141.288 94.8782C141.288 96.6305 141.171 98.0908 141.113 98.0908Z" fill="#FAFAFA"/>
<path d="M132.044 97.3316C131.986 97.3316 132.103 95.813 132.571 94.0022C133.039 92.1914 133.624 90.7895 133.683 90.848C133.741 90.9064 133.332 92.3082 132.864 94.0606C132.396 95.8714 132.103 97.3316 132.044 97.3316Z" fill="#FAFAFA"/>
<path d="M132.454 100.836C132.454 100.953 130.991 101.07 129.236 101.362C127.481 101.654 126.018 102.004 126.018 101.888C126.018 101.829 127.422 101.362 129.178 101.07C130.933 100.778 132.454 100.778 132.454 100.836Z" fill="#FAFAFA"/>
<path d="M122.391 98.558C122.332 98.4996 123.093 97.6234 124.146 96.572C125.141 95.5206 126.018 94.7028 126.077 94.7612C126.135 94.8197 125.375 95.6958 124.322 96.7472C123.327 97.8571 122.449 98.6164 122.391 98.558Z" fill="#FAFAFA"/>
<path d="M115.897 104.925C115.838 104.925 115.546 103.873 115.078 102.647C114.61 101.42 114.2 100.427 114.258 100.369C114.317 100.31 114.902 101.245 115.37 102.53C115.838 103.815 115.955 104.866 115.897 104.925Z" fill="#FAFAFA"/>
<path d="M126.369 108.488C126.311 108.546 125.024 108.079 123.444 107.378C121.864 106.677 120.577 106.035 120.636 105.976C120.694 105.918 121.981 106.385 123.561 107.086C125.141 107.787 126.428 108.429 126.369 108.488Z" fill="#FAFAFA"/>
<path d="M108.115 107.437C108.057 107.437 108.291 106.444 108.642 105.275C109.051 104.107 109.402 103.231 109.461 103.231C109.519 103.231 109.285 104.224 108.934 105.392C108.525 106.56 108.174 107.495 108.115 107.437Z" fill="#FAFAFA"/>
<path d="M120.168 109.481C120.168 109.598 118.471 109.306 116.423 109.189C114.376 109.072 112.679 109.189 112.679 109.072C112.679 109.014 114.376 108.78 116.482 108.897C118.529 109.014 120.168 109.423 120.168 109.481Z" fill="#FAFAFA"/>
<path d="M122.625 92.2499C122.625 92.2499 122.625 92.1915 122.625 92.0163C122.625 91.841 122.625 91.6658 122.742 91.3738C122.8 91.0817 122.976 90.7312 123.386 90.4976C123.737 90.2639 124.263 90.1471 124.79 90.2639L124.673 90.3223C125.316 88.1027 126.311 84.8317 127.364 81.1517C128.3 77.7055 128.944 74.5512 129.412 72.2732C129.646 71.1634 129.821 70.2288 129.938 69.5862C130.055 68.9437 130.172 68.5933 130.172 68.5933C130.172 68.5933 130.172 68.9437 130.055 69.5862C129.938 70.2288 129.821 71.1634 129.587 72.3316C129.178 74.6096 128.593 77.8223 127.598 81.2686C126.545 84.9485 125.492 88.2195 124.79 90.4392V90.4976H124.673C124.205 90.3808 123.678 90.4976 123.386 90.6728C123.034 90.848 122.859 91.1985 122.8 91.4322C122.683 91.9579 122.683 92.2499 122.625 92.2499Z" fill="#263238"/>
<path d="M135.789 100.369C135.73 100.369 135.379 99.6095 134.619 98.4413C133.858 97.273 132.688 95.6959 131.108 94.2941C129.529 92.8922 127.891 91.8408 126.662 91.1983C125.433 90.5557 124.614 90.2637 124.614 90.2637C124.614 90.2637 124.848 90.3221 125.199 90.4389C125.55 90.5557 126.135 90.731 126.779 91.023C128.066 91.6071 129.763 92.6001 131.342 94.0604C132.922 95.5207 134.092 97.0978 134.794 98.3245C135.145 98.9086 135.379 99.4343 135.555 99.7847C135.73 100.194 135.789 100.369 135.789 100.369Z" fill="#263238"/>
<g opacity="0.2">
<path opacity="0.2" d="M124.907 89.855C127.13 90.0302 129.002 90.2054 131.05 90.9648C133.156 91.7241 135.087 93.2428 135.847 95.3457C136.023 95.8714 136.14 96.5139 135.73 96.8644C135.438 97.1564 134.97 97.1564 134.619 97.0396C134.268 96.9228 133.917 96.6307 133.624 96.3971C132.337 95.2288 130.991 94.1774 129.646 93.0092C128.3 91.841 126.369 90.6727 124.614 90.3807" fill="black"/>
</g>
<path d="M120.694 86.1165C120.694 86.1165 120.519 86.2917 120.109 86.4669C119.7 86.6422 119.115 86.9342 118.295 87.1679C116.716 87.6352 114.434 87.8688 111.977 87.2263C109.519 86.5838 107.647 85.2403 106.477 84.0721C105.892 83.4879 105.483 82.9622 105.248 82.6118C105.014 82.2613 104.897 82.0277 104.897 82.0277C104.956 81.9693 105.483 82.8454 106.653 83.9552C107.823 85.0651 109.695 86.3501 112.035 86.9342C114.376 87.5183 116.657 87.3431 118.237 86.9342C119.817 86.5253 120.694 86.0581 120.694 86.1165Z" fill="#263238"/>
<g opacity="0.2">
<path opacity="0.2" d="M105.248 82.4365C106.243 84.5977 107.413 86.7006 109.285 88.1609C110.339 88.9786 111.626 89.6795 112.971 89.6795C114.902 89.738 116.599 88.3945 118.12 87.1094C113.264 87.9272 107.823 85.766 105.248 82.4365Z" fill="black"/>
</g>
<path d="M126.896 53.8151C126.779 53.8151 126.896 51.8291 126.662 49.3758C126.428 46.9225 125.96 44.9949 126.018 44.9365C126.077 44.9365 126.252 45.4038 126.428 46.1632C126.603 46.9809 126.837 48.0323 126.954 49.3174C127.071 50.544 127.071 51.6539 127.013 52.4716C127.013 53.3478 126.896 53.8151 126.896 53.8151Z" fill="#263238"/>
<path d="M57.4486 132.028C57.4486 132.028 51.0714 133.371 45.3963 132.554C40.0722 131.736 28.1368 132.554 28.1368 139.563C28.1368 147.39 44.0506 145.462 50.2523 144.177C56.454 142.951 62.6557 141.841 62.6557 141.841L57.4486 132.028Z" fill="#E8505B"/>
<path d="M43.173 142.016C43.1144 142.016 42.7634 140.79 42.4124 139.271C42.0613 137.752 41.8858 136.526 41.9443 136.467C42.0028 136.467 42.3539 137.694 42.7049 139.213C43.0559 140.731 43.29 142.016 43.173 142.016Z" fill="#263238"/>
<path d="M45.3962 142.133C45.3377 142.133 45.0452 140.906 44.8697 139.329C44.6357 137.752 44.5772 136.525 44.6357 136.525C44.6942 136.525 44.9867 137.752 45.1622 139.329C45.3377 140.848 45.4548 142.075 45.3962 142.133Z" fill="#263238"/>
<path d="M47.444 141.315C47.3855 141.315 47.1514 140.264 46.9759 138.862C46.8004 137.519 46.7419 136.409 46.8589 136.409C46.9174 136.409 47.1514 137.46 47.327 138.862C47.5025 140.205 47.561 141.257 47.444 141.315Z" fill="#263238"/>
<path d="M50.7789 140.497C50.7204 140.556 50.2523 139.621 49.9598 138.394C49.6673 137.168 49.6673 136.175 49.7258 136.175C49.7843 136.175 49.9598 137.168 50.2523 138.336C50.5449 139.504 50.8374 140.439 50.7789 140.497Z" fill="#263238"/>
<path d="M51.4809 137.635C51.4809 137.635 51.7734 137.577 52.3 137.577C52.8265 137.577 53.6456 137.694 54.5232 137.986C54.7573 138.044 54.9913 138.161 55.2253 138.336C55.4593 138.512 55.6349 138.804 55.6349 139.096C55.6349 139.797 54.8743 140.264 54.1722 140.147C53.4701 140.03 52.9436 139.505 52.534 138.979C52.066 138.453 51.7734 137.752 51.5979 137.051C51.2469 135.591 51.4809 134.072 52.3 133.021C52.417 132.904 52.5925 132.787 52.768 132.729C52.9436 132.671 53.1776 132.787 53.2946 132.904C53.5286 133.138 53.6456 133.488 53.7041 133.78C53.7626 134.364 53.7627 134.89 53.6456 135.357C53.4116 136.292 52.9436 136.993 52.5925 137.343C52.417 137.519 52.2415 137.694 52.1245 137.752C52.0075 137.811 51.9489 137.869 51.9489 137.869C51.9489 137.869 52.183 137.694 52.534 137.285C52.885 136.876 53.2946 136.234 53.4701 135.299C53.5871 134.832 53.5871 134.306 53.5286 133.78C53.4701 133.547 53.4116 133.255 53.1776 133.079C53.0021 132.904 52.768 132.963 52.5925 133.196C51.8904 134.189 51.6564 135.591 51.9489 136.993C52.1245 137.694 52.417 138.336 52.8265 138.862C53.2361 139.388 53.7041 139.855 54.2892 139.972C54.8158 140.089 55.4593 139.68 55.4008 139.213C55.4008 138.979 55.2838 138.745 55.0498 138.628C54.8743 138.453 54.6402 138.336 54.4062 138.278C53.5286 137.928 52.768 137.811 52.2415 137.752C51.7734 137.635 51.4809 137.635 51.4809 137.635Z" fill="#263238"/>
<path d="M62.0706 140.789C62.0706 140.789 62.0121 140.789 61.8951 140.848C61.778 140.906 61.6025 140.906 61.427 140.965C60.959 141.081 60.3739 141.198 59.5548 141.373C57.9751 141.724 55.6349 142.191 52.7095 142.775C49.8427 143.301 46.3908 143.944 42.4709 144.469C40.5402 144.703 38.4924 144.937 36.3277 144.761C35.2746 144.703 34.163 144.528 33.1098 144.119C32.5833 143.944 32.0567 143.71 31.5887 143.418C31.1206 143.126 30.5941 142.834 30.243 142.308C30.0675 142.133 29.8335 141.899 29.7164 141.666C29.0729 140.614 29.0729 139.329 29.3654 138.219C29.7165 137.109 30.5355 136.233 31.4131 135.532C32.2907 134.89 33.2854 134.423 34.3385 134.072C34.865 133.955 35.3331 133.78 35.8596 133.663C36.3862 133.546 36.8543 133.43 37.3808 133.371C41.3593 132.729 44.9867 133.079 48.029 133.079C49.5502 133.079 50.8958 133.079 52.1245 133.021C53.2946 132.904 54.3477 132.787 55.1668 132.612C55.5764 132.553 55.9274 132.437 56.2784 132.378C56.571 132.32 56.8635 132.203 57.039 132.144C57.2145 132.086 57.3901 132.028 57.5071 132.028C57.6241 132.028 57.6826 131.969 57.6826 131.969C57.6826 131.969 57.6241 131.969 57.5071 132.028C57.3901 132.086 57.2145 132.144 57.039 132.203C56.805 132.261 56.571 132.378 56.2784 132.437C55.9859 132.495 55.5764 132.612 55.1668 132.67C54.3477 132.845 53.2946 133.021 52.1245 133.079C50.8958 133.196 49.5502 133.196 48.029 133.196C44.9867 133.196 41.3593 132.904 37.4393 133.546C36.9713 133.605 36.4447 133.722 35.9766 133.838C35.5086 133.955 34.982 134.13 34.514 134.247C33.5194 134.598 32.5833 135.007 31.7057 135.649C30.8281 136.292 30.126 137.109 29.775 138.161C29.4239 139.212 29.4824 140.38 30.0675 141.315C30.1845 141.549 30.4185 141.724 30.594 141.899C30.9451 142.308 31.4131 142.659 31.8227 142.892C32.2907 143.184 32.8173 143.359 33.2854 143.535C34.3385 143.885 35.3916 144.06 36.4447 144.119C38.5509 144.294 40.5987 144.06 42.5294 143.827C46.3908 143.301 49.8427 142.717 52.768 142.191C55.6349 141.666 57.9751 141.198 59.6133 140.906C60.3739 140.731 61.0175 140.614 61.4855 140.556C61.661 140.497 61.8366 140.497 61.9536 140.439C62.0121 140.789 62.0706 140.789 62.0706 140.789Z" fill="#263238"/>
<path d="M38.785 144.586C38.7265 144.586 38.7264 143.944 38.6094 142.951C38.5509 141.958 38.4339 140.556 38.1999 139.037C38.0244 137.519 37.7318 136.175 37.5563 135.182C37.3808 134.189 37.2053 133.605 37.2638 133.605C37.3223 133.605 37.4978 134.189 37.7318 135.182C37.9659 136.175 38.2584 137.519 38.4924 139.037C38.6679 140.556 38.785 141.958 38.785 142.951C38.8435 143.944 38.8435 144.586 38.785 144.586Z" fill="#263238"/>
<path opacity="0.4" d="M55.5178 132.32L59.5548 142.425L62.6556 141.841L56.688 132.028L55.5178 132.32Z" fill="black"/>
<path d="M108.057 104.75C107.413 104.983 65.7566 93.3011 48.9067 88.5697C44.4602 87.3431 39.7211 88.044 35.8597 90.5557L35.6842 90.6725C30.0091 94.3525 27.2593 101.128 28.7804 107.729C29.775 111.876 32.3493 115.497 35.9767 117.717C47.093 124.493 70.6126 138.804 71.3147 138.512C72.2508 138.161 101.621 137.402 101.621 137.402L66.3416 111.993L83.133 122.857L108.057 104.75Z" fill="#263238"/>
<path d="M73.2454 92.0742L82.0799 87.5181L90.7388 92.9503L123.21 94.0017L127.89 109.773L80.8512 98.9083C80.8512 98.9083 72.3093 99.6677 71.6657 97.7401C71.1391 95.8125 73.2454 92.0742 73.2454 92.0742Z" fill="#FFBE9D"/>
<path d="M99.8659 117.367L95.4779 131.736L96.0045 136.117C103.961 144.119 116.657 144.995 125.667 138.103C131.108 133.897 134.326 127.413 134.268 120.579L134.209 105.567L99.8659 117.367Z" fill="#263238"/>
<path d="M73.8305 117.484C73.7719 117.542 68.6819 113.862 62.4802 109.248C56.2785 104.633 51.2469 100.836 51.3054 100.719C51.3639 100.661 56.454 104.341 62.6557 108.955C68.9159 113.628 73.889 117.425 73.8305 117.484Z" fill="#455A64"/>
<path d="M81.4948 90.3806C81.4948 90.4391 79.5641 91.14 77.1654 91.8993C74.7666 92.6587 72.7774 93.2428 72.7189 93.126C72.7189 93.0676 74.6496 92.3666 77.0484 91.6073C79.5056 90.8479 81.4948 90.2638 81.4948 90.3806Z" fill="#EB996E"/>
<path d="M82.1969 93.0672C82.1969 93.1256 81.6118 93.184 80.6757 93.3592C79.7396 93.5345 78.4525 93.7681 77.0483 94.0602C75.6441 94.4106 74.4155 94.7611 73.4794 94.9948C72.6018 95.2868 72.0167 95.4621 72.0167 95.4036C72.0167 95.3452 72.5433 95.1116 73.4209 94.8195C74.2985 94.4691 75.5856 94.1186 76.9898 93.7681C78.3939 93.4176 79.6811 93.2424 80.6757 93.1256C81.6118 93.0088 82.1969 93.0088 82.1969 93.0672Z" fill="#EB996E"/>
<path d="M81.4364 95.5205C81.4364 95.5789 79.2716 96.1046 76.5803 96.6303C73.889 97.156 71.6658 97.5065 71.6658 97.4481C71.6658 97.3897 73.8305 96.864 76.5218 96.3383C79.2131 95.8126 81.4364 95.4621 81.4364 95.5205Z" fill="#EB996E"/>
<path d="M69.9691 70.871L78.16 97.6819C78.277 97.974 78.511 98.2076 78.862 98.2076L101.095 99.9016C101.504 99.96 101.797 100.252 101.797 100.661V102.063C101.797 102.472 101.446 102.822 100.978 102.822L40.1307 101.654C39.8382 101.654 39.5456 101.479 39.4286 101.128L28.7219 73.1491C28.5464 72.6818 28.8974 72.0977 29.424 72.0977L69.15 70.2285C69.5595 70.2869 69.852 70.5206 69.9691 70.871Z" fill="#455A64"/>
<path d="M52.8266 82.4365C52.417 82.5534 51.715 83.1375 51.598 83.78C51.5395 84.4225 51.832 85.0651 52.3585 85.4739C53.0021 85.9412 53.9382 85.9996 54.5818 85.5324C55.2254 85.0651 55.5179 84.2473 55.1669 83.3127C54.9328 82.5534 53.5872 82.0277 52.8266 82.4365Z" fill="#E0E0E0"/>
<path d="M62.6557 141.841L56.22 131.269L103.493 94.2941C106.419 91.8993 110.046 90.439 113.79 90.0885C125.55 89.0371 135.438 98.7918 134.443 110.533L133.683 119.528L102.323 129.575L62.6557 141.841Z" fill="#263238"/>
<path d="M123.269 116.782C123.269 116.782 123.21 116.841 123.151 116.899C123.034 116.957 122.917 117.074 122.742 117.191C122.391 117.483 121.864 117.892 121.221 118.418C120.87 118.651 120.519 118.943 120.109 119.294C119.7 119.586 119.232 119.878 118.763 120.228C118.295 120.579 117.769 120.929 117.184 121.28C116.891 121.455 116.599 121.689 116.306 121.864C116.014 122.039 115.663 122.214 115.37 122.448C114.083 123.207 112.679 124.084 111.099 124.901C110.339 125.31 109.519 125.778 108.7 126.186C107.881 126.595 107.004 127.004 106.068 127.413C102.44 129.049 98.4617 130.684 94.1322 132.144C85.4733 135.123 77.5164 137.226 71.7827 138.979C70.3201 139.387 69.0329 139.796 67.9213 140.147C66.8097 140.497 65.8151 140.789 64.996 141.081C64.2354 141.315 63.5918 141.549 63.1823 141.666C63.0067 141.724 62.8312 141.782 62.7142 141.841C62.5972 141.899 62.5387 141.899 62.5387 141.899C62.5387 141.899 62.5972 141.899 62.7142 141.841C62.8312 141.782 63.0067 141.724 63.1823 141.666C63.5918 141.49 64.2354 141.315 64.996 141.023C65.7566 140.731 66.7512 140.439 67.8628 140.03C68.9744 139.68 70.2616 139.271 71.7242 138.803C77.4579 136.993 85.4148 134.831 94.0152 131.911C98.3447 130.451 102.382 128.815 105.951 127.179C106.828 126.771 107.706 126.362 108.583 125.953C109.402 125.544 110.222 125.077 110.982 124.726C112.562 123.967 113.966 123.091 115.253 122.331C115.546 122.156 115.897 121.981 116.189 121.806C116.482 121.63 116.774 121.397 117.067 121.221C117.652 120.871 118.178 120.521 118.646 120.17C119.115 119.82 119.583 119.528 119.992 119.235C120.402 118.943 120.753 118.651 121.104 118.418C121.747 117.95 122.274 117.542 122.625 117.25C122.8 117.133 122.917 117.016 123.034 116.957C123.269 116.782 123.269 116.782 123.269 116.782Z" fill="#455A64"/>
<path d="M124.439 121.689C124.439 121.689 124.263 121.806 123.971 121.923C123.678 122.039 123.21 122.273 122.625 122.448C121.455 122.857 119.817 123.383 118.003 123.792C116.131 124.201 114.434 124.376 113.205 124.493C112.562 124.551 112.094 124.551 111.743 124.551C111.392 124.551 111.216 124.551 111.216 124.493C111.216 124.434 111.977 124.376 113.205 124.259C114.434 124.142 116.131 123.909 117.944 123.5C119.758 123.091 121.396 122.624 122.566 122.273C123.737 121.923 124.439 121.689 124.439 121.689Z" fill="#455A64"/>
<path d="M101.621 96.0462C101.68 96.1046 91.558 104.049 79.0376 113.745C66.5172 123.5 56.2786 131.327 56.2786 131.21C56.2201 131.152 66.3417 123.208 78.8621 113.453C91.3825 103.815 101.563 95.9878 101.621 96.0462Z" fill="#455A64"/>
<path d="M98.8713 135.299C96.5895 134.072 94.0737 134.831 91.909 135.532C90.4463 136 88.9837 136.759 87.521 136.35C86.4679 136.058 85.6488 135.182 84.8882 134.423C81.6118 131.385 77.1068 129.75 72.6603 130.042C71.3732 130.1 70.1446 130.626 69.3255 131.56C67.1022 133.955 68.7989 137.11 70.7881 139.154C74.2985 142.717 79.0961 145.053 84.0691 145.579C88.2231 145.988 93.8982 145.462 98.1107 143.652C100.685 142.542 102.031 139.504 100.685 136.993C100.217 136.292 99.6318 135.708 98.8713 135.299Z" fill="#E8505B"/>
<g opacity="0.4">
<path opacity="0.4" d="M98.8713 137.226C96.5896 136 94.0738 136.759 91.909 137.46C90.4464 137.927 88.9837 138.687 87.521 138.278C86.4679 137.986 85.6488 137.11 84.8883 136.35C81.6119 133.313 77.1069 131.677 72.6604 131.969C71.3732 132.028 70.1446 132.554 69.3255 133.488C68.8575 134.014 68.5649 134.598 68.3894 135.182C68.7404 136.642 69.6765 138.044 70.7882 139.154C74.2986 142.717 79.0961 145.054 84.0692 145.579C88.2231 145.988 93.8983 145.463 98.1107 143.652C99.6904 143.009 100.744 141.607 101.095 140.089C100.978 139.68 100.861 139.329 100.685 138.92C100.217 138.219 99.6319 137.635 98.8713 137.226Z" fill="black"/>
</g>
<path d="M101.036 140.089C100.978 140.089 100.978 139.563 100.451 138.745C100.158 138.336 99.8074 137.927 99.2223 137.577C98.6957 137.226 97.9352 136.876 97.1161 136.759C95.4194 136.584 93.4887 137.285 91.3239 137.869C90.2708 138.161 89.1007 138.57 87.8135 138.453C87.17 138.395 86.5849 138.161 85.9998 137.811C85.4148 137.46 84.9467 137.051 84.4202 136.642C82.5479 134.832 80.3247 133.663 78.2185 132.962C77.1653 132.612 76.1122 132.378 75.1176 132.261C74.123 132.145 73.1869 132.145 72.3678 132.261C71.5487 132.378 70.8466 132.67 70.2616 133.021C69.6765 133.371 69.267 133.78 68.9744 134.131C68.3894 134.832 68.1553 135.357 68.1553 135.357C68.1553 135.357 68.3309 134.832 68.9159 134.072C69.2085 133.722 69.618 133.254 70.2031 132.904C70.7881 132.553 71.5487 132.261 72.3678 132.086C73.2454 131.911 74.1815 131.969 75.1761 132.086C76.1707 132.203 77.2239 132.437 78.3355 132.787C79.3886 133.138 80.5002 133.605 81.6118 134.247C82.1384 134.539 82.665 134.89 83.1915 135.299C83.7181 135.708 84.1861 136.117 84.6542 136.525C85.1222 136.934 85.6488 137.343 86.1753 137.694C86.7019 137.986 87.287 138.219 87.872 138.278C89.0422 138.453 90.2123 138.044 91.2654 137.752C93.4302 137.168 95.4194 136.467 97.1746 136.701C98.9298 136.993 100.041 138.044 100.568 138.803C100.802 139.212 100.919 139.563 100.977 139.855C101.036 139.972 101.036 140.089 101.036 140.089Z" fill="#263238"/>
<path d="M101.036 140.089C100.978 140.089 100.978 139.563 100.451 138.745C100.158 138.336 99.8074 137.927 99.2223 137.577C98.6957 137.226 97.9352 136.876 97.1161 136.759C95.4194 136.584 93.4887 137.285 91.3239 137.869C90.2708 138.161 89.1007 138.57 87.8135 138.453C87.17 138.395 86.5849 138.161 85.9998 137.811C85.4148 137.46 84.9467 137.051 84.4202 136.642C82.5479 134.832 80.3247 133.663 78.2185 132.962C77.1653 132.612 76.1122 132.378 75.1176 132.261C74.123 132.145 73.1869 132.145 72.3678 132.261C71.5487 132.378 70.8466 132.67 70.2616 133.021C69.6765 133.371 69.267 133.78 68.9744 134.131C68.3894 134.832 68.1553 135.357 68.1553 135.357C68.1553 135.357 68.3309 134.832 68.9159 134.072C69.2085 133.722 69.618 133.254 70.2031 132.904C70.7881 132.553 71.5487 132.261 72.3678 132.086C73.2454 131.911 74.1815 131.969 75.1761 132.086C76.1707 132.203 77.2239 132.437 78.3355 132.787C79.3886 133.138 80.5002 133.605 81.6118 134.247C82.1384 134.539 82.665 134.89 83.1915 135.299C83.7181 135.708 84.1861 136.117 84.6542 136.525C85.1222 136.934 85.6488 137.343 86.1753 137.694C86.7019 137.986 87.287 138.219 87.872 138.278C89.0422 138.453 90.2123 138.044 91.2654 137.752C93.4302 137.168 95.4194 136.467 97.1746 136.701C98.9298 136.993 100.041 138.044 100.568 138.803C100.802 139.212 100.919 139.563 100.977 139.855C101.036 139.972 101.036 140.089 101.036 140.089Z" fill="#263238"/>
<path d="M72.8943 139.563C72.8943 139.505 73.3039 139.212 74.0645 138.745C74.8251 138.278 75.8782 137.694 77.0483 137.168C78.2769 136.584 79.3886 136.175 80.2077 135.883C81.0267 135.591 81.5533 135.474 81.5533 135.474C81.5533 135.533 81.0853 135.708 80.2662 136.058C79.4471 136.409 78.3355 136.876 77.1653 137.402C75.9952 137.986 74.8836 138.512 74.123 138.92C73.4209 139.329 72.9529 139.621 72.8943 139.563Z" fill="#263238"/>
<path d="M73.7134 141.841C73.6549 141.782 75.6441 140.731 78.1599 139.563C80.6172 138.336 82.6649 137.46 82.7234 137.518C82.7819 137.577 80.7927 138.628 78.2769 139.796C75.7611 140.965 73.7134 141.899 73.7134 141.841Z" fill="#263238"/>
<path d="M83.0745 142.834C83.016 142.892 80.6172 141.491 77.6919 139.621C74.7666 137.752 72.4263 136.234 72.4848 136.175C72.5433 136.117 74.9421 137.519 77.8674 139.388C80.7928 141.198 83.133 142.717 83.0745 142.834Z" fill="#263238"/>
<path d="M84.4201 140.439C84.4201 140.497 83.9521 140.147 83.25 139.621C82.5479 139.095 81.5533 138.394 80.4417 137.635C79.3301 136.876 78.3355 136.233 77.6334 135.708C76.9313 135.24 76.4633 134.89 76.4633 134.89C76.4633 134.831 76.9898 135.123 77.7504 135.532C78.511 136 79.5641 136.642 80.6172 137.401C81.7288 138.161 82.6649 138.92 83.367 139.446C84.0691 140.03 84.4786 140.439 84.4201 140.439Z" fill="#263238"/>
</svg>
