<svg width="167" height="164" viewBox="0 0 167 164" fill="none" xmlns="http://www.w3.org/2000/svg">
<g opacity="0.1">
<path opacity="0.041667" d="M74.1117 163.182C87.6727 163.182 98.666 159.772 98.666 155.566C98.666 151.36 87.6727 147.95 74.1117 147.95C60.5508 147.95 49.5574 151.36 49.5574 155.566C49.5574 159.772 60.5508 163.182 74.1117 163.182Z" fill="#000201"/>
<path opacity="0.083333" d="M74.1117 163.029C87.4083 163.029 98.1873 159.688 98.1873 155.566C98.1873 151.444 87.4083 148.103 74.1117 148.103C60.8151 148.103 50.0361 151.444 50.0361 155.566C50.0361 159.688 60.8151 163.029 74.1117 163.029Z" fill="#000201"/>
<path opacity="0.125" d="M74.1118 162.887C87.15 162.887 97.7196 159.609 97.7196 155.566C97.7196 151.522 87.15 148.244 74.1118 148.244C61.0735 148.244 50.504 151.522 50.504 155.566C50.504 159.609 61.0735 162.887 74.1118 162.887Z" fill="#000201"/>
<path opacity="0.1667" d="M74.1117 162.735C86.8856 162.735 97.2409 159.525 97.2409 155.566C97.2409 151.607 86.8856 148.397 74.1117 148.397C61.3379 148.397 50.9826 151.607 50.9826 155.566C50.9826 159.525 61.3379 162.735 74.1117 162.735Z" fill="#000201"/>
<path opacity="0.2083" d="M74.1117 162.582C86.6212 162.582 96.7621 159.441 96.7621 155.566C96.7621 151.691 86.6212 148.55 74.1117 148.55C61.6022 148.55 51.4612 151.691 51.4612 155.566C51.4612 159.441 61.6022 162.582 74.1117 162.582Z" fill="#000201"/>
<path opacity="0.25" d="M74.1118 162.441C86.3569 162.441 96.2835 159.363 96.2835 155.566C96.2835 151.77 86.3569 148.692 74.1118 148.692C61.8666 148.692 51.94 151.77 51.94 155.566C51.94 159.363 61.8666 162.441 74.1118 162.441Z" fill="#000201"/>
<path opacity="0.2917" d="M74.1117 162.287C86.0925 162.287 95.8049 159.278 95.8049 155.566C95.8049 151.854 86.0925 148.845 74.1117 148.845C62.131 148.845 52.4186 151.854 52.4186 155.566C52.4186 159.278 62.131 162.287 74.1117 162.287Z" fill="#000201"/>
<path opacity="0.3333" d="M74.1117 162.145C85.8281 162.145 95.3261 159.2 95.3261 155.566C95.3261 151.932 85.8281 148.986 74.1117 148.986C62.3953 148.986 52.8973 151.932 52.8973 155.566C52.8973 159.2 62.3953 162.145 74.1117 162.145Z" fill="#000201"/>
<path opacity="0.375" d="M74.1118 161.993C85.5698 161.993 94.8584 159.116 94.8584 155.566C94.8584 152.017 85.5698 149.14 74.1118 149.14C62.6537 149.14 53.3652 152.017 53.3652 155.566C53.3652 159.116 62.6537 161.993 74.1118 161.993Z" fill="#000201"/>
<path opacity="0.4167" d="M74.1117 161.851C85.3054 161.851 94.3796 159.037 94.3796 155.566C94.3796 152.095 85.3054 149.281 74.1117 149.281C62.9181 149.281 53.8438 152.095 53.8438 155.566C53.8438 159.037 62.9181 161.851 74.1117 161.851Z" fill="#000201"/>
<path opacity="0.4583" d="M74.1117 161.698C85.041 161.698 93.9009 158.952 93.9009 155.566C93.9009 152.179 85.041 149.434 74.1117 149.434C63.1824 149.434 54.3224 152.179 54.3224 155.566C54.3224 158.952 63.1824 161.698 74.1117 161.698Z" fill="#000201"/>
<path opacity="0.5" d="M74.1118 161.557C84.7767 161.557 93.4223 158.875 93.4223 155.566C93.4223 152.258 84.7767 149.576 74.1118 149.576C63.4468 149.576 54.8012 152.258 54.8012 155.566C54.8012 158.875 63.4468 161.557 74.1118 161.557Z" fill="#000201"/>
<path opacity="0.5417" d="M74.1117 161.404C84.5123 161.404 92.9436 158.79 92.9436 155.566C92.9436 152.342 84.5123 149.729 74.1117 149.729C63.7112 149.729 55.2798 152.342 55.2798 155.566C55.2798 158.79 63.7112 161.404 74.1117 161.404Z" fill="#000201"/>
<path opacity="0.5833" d="M74.1118 161.261C84.254 161.261 92.4758 158.711 92.4758 155.566C92.4758 152.42 84.254 149.87 74.1118 149.87C63.9696 149.87 55.7477 152.42 55.7477 155.566C55.7477 158.711 63.9696 161.261 74.1118 161.261Z" fill="#000201"/>
<path opacity="0.625" d="M74.1117 161.109C83.9896 161.109 91.9971 158.628 91.9971 155.566C91.9971 152.505 83.9896 150.023 74.1117 150.023C64.2339 150.023 56.2264 152.505 56.2264 155.566C56.2264 158.628 64.2339 161.109 74.1117 161.109Z" fill="#000201"/>
<path opacity="0.6667" d="M74.1117 160.956C83.7251 160.956 91.5184 158.543 91.5184 155.566C91.5184 152.589 83.7251 150.176 74.1117 150.176C64.4982 150.176 56.705 152.589 56.705 155.566C56.705 158.543 64.4982 160.956 74.1117 160.956Z" fill="#000201"/>
<path opacity="0.7083" d="M74.1118 160.814C83.4609 160.814 91.0398 158.464 91.0398 155.566C91.0398 152.667 83.4609 150.317 74.1118 150.317C64.7627 150.317 57.1838 152.667 57.1838 155.566C57.1838 158.464 64.7627 160.814 74.1118 160.814Z" fill="#000201"/>
<path opacity="0.75" d="M74.1117 160.662C83.1964 160.662 90.5611 158.38 90.5611 155.566C90.5611 152.752 83.1964 150.471 74.1117 150.471C65.027 150.471 57.6624 152.752 57.6624 155.566C57.6624 158.38 65.027 160.662 74.1117 160.662Z" fill="#000201"/>
<path opacity="0.7917" d="M74.1117 160.52C82.932 160.52 90.0823 158.302 90.0823 155.566C90.0823 152.83 82.932 150.612 74.1117 150.612C65.2913 150.612 58.141 152.83 58.141 155.566C58.141 158.302 65.2913 160.52 74.1117 160.52Z" fill="#000201"/>
<path opacity="0.8333" d="M74.1118 160.366C82.6738 160.366 89.6146 158.217 89.6146 155.566C89.6146 152.914 82.6738 150.765 74.1118 150.765C65.5498 150.765 58.6089 152.914 58.6089 155.566C58.6089 158.217 65.5498 160.366 74.1118 160.366Z" fill="#000201"/>
<path opacity="0.875" d="M74.1117 160.225C82.4093 160.225 89.1359 158.139 89.1359 155.566C89.1359 152.993 82.4093 150.907 74.1117 150.907C65.8141 150.907 59.0876 152.993 59.0876 155.566C59.0876 158.139 65.8141 160.225 74.1117 160.225Z" fill="#000201"/>
<path opacity="0.9167" d="M74.1117 160.072C82.1449 160.072 88.6571 158.055 88.6571 155.566C88.6571 153.077 82.1449 151.06 74.1117 151.06C66.0784 151.06 59.5662 153.077 59.5662 155.566C59.5662 158.055 66.0784 160.072 74.1117 160.072Z" fill="#000201"/>
<path opacity="0.9583" d="M74.1118 159.93C81.8806 159.93 88.1785 157.976 88.1785 155.566C88.1785 153.155 81.8806 151.201 74.1118 151.201C66.3429 151.201 60.045 153.155 60.045 155.566C60.045 157.976 66.3429 159.93 74.1118 159.93Z" fill="#000201"/>
<path opacity="0.1" d="M74.1117 159.778C81.6162 159.778 87.6998 157.892 87.6998 155.566C87.6998 153.24 81.6162 151.354 74.1117 151.354C66.6072 151.354 60.5236 153.24 60.5236 155.566C60.5236 157.892 66.6072 159.778 74.1117 159.778Z" fill="#000201"/>
</g>
<g opacity="0.1">
<path opacity="0.041667" d="M25.1119 159.211C38.6729 159.211 49.6662 155.801 49.6662 151.595C49.6662 147.388 38.6729 143.979 25.1119 143.979C11.5509 143.979 0.557602 147.388 0.557602 151.595C0.557602 155.801 11.5509 159.211 25.1119 159.211Z" fill="#000201"/>
<path opacity="0.083333" d="M25.1119 159.058C38.4085 159.058 49.1876 155.717 49.1876 151.595C49.1876 147.473 38.4085 144.131 25.1119 144.131C11.8153 144.131 1.0363 147.473 1.0363 151.595C1.0363 155.717 11.8153 159.058 25.1119 159.058Z" fill="#000201"/>
<path opacity="0.125" d="M25.112 158.916C38.1502 158.916 48.7198 155.638 48.7198 151.594C48.7198 147.551 38.1502 144.273 25.112 144.273C12.0737 144.273 1.50414 147.551 1.50414 151.594C1.50414 155.638 12.0737 158.916 25.112 158.916Z" fill="#000201"/>
<path opacity="0.1667" d="M25.1119 158.763C37.8858 158.763 48.2411 155.554 48.2411 151.594C48.2411 147.635 37.8858 144.426 25.1119 144.426C12.338 144.426 1.98277 147.635 1.98277 151.594C1.98277 155.554 12.338 158.763 25.1119 158.763Z" fill="#000201"/>
<path opacity="0.2083" d="M25.1119 158.61C37.6214 158.61 47.7624 155.469 47.7624 151.595C47.7624 147.72 37.6214 144.579 25.1119 144.579C12.6024 144.579 2.46147 147.72 2.46147 151.595C2.46147 155.469 12.6024 158.61 25.1119 158.61Z" fill="#000201"/>
<path opacity="0.25" d="M25.112 158.468C37.3571 158.468 47.2837 155.391 47.2837 151.594C47.2837 147.798 37.3571 144.72 25.112 144.72C12.8668 144.72 2.94017 147.798 2.94017 151.594C2.94017 155.391 12.8668 158.468 25.112 158.468Z" fill="#000201"/>
<path opacity="0.2917" d="M25.112 158.316C37.0927 158.316 46.8051 155.307 46.8051 151.594C46.8051 147.882 37.0927 144.873 25.112 144.873C13.1312 144.873 3.41887 147.882 3.41887 151.594C3.41887 155.307 13.1312 158.316 25.112 158.316Z" fill="#000201"/>
<path opacity="0.3333" d="M25.1119 158.174C36.8283 158.174 46.3263 155.228 46.3263 151.594C46.3263 147.96 36.8283 145.015 25.1119 145.015C13.3955 145.015 3.89751 147.96 3.89751 151.594C3.89751 155.228 13.3955 158.174 25.1119 158.174Z" fill="#000201"/>
<path opacity="0.375" d="M25.1119 158.021C36.57 158.021 45.8586 155.144 45.8586 151.594C45.8586 148.045 36.57 145.167 25.1119 145.167C13.6539 145.167 4.36534 148.045 4.36534 151.594C4.36534 155.144 13.6539 158.021 25.1119 158.021Z" fill="#000201"/>
<path opacity="0.4167" d="M25.112 157.879C36.3056 157.879 45.3799 155.065 45.3799 151.594C45.3799 148.123 36.3056 145.31 25.112 145.31C13.9183 145.31 4.84404 148.123 4.84404 151.594C4.84404 155.065 13.9183 157.879 25.112 157.879Z" fill="#000201"/>
<path opacity="0.4583" d="M25.1119 157.727C36.0412 157.727 44.9011 154.981 44.9011 151.595C44.9011 148.208 36.0412 145.462 25.1119 145.462C14.1826 145.462 5.32268 148.208 5.32268 151.595C5.32268 154.981 14.1826 157.727 25.1119 157.727Z" fill="#000201"/>
<path opacity="0.5" d="M25.1119 157.585C35.7769 157.585 44.4225 154.903 44.4225 151.594C44.4225 148.286 35.7769 145.604 25.1119 145.604C14.447 145.604 5.80138 148.286 5.80138 151.594C5.80138 154.903 14.447 157.585 25.1119 157.585Z" fill="#000201"/>
<path opacity="0.5417" d="M25.112 157.432C35.5125 157.432 43.9438 154.818 43.9438 151.594C43.9438 148.37 35.5125 145.757 25.112 145.757C14.7114 145.757 6.28008 148.37 6.28008 151.594C6.28008 154.818 14.7114 157.432 25.112 157.432Z" fill="#000201"/>
<path opacity="0.5833" d="M25.1119 157.29C35.2541 157.29 43.476 154.74 43.476 151.594C43.476 148.448 35.2541 145.898 25.1119 145.898C14.9697 145.898 6.74785 148.448 6.74785 151.594C6.74785 154.74 14.9697 157.29 25.1119 157.29Z" fill="#000201"/>
<path opacity="0.625" d="M25.1119 157.138C34.9898 157.138 42.9973 154.656 42.9973 151.595C42.9973 148.533 34.9898 146.052 25.1119 146.052C15.2341 146.052 7.22655 148.533 7.22655 151.595C7.22655 154.656 15.2341 157.138 25.1119 157.138Z" fill="#000201"/>
<path opacity="0.6667" d="M25.1119 156.984C34.7254 156.984 42.5187 154.571 42.5187 151.594C42.5187 148.617 34.7254 146.204 25.1119 146.204C15.4985 146.204 7.70525 148.617 7.70525 151.594C7.70525 154.571 15.4985 156.984 25.1119 156.984Z" fill="#000201"/>
<path opacity="0.7083" d="M25.112 156.842C34.461 156.842 42.04 154.493 42.04 151.594C42.04 148.695 34.461 146.346 25.112 146.346C15.7629 146.346 8.18394 148.695 8.18394 151.594C8.18394 154.493 15.7629 156.842 25.112 156.842Z" fill="#000201"/>
<path opacity="0.75" d="M25.1119 156.69C34.1966 156.69 41.5612 154.409 41.5612 151.595C41.5612 148.78 34.1966 146.499 25.1119 146.499C16.0272 146.499 8.66258 148.78 8.66258 151.595C8.66258 154.409 16.0272 156.69 25.1119 156.69Z" fill="#000201"/>
<path opacity="0.7917" d="M25.1119 156.548C33.9323 156.548 41.0826 154.33 41.0826 151.594C41.0826 148.858 33.9323 146.641 25.1119 146.641C16.2916 146.641 9.14128 148.858 9.14128 151.594C9.14128 154.33 16.2916 156.548 25.1119 156.548Z" fill="#000201"/>
<path opacity="0.8333" d="M25.112 156.396C33.6739 156.396 40.6148 154.246 40.6148 151.595C40.6148 148.943 33.6739 146.794 25.112 146.794C16.55 146.794 9.60912 148.943 9.60912 151.595C9.60912 154.246 16.55 156.396 25.112 156.396Z" fill="#000201"/>
<path opacity="0.875" d="M25.112 156.254C33.4096 156.254 40.1361 154.168 40.1361 151.595C40.1361 149.021 33.4096 146.936 25.112 146.936C16.8144 146.936 10.0878 149.021 10.0878 151.595C10.0878 154.168 16.8144 156.254 25.112 156.254Z" fill="#000201"/>
<path opacity="0.9167" d="M25.1119 156.101C33.1452 156.101 39.6574 154.083 39.6574 151.594C39.6574 149.105 33.1452 147.088 25.1119 147.088C17.0787 147.088 10.5665 149.105 10.5665 151.594C10.5665 154.083 17.0787 156.101 25.1119 156.101Z" fill="#000201"/>
<path opacity="0.9583" d="M25.1119 155.958C32.8808 155.958 39.1787 154.004 39.1787 151.594C39.1787 149.184 32.8808 147.229 25.1119 147.229C17.3431 147.229 11.0452 149.184 11.0452 151.594C11.0452 154.004 17.3431 155.958 25.1119 155.958Z" fill="#000201"/>
<path opacity="0.1" d="M25.112 155.806C32.6165 155.806 38.7001 153.921 38.7001 151.595C38.7001 149.268 32.6165 147.383 25.112 147.383C17.6075 147.383 11.5238 149.268 11.5238 151.595C11.5238 153.921 17.6075 155.806 25.112 155.806Z" fill="#000201"/>
</g>
<g opacity="0.1">
<path opacity="0.041667" d="M100.875 140.028C122.349 140.028 139.757 134.63 139.757 127.971C139.757 121.313 122.349 115.915 100.875 115.915C79.4005 115.915 61.9924 121.313 61.9924 127.971C61.9924 134.63 79.4005 140.028 100.875 140.028Z" fill="#000201"/>
<path opacity="0.083333" d="M100.875 139.789C121.934 139.789 139.006 134.498 139.006 127.972C139.006 121.445 121.934 116.155 100.875 116.155C79.815 116.155 62.743 121.445 62.743 127.972C62.743 134.498 79.815 139.789 100.875 139.789Z" fill="#000201"/>
<path opacity="0.125" d="M100.875 139.559C121.513 139.559 138.245 134.371 138.245 127.972C138.245 121.572 121.513 116.384 100.875 116.384C80.2357 116.384 63.5046 121.572 63.5046 127.972C63.5046 134.371 80.2357 139.559 100.875 139.559Z" fill="#000201"/>
<path opacity="0.1667" d="M100.874 139.319C121.099 139.319 137.494 134.239 137.494 127.972C137.494 121.705 121.099 116.624 100.874 116.624C80.6502 116.624 64.2552 121.705 64.2552 127.972C64.2552 134.239 80.6502 139.319 100.874 139.319Z" fill="#000201"/>
<path opacity="0.2083" d="M100.875 139.09C120.684 139.09 136.743 134.112 136.743 127.972C136.743 121.831 120.684 116.853 100.875 116.853C81.0649 116.853 65.0059 121.831 65.0059 127.972C65.0059 134.112 81.0649 139.09 100.875 139.09Z" fill="#000201"/>
<path opacity="0.25" d="M100.875 138.85C120.264 138.85 135.982 133.98 135.982 127.972C135.982 121.964 120.264 117.093 100.875 117.093C81.4854 117.093 65.7674 121.964 65.7674 127.972C65.7674 133.98 81.4854 138.85 100.875 138.85Z" fill="#000201"/>
<path opacity="0.2917" d="M100.875 138.621C119.849 138.621 135.231 133.853 135.231 127.972C135.231 122.09 119.849 117.322 100.875 117.322C81.9 117.322 66.5181 122.09 66.5181 127.972C66.5181 133.853 81.9 138.621 100.875 138.621Z" fill="#000201"/>
<path opacity="0.3333" d="M100.875 138.392C119.435 138.392 134.48 133.726 134.48 127.972C134.48 122.217 119.435 117.551 100.875 117.551C82.3146 117.551 67.2687 122.217 67.2687 127.972C67.2687 133.726 82.3146 138.392 100.875 138.392Z" fill="#000201"/>
<path opacity="0.375" d="M100.874 138.152C119.014 138.152 133.719 133.594 133.719 127.972C133.719 122.349 119.014 117.792 100.874 117.792C82.7351 117.792 68.0302 122.349 68.0302 127.972C68.0302 133.594 82.7351 138.152 100.874 138.152Z" fill="#000201"/>
<path opacity="0.4167" d="M100.875 137.923C118.599 137.923 132.968 133.467 132.968 127.972C132.968 122.476 118.599 118.021 100.875 118.021C83.1497 118.021 68.7809 122.476 68.7809 127.972C68.7809 133.467 83.1497 137.923 100.875 137.923Z" fill="#000201"/>
<path opacity="0.4583" d="M100.875 137.683C118.179 137.683 132.207 133.335 132.207 127.972C132.207 122.609 118.179 118.261 100.875 118.261C83.5704 118.261 69.5425 122.609 69.5425 127.972C69.5425 133.335 83.5704 137.683 100.875 137.683Z" fill="#000201"/>
<path opacity="0.5" d="M100.875 137.454C117.764 137.454 131.456 133.208 131.456 127.972C131.456 122.735 117.764 118.49 100.875 118.49C83.9849 118.49 70.2931 122.735 70.2931 127.972C70.2931 133.208 83.9849 137.454 100.875 137.454Z" fill="#000201"/>
<path opacity="0.5417" d="M100.874 137.213C117.35 137.213 130.705 133.075 130.705 127.971C130.705 122.867 117.35 118.729 100.874 118.729C84.3994 118.729 71.0437 122.867 71.0437 127.971C71.0437 133.075 84.3994 137.213 100.874 137.213Z" fill="#000201"/>
<path opacity="0.5833" d="M100.875 136.984C116.929 136.984 129.944 132.949 129.944 127.972C129.944 122.994 116.929 118.959 100.875 118.959C84.8201 118.959 71.8053 122.994 71.8053 127.972C71.8053 132.949 84.8201 136.984 100.875 136.984Z" fill="#000201"/>
<path opacity="0.625" d="M100.874 136.744C116.514 136.744 129.193 132.816 129.193 127.971C129.193 123.126 116.514 119.199 100.874 119.199C85.2346 119.199 72.556 123.126 72.556 127.971C72.556 132.816 85.2346 136.744 100.874 136.744Z" fill="#000201"/>
<path opacity="0.6667" d="M100.875 136.515C116.094 136.515 128.432 132.69 128.432 127.972C128.432 123.253 116.094 119.428 100.875 119.428C85.6552 119.428 73.3176 123.253 73.3176 127.972C73.3176 132.69 85.6552 136.515 100.875 136.515Z" fill="#000201"/>
<path opacity="0.7083" d="M100.874 136.286C115.679 136.286 127.681 132.563 127.681 127.972C127.681 123.38 115.679 119.657 100.874 119.657C86.0698 119.657 74.0682 123.38 74.0682 127.972C74.0682 132.563 86.0698 136.286 100.874 136.286Z" fill="#000201"/>
<path opacity="0.75" d="M100.875 136.046C115.265 136.046 126.93 132.431 126.93 127.971C126.93 123.512 115.265 119.897 100.875 119.897C86.4844 119.897 74.8189 123.512 74.8189 127.971C74.8189 132.431 86.4844 136.046 100.875 136.046Z" fill="#000201"/>
<path opacity="0.7917" d="M100.874 135.817C114.844 135.817 126.169 132.304 126.169 127.972C126.169 123.639 114.844 120.126 100.874 120.126C86.9049 120.126 75.5804 123.639 75.5804 127.972C75.5804 132.304 86.9049 135.817 100.874 135.817Z" fill="#000201"/>
<path opacity="0.8333" d="M100.875 135.577C114.43 135.577 125.418 132.172 125.418 127.971C125.418 123.771 114.43 120.366 100.875 120.366C87.3196 120.366 76.3311 123.771 76.3311 127.971C76.3311 132.172 87.3196 135.577 100.875 135.577Z" fill="#000201"/>
<path opacity="0.875" d="M100.874 135.348C114.015 135.348 124.667 132.045 124.667 127.972C124.667 123.898 114.015 120.596 100.874 120.596C87.7341 120.596 77.0817 123.898 77.0817 127.972C77.0817 132.045 87.7341 135.348 100.874 135.348Z" fill="#000201"/>
<path opacity="0.9167" d="M100.875 135.107C113.594 135.107 123.906 131.912 123.906 127.971C123.906 124.03 113.594 120.835 100.875 120.835C88.1547 120.835 77.8433 124.03 77.8433 127.971C77.8433 131.912 88.1547 135.107 100.875 135.107Z" fill="#000201"/>
<path opacity="0.9583" d="M100.874 134.879C113.18 134.879 123.155 131.786 123.155 127.972C123.155 124.157 113.18 121.065 100.874 121.065C88.5693 121.065 78.5939 124.157 78.5939 127.972C78.5939 131.786 88.5693 134.879 100.874 134.879Z" fill="#000201"/>
<path opacity="0.1" d="M100.875 134.638C112.759 134.638 122.394 131.653 122.394 127.971C122.394 124.29 112.759 121.305 100.875 121.305C88.9899 121.305 79.3555 124.29 79.3555 127.971C79.3555 131.653 88.9899 134.638 100.875 134.638Z" fill="#000201"/>
</g>
<path d="M143.891 136.166C143.249 136.166 142.564 136.079 141.846 135.915L141.628 135.861L66.072 107.044C63.6242 106.335 59.4683 103.574 59.7294 97.6603V36.11C59.8056 32.6511 62.0902 29.1377 66.3113 29.1377C67.2687 29.1377 68.2805 29.3232 69.3466 29.6942L144.054 55.6302C146.186 56.4486 149.776 59.3291 149.776 64.8939V129.761C149.82 130.525 149.766 132.664 148.242 134.333C147.503 135.173 146.132 136.166 143.891 136.166Z" fill="url(#paint0_linear_62_438)"/>
<path d="M141.312 137.814C140.671 137.814 139.985 137.726 139.267 137.563L139.05 137.508L63.4937 108.691C61.0568 107.982 56.89 105.222 57.162 99.3078V37.7574C57.2382 34.2986 59.5228 30.7852 63.7439 30.7852C64.7013 30.7852 65.7131 30.9706 66.7792 31.3416L141.487 57.2777C143.619 58.096 147.209 60.9766 147.209 66.5413V131.398C147.253 132.162 147.198 134.3 145.675 135.97C144.924 136.821 143.554 137.814 141.312 137.814Z" fill="url(#paint1_linear_62_438)"/>
<path d="M140.018 134.311L83.5223 112.772L64.5163 105.527C64.5163 105.527 60.1973 104.447 60.4693 99.3843V37.8339C60.4693 37.8339 60.5781 32.7166 65.6913 34.4951L140.29 60.3984C140.29 60.3984 143.88 61.795 143.88 66.5523V131.518C143.891 131.518 144.25 135.304 140.018 134.311Z" fill="url(#paint2_linear_62_438)"/>
<path d="M110.535 87.9054L92.6499 81.0858L86.6337 78.7945C86.6337 78.7945 85.2629 78.4453 85.35 76.8523V57.3539C85.35 57.3539 85.3826 55.739 87.0036 56.3064L110.633 64.5007C110.633 64.5007 111.765 64.9481 111.765 66.4538V87.0216C111.765 87.0216 111.873 88.2218 110.535 87.9054Z" fill="#FDFDFD"/>
<path d="M110.535 115.162L92.6499 108.342L86.6337 106.051C86.6337 106.051 85.2629 105.712 85.35 104.109V84.6101C85.35 84.6101 85.3826 82.9953 87.0036 83.5517L110.622 91.757C110.622 91.757 111.765 92.1934 111.765 93.7101V114.278C111.765 114.278 111.873 115.478 110.535 115.162Z" fill="url(#paint3_linear_62_438)"/>
<path opacity="0.4" d="M139.278 126.662L121.393 119.843L115.377 117.551C115.377 117.551 114.006 117.202 114.093 115.609V96.1106C114.093 96.1106 114.125 94.4957 115.746 95.0522L139.365 103.257C139.365 103.257 140.507 103.694 140.507 105.211V125.778C140.507 125.778 140.616 126.979 139.278 126.662Z" fill="url(#paint4_linear_62_438)"/>
<path d="M143.891 66.5524V69.6512L60.4801 40.5945V37.8339C60.4801 37.8339 60.5889 32.7166 65.7022 34.4951L140.301 60.3984C140.301 60.3984 143.891 61.7841 143.891 66.5524Z" fill="url(#paint5_linear_62_438)"/>
<path d="M83.5331 48.6249V112.772L64.5272 105.527C64.5272 105.527 60.2082 104.447 60.4801 99.3841V40.5942L83.5331 48.6249Z" fill="#8F86E0"/>
<path d="M68.1499 38.3029C68.5306 39.5795 67.8344 40.6161 66.5942 40.6161C65.3539 40.6161 64.0376 39.5795 63.6459 38.3029C63.2651 37.0263 63.9614 35.9897 65.2016 35.9897C66.4418 35.9897 67.7582 37.0263 68.1499 38.3029Z" fill="#F9FCFB"/>
<path d="M97.1212 49.3561C97.1212 50.2726 96.4141 50.7636 95.5546 50.4581L72.8933 42.3511C72.0338 42.0456 71.3376 41.0526 71.3376 40.1361C71.3376 39.2195 72.0447 38.7285 72.9042 39.0341L95.5655 47.1411C96.425 47.4466 97.1212 48.4396 97.1212 49.3561Z" fill="#F9FCFB"/>
<path opacity="0.7" d="M79.3229 57.6705C79.3229 58.1942 78.9204 58.467 78.4308 58.2924L65.5498 53.6879C65.0603 53.5133 64.6686 52.9459 64.6686 52.4222C64.6686 51.8984 65.0712 51.6256 65.5607 51.8002L78.4417 56.4048C78.9312 56.5903 79.3229 57.1576 79.3229 57.6705Z" fill="#F9FCFB"/>
<path opacity="0.7" d="M79.3229 61.6309C79.3229 62.1547 78.9204 62.4274 78.4308 62.2529L65.5498 57.6483C65.0603 57.4737 64.6686 56.9063 64.6686 56.3826C64.6686 55.8589 65.0712 55.5861 65.5607 55.7607L78.4417 60.3652C78.9312 60.5507 79.3229 61.1072 79.3229 61.6309Z" fill="#F9FCFB"/>
<path opacity="0.7" d="M79.3229 65.5919C79.3229 66.1156 78.9204 66.3884 78.4308 66.2138L65.5498 61.6093C65.0603 61.4347 64.6686 60.8673 64.6686 60.3435C64.6686 59.8198 65.0712 59.547 65.5607 59.7216L78.4417 64.3262C78.9312 64.5008 79.3229 65.0681 79.3229 65.5919Z" fill="#F9FCFB"/>
<path opacity="0.7" d="M79.3229 69.542C79.3229 70.0658 78.9204 70.3386 78.4308 70.164L65.5498 65.5594C65.0603 65.3849 64.6686 64.8175 64.6686 64.2937C64.6686 63.77 65.0712 63.4972 65.5607 63.6718L78.4417 68.2763C78.9312 68.4618 79.3229 69.0292 79.3229 69.542Z" fill="#F9FCFB"/>
<path opacity="0.3" d="M164.594 109.913L140.671 100.792L140.605 100.759L132.544 97.6819C132.544 97.6819 130.716 97.2236 130.825 95.0741V68.9526C130.825 68.9526 130.869 66.7813 133.033 67.5341L140.671 70.1856L164.703 78.5218C164.703 78.5218 166.226 79.111 166.226 81.1295V108.702C166.226 108.724 166.378 110.328 164.594 109.913Z" fill="#171360"/>
<path d="M163.245 110.885L139.332 101.763L139.267 101.73L131.206 98.6531C131.206 98.6531 129.378 98.1949 129.487 96.0453V69.9238C129.487 69.9238 129.53 67.7524 131.695 68.5053L139.332 71.1568L163.365 79.493C163.365 79.493 164.888 80.0822 164.888 82.1008V109.674C164.888 109.695 165.04 111.299 163.245 110.885Z" fill="white"/>
<path d="M153.921 93.8848L144.478 90.284L144.457 90.2731L141.269 89.062C141.269 89.062 140.551 88.8765 140.594 88.0363V77.7143C140.594 77.7143 140.616 76.8523 141.465 77.1578L144.478 78.2053L153.965 81.5005C153.965 81.5005 154.563 81.7296 154.563 82.5261V93.4156C154.574 93.4156 154.629 94.0484 153.921 93.8848Z" fill="url(#paint6_linear_62_438)"/>
<path opacity="0.4" d="M162.668 97.169L159.568 95.7724L159.546 95.7614L156.358 94.5503C156.358 94.5503 155.64 94.3648 155.684 93.5246V83.2026C155.684 83.2026 155.706 82.3406 156.554 82.6461L159.568 83.6936L162.712 84.7847C162.712 84.7847 163.31 85.0138 163.31 85.8104V96.6998C163.31 96.6998 163.375 97.3327 162.668 97.169Z" fill="url(#paint7_linear_62_438)"/>
<path opacity="0.4" d="M161.308 100.061L144.478 94.0376L144.457 94.0267L141.269 92.8155C141.269 92.8155 140.551 92.63 140.594 91.7899V91.9535C140.594 91.9535 140.616 91.0916 141.465 91.3971L144.478 92.4445L161.352 98.4239C161.352 98.4239 161.95 98.653 161.95 99.4496V99.6023C161.961 99.5914 162.015 100.224 161.308 100.061Z" fill="url(#paint8_linear_62_438)"/>
<path opacity="0.4" d="M161.308 103.061L144.478 97.0381L144.457 97.0272L141.269 95.816C141.269 95.816 140.551 95.6305 140.594 94.7904V94.954C140.594 94.954 140.616 94.092 141.465 94.3976L144.478 95.445L161.352 101.424C161.352 101.424 161.95 101.654 161.95 102.45V102.603C161.961 102.592 162.015 103.225 161.308 103.061Z" fill="url(#paint9_linear_62_438)"/>
<path opacity="0.4" d="M151.528 102.527L144.478 100.05L144.457 100.039L141.269 98.8277C141.269 98.8277 140.551 98.6422 140.594 97.8021V97.9657C140.594 97.9657 140.616 97.1038 141.465 97.4093L144.478 98.4567L151.572 100.89C151.572 100.89 152.17 101.119 152.17 101.916V102.068C152.17 102.057 152.235 102.69 151.528 102.527Z" fill="url(#paint10_linear_62_438)"/>
<path opacity="0.2" d="M139.332 71.1677V101.763L139.267 101.73L131.206 98.6531C131.206 98.6531 129.378 98.1948 129.487 96.0453V69.9238C129.487 69.9238 129.53 67.7524 131.695 68.5053L139.332 71.1677Z" fill="url(#paint11_linear_62_438)"/>
<path d="M164.888 82.1117V84.283L129.487 71.8223V69.9238C129.487 69.9238 129.53 67.7524 131.695 68.5053L163.365 79.5039C163.365 79.5039 164.888 80.104 164.888 82.1117Z" fill="url(#paint12_linear_62_438)"/>
<path d="M142.825 86.5963L146.175 80.8569L147.862 87.2946L150.636 84.294L152.464 90.1424L142.825 86.5963Z" fill="#E8EAE9"/>
<path opacity="0.2" d="M111.765 66.4431V68.0252L85.35 59.0889V57.3431C85.35 57.3431 85.3827 55.7283 87.0037 56.2956L110.633 64.49C110.622 64.5009 111.765 64.9374 111.765 66.4431Z" fill="url(#paint13_linear_62_438)"/>
<path opacity="0.2" d="M103.932 80.9987L94.6299 77.4526L91.4967 76.2633C91.4967 76.2633 90.7895 76.0887 90.833 75.2485V65.1229C90.833 65.1229 90.8548 64.2827 91.6925 64.5773L103.975 68.8327C103.975 68.8327 104.563 69.0618 104.563 69.8474V80.5405C104.563 80.5405 104.628 81.1624 103.932 80.9987Z" fill="url(#paint14_linear_62_438)"/>
<path opacity="0.3" d="M64.1029 64.8936L46.2175 58.074L40.2013 55.7827C40.2013 55.7827 38.8306 55.4335 38.9176 53.8405V34.3421C38.9176 34.3421 38.9502 32.7272 40.5712 33.2837L64.19 41.4889C64.19 41.4889 65.3323 41.9254 65.3323 43.442V64.0098C65.3323 64.0098 65.4411 65.21 64.1029 64.8936Z" fill="#171360"/>
<path d="M61.7312 65.854L43.8458 59.0345L37.8296 56.7431C37.8296 56.7431 36.4589 56.4049 36.5459 54.8009V35.3025C36.5459 35.3025 36.5785 33.6876 38.1995 34.2441L61.8291 42.4494C61.8291 42.4494 62.9715 42.8858 62.9715 44.4025V64.9811C62.9606 64.9702 63.0803 66.1595 61.7312 65.854Z" fill="url(#paint15_linear_62_438)"/>
<path opacity="0.3" d="M72.8823 102.734L54.9969 95.9143L48.9808 93.623C48.9808 93.623 47.61 93.2738 47.697 91.6808V72.1824C47.697 72.1824 47.7297 70.5675 49.3506 71.124L72.9694 79.3292C72.9694 79.3292 74.1117 79.7657 74.1117 81.2824V101.85C74.1117 101.85 74.2205 103.05 72.8823 102.734Z" fill="#171360"/>
<path opacity="0.9" d="M70.5216 103.694L52.6254 96.8634L46.6092 94.572C46.6092 94.572 45.2384 94.2229 45.3254 92.6298V73.1423C45.3254 73.1423 45.3581 71.5275 46.9791 72.084L70.6087 80.2783C70.6087 80.2783 71.751 80.7147 71.751 82.2314V102.799C71.7401 102.81 71.8598 103.999 70.5216 103.694Z" fill="#FF5454"/>
<path d="M22.5553 144.262C22.5553 144.262 22.3595 145.801 22.5553 146.259C22.7512 146.706 24.4157 147.263 25.4383 147.056C26.461 146.837 26.6568 145.692 26.6568 145.692L26.0802 144.273H22.5553V144.262Z" fill="#FFBDBD"/>
<path d="M9.4133 142.724C9.4133 142.724 9.02165 144.218 9.05429 144.917C9.08692 145.615 11.2736 147.077 11.8502 147.055C12.4268 147.034 13.134 146.073 13.134 146.073L12.2854 144.273L9.4133 142.724Z" fill="#FFBDBD"/>
<path d="M29.9858 121.534C29.5289 124.731 27.0593 130.514 26.8852 135.009C26.7003 139.505 26.3957 144.589 26.3957 144.589C26.3957 144.589 25.8517 144.862 24.4809 145.048C24.1219 145.091 23.8064 145.091 23.5236 145.059C22.7403 144.982 22.2942 144.677 22.2942 144.677C22.2942 144.677 21.3804 136.711 21.5653 132.227C21.7503 127.742 22.8382 124.905 22.9361 122.069C23.0231 119.232 22.1202 113.58 22.1202 113.58C22.1202 113.58 21.7503 124.076 20.9343 126.368C20.1184 128.648 17.2789 130.645 15.5491 134.955C13.8193 139.265 12.6335 144.524 12.6335 144.524C12.6335 144.524 11.8937 144.797 10.7188 144.524C10.3489 144.437 10.0551 144.262 9.8158 144.066C9.2936 143.629 9.0869 143.062 9.0869 143.062C9.0869 143.062 9.35888 131.758 11.5456 128.015C13.7432 124.262 14.7441 122.156 14.7441 122.156C14.7441 122.156 11.1322 110.317 13.4168 105.516C13.5365 105.254 13.667 105.014 13.8302 104.796C16.9308 100.41 28.3974 103.956 28.3974 103.956C28.3974 103.956 30.4427 118.326 29.9858 121.534Z" fill="url(#paint16_linear_62_438)"/>
<path d="M15.56 75.5322C15.56 75.5322 15.8647 78.02 15.745 79.0129C15.6253 79.9949 17.6162 81.8716 19.6397 81.6316C21.6633 81.3806 22.8926 79.7221 22.9797 79.0129C23.0667 78.3036 22.6098 75.0084 22.6098 75.0084C22.6098 75.0084 16.0822 74.8557 15.56 75.5322Z" fill="#EDABAB"/>
<path d="M33.2713 85.625C33.2713 85.625 34.3592 86.4543 34.914 86.5961C35.4689 86.738 41.8223 80.9004 42.1378 80.0603C42.4642 79.2201 41.5286 78.1072 43.1061 76.5687C44.6836 75.0302 45.6627 74.2118 46.2175 74.1791C46.7724 74.1464 44.7815 76.1977 44.8685 76.6123C44.9664 77.0269 46.3046 78.74 45.7062 80.1476C45.1078 81.5551 43.9003 81.7406 42.9646 82.8099C42.0399 83.8792 35.6756 91.7462 34.7944 91.8881C33.9132 92.0299 31.226 89.2039 31.226 89.2039C31.226 89.2039 32.6621 86.9453 33.2713 85.625Z" fill="#FFBDBD"/>
<path d="M33.1952 87.1307C32.9014 87.7417 32.4663 88.32 32.042 88.7783C31.4219 89.4657 30.8453 89.913 30.8453 89.913L27.9296 87.7308C27.9296 87.7308 28.0928 96.7544 28.4954 99.875C28.8979 102.996 29.7574 104.785 23.4039 106.913C20.0966 108.015 17.1157 107.72 15.0704 106.705C13.1992 105.767 12.1004 104.229 12.2636 102.614C12.59 99.2313 12.8837 91.2224 12.405 91.0915C11.9155 90.9605 10.1095 96.0343 10.1095 96.0343C10.1095 96.0343 10.1095 96.0343 8.65173 95.8379C7.19392 95.6414 4.9528 94.1793 4.9528 94.1793C4.9528 94.1793 8.35799 83.2026 9.07602 82.3406C9.80492 81.4786 15.5818 79.5801 15.5818 79.5801C16.463 79.5255 18.1166 81.7405 20.7711 81.3368C23.4257 80.9331 22.3704 78.6745 22.3704 78.6745C22.3704 78.6745 25.2642 77.9216 26.461 78.1289C27.6468 78.3362 33.7391 85.5485 33.7391 85.5485C33.7391 85.5485 33.9241 85.6031 33.1952 87.1307Z" fill="url(#paint17_linear_62_438)"/>
<path d="M8.7714 143.869C8.7714 143.869 10.5882 146.073 11.7849 145.789C12.9816 145.506 12.9816 144.087 13.8955 144.84C14.8094 145.593 14.8094 147.033 16.1475 147.895C17.4856 148.757 17.0613 149.772 16.1475 150.198C15.2336 150.634 7.77052 146.313 7.62909 145.877C7.47678 145.451 7.77052 143.684 8.7714 143.869Z" fill="url(#paint18_linear_62_438)"/>
<path d="M22.3378 145.419C22.3378 145.419 24.1655 146.543 25.4927 145.877C26.82 145.212 26.9832 144.71 27.4401 145.004C27.897 145.299 28.3975 146.248 29.5724 146.423C30.7582 146.586 31.8788 146.423 32.2922 147.088C32.7056 147.754 32.6186 148.463 32.6186 148.463C32.6186 148.463 22.7947 148.714 22.3378 148.027C21.8917 147.328 22.3378 145.419 22.3378 145.419Z" fill="url(#paint19_linear_62_438)"/>
<path opacity="0.3" d="M23.5562 128.779C23.1211 131.976 23.4257 142.036 23.5236 145.069C22.7403 144.993 22.2943 144.688 22.2943 144.688C22.2943 144.688 21.3804 136.722 21.5653 132.238C21.7503 127.753 22.8382 124.916 22.9361 122.079C23.0232 119.243 22.1202 113.591 22.1202 113.591C22.1202 113.591 22.9035 112.598 23.2081 111.386C23.5018 110.175 23.5018 110.175 23.5018 110.175C23.5018 110.175 24.1437 120.836 24.5789 121.894C25.0141 122.952 25.0141 122.952 25.0141 122.952C25.0141 122.952 24.0676 124.993 23.5562 128.779Z" fill="#09301D"/>
<path opacity="0.3" d="M17.8012 124.567C17.8012 124.567 13.765 125.113 12.7206 127.982C11.8938 130.274 10.3707 140.17 9.79408 144.076C9.27188 143.64 9.06517 143.072 9.06517 143.072C9.06517 143.072 9.33715 131.768 11.5239 128.026C13.7215 124.272 14.7223 122.167 14.7223 122.167C14.7223 122.167 11.1105 110.328 13.3951 105.527C13.8738 105.778 14.2981 106.04 14.5483 106.312C14.5483 106.312 14.7006 115.292 15.5165 118.817C16.3325 122.33 17.8012 124.567 17.8012 124.567Z" fill="#09301D"/>
<path opacity="0.2" d="M15.0596 106.706C13.1884 105.767 12.0896 104.229 12.2528 102.614C12.5791 99.2315 12.8729 91.2226 12.3942 91.0917C12.3942 91.0917 13.0252 89.6514 13.4277 88.6039C13.8302 87.5565 13.7867 85.8979 13.7867 85.8979C13.7867 85.8979 14.8311 88.844 14.4939 92.6411C14.1675 96.4382 14.3416 102.134 14.5592 104.011C14.6788 105.047 14.8855 106.029 15.0596 106.706Z" fill="url(#paint20_linear_62_438)"/>
<path d="M9.34797 95.9253C9.34797 95.9253 8.66259 96.6782 9.70699 97.7802C10.7514 98.8822 14.4612 103.432 15.8646 103.803C17.268 104.174 17.8446 104.218 18.53 104.796C19.2045 105.374 19.2045 105.374 19.2045 105.374C19.2045 105.374 19.3568 105.691 18.1057 105.374C16.8546 105.047 16.9416 105.374 18.5735 106.466C20.2054 107.557 21.4674 107.982 19.3351 108.561C17.2136 109.139 16.3759 108.353 14.7876 106.575C13.1992 104.796 6.14949 99.6133 5.3118 98.0421C4.4741 96.4708 5.5185 94.5396 5.5185 94.5396C5.5185 94.5396 8.31445 95.8053 9.34797 95.9253Z" fill="#FFBDBD"/>
<path opacity="0.2" d="M32.0419 88.7783C31.4218 89.4657 30.8452 89.9131 30.8452 89.9131L27.9296 87.7308C27.9296 87.7308 28.0602 86.0614 27.9296 84.0755C27.7882 82.0896 27.9296 81.3149 27.9296 81.3149C27.9296 81.3149 28.2886 84.0209 29.2025 85.8868C29.7682 87.0434 31.0954 88.1127 32.0419 88.7783Z" fill="url(#paint21_linear_62_438)"/>
<path d="M15.7776 79.3398C15.7776 79.3398 18.4539 80.7801 19.2481 81.0638C20.0422 81.3366 20.0422 81.3366 20.0422 81.3366L18.7911 84.3591C18.7911 84.3591 15.4621 80.9765 15.0487 80.4419C14.6462 79.9181 15.1792 79.3617 15.7776 79.3398Z" fill="#F9FCFB"/>
<path d="M22.3269 79.3946C22.3269 79.3946 22.2289 79.831 21.6959 80.4857C21.1519 81.1404 21.1519 81.1404 21.1519 81.1404C21.1519 81.1404 22.4574 81.6641 22.7294 82.1988C23.0014 82.7225 23.0014 82.7225 23.0014 82.7225C23.0014 82.7225 23.5344 81.0967 23.5018 79.7547C23.4692 78.4126 23.4692 78.4126 23.4692 78.4126H22.9796L22.3269 79.3946Z" fill="#F9FCFB"/>
<path d="M23.9152 69.0727C23.9152 69.0727 24.3504 70.7312 23.9152 71.4186C23.48 72.117 23.4256 72.9899 23.7411 73.59C24.0566 74.201 24.2307 75.4776 23.6867 76.7761C23.1428 78.0854 23.48 78.5437 22.6423 79.2093C21.8047 79.8749 18.3016 79.7876 16.2236 77.3762C14.1457 74.9648 14.026 73.5463 14.9181 72.1824C15.8102 70.8185 19.433 68.0034 20.7929 68.0034C22.1528 68.0252 23.9152 69.0727 23.9152 69.0727Z" fill="#FFBDBD"/>
<path d="M25.0684 67.7632C25.3513 68.5925 24.0567 69.8254 22.0005 70.1964C19.9443 70.5783 19.2807 70.742 19.2481 72.0186C19.2154 73.2952 18.6715 74.0481 18.3777 74.1681C18.084 74.2881 18.4104 75.6193 17.9752 75.7066C17.54 75.7939 17.6271 73.8735 16.7023 73.8735C15.7776 73.8735 15.7232 74.801 16.2345 75.8485C16.7567 76.8959 17.1266 77.1578 16.2345 77.8234C15.3424 78.489 13.308 76.2522 12.7097 73.2952C12.1004 70.3383 12.3942 66.3338 17.0505 65.4064C21.7177 64.4898 24.5789 66.312 25.0684 67.7632Z" fill="url(#paint22_linear_62_438)"/>
<path d="M41.4307 44.915L46.7615 45.1333V46.4972L42.7253 46.2135V46.2353L46.7615 50.6107V51.9746L41.4307 46.0171V44.915Z" fill="white"/>
<path d="M47.5774 52.9675L49.96 45.0132L51.0805 45.6679L48.698 53.6222L47.5774 52.9675Z" fill="white"/>
<path d="M57.0531 55.1062L51.7223 54.8443V53.4804L55.8455 53.8186V53.7968L51.7223 49.3668V48.0029L57.0531 53.9168V55.1062Z" fill="white"/>
<path opacity="0.7" d="M64.7665 84.1194C64.7665 84.5885 64.4075 84.8395 63.9614 84.6867L52.3533 80.5296C51.9073 80.3768 51.5591 79.864 51.5591 79.3948C51.5591 78.9256 51.9181 78.6747 52.3642 78.8274L63.9614 82.9846C64.4183 83.1483 64.7665 83.6502 64.7665 84.1194Z" fill="#F9FCFB"/>
<path opacity="0.7" d="M64.7665 87.9816C64.7665 88.4508 64.4075 88.7018 63.9614 88.549L52.3533 84.3919C51.9073 84.2391 51.5591 83.7263 51.5591 83.2571C51.5591 82.7879 51.9181 82.537 52.3642 82.6897L63.9614 86.8469C64.4183 86.9996 64.7665 87.5125 64.7665 87.9816Z" fill="#F9FCFB"/>
<path opacity="0.7" d="M64.7666 91.8332C64.7666 92.3024 64.4076 92.5534 63.9615 92.4006L52.3643 88.2434C51.9183 88.0907 51.5701 87.5778 51.5701 87.1087C51.5701 86.6395 51.9291 86.3885 52.3752 86.5413L63.9724 90.6985C64.4184 90.8621 64.7666 91.3641 64.7666 91.8332Z" fill="#F9FCFB"/>
<path opacity="0.7" d="M64.7665 95.696C64.7665 96.1652 64.4075 96.4162 63.9614 96.2634L52.3533 92.1062C51.9073 91.9535 51.5591 91.4406 51.5591 90.9715C51.5591 90.5023 51.9181 90.2513 52.3642 90.4041L63.9614 94.5613C64.4183 94.714 64.7665 95.2269 64.7665 95.696Z" fill="#F9FCFB"/>
<path opacity="0.8" d="M93.7596 145.757C94.0968 144.437 94.0316 143.095 93.5746 141.785H89.3535C88.8857 140.738 88.0915 139.734 86.9818 138.828L89.9192 137.126V133.155L85.9483 134.857C85.6002 134.704 85.2412 134.562 84.8822 134.431L81.8904 136.166C80.3564 135.664 78.7028 135.315 77.0165 135.14V132.729C74.7428 132.533 72.4146 132.576 70.1626 132.838V135.282C68.6069 135.522 67.0947 135.893 65.6913 136.406L62.7213 134.693C62.4275 134.813 62.1338 134.944 61.8509 135.075V134.802L57.88 133.536V137.508L60.8392 139.221C59.9471 140.029 59.2943 140.902 58.8918 141.807H54.6707C54.5836 141.796 54.5183 141.785 54.4857 141.796C54.4857 141.796 54.0505 144.033 54.3769 145.266C54.4096 145.43 54.4422 145.604 54.4857 145.768H58.6524C58.87 146.455 59.2399 147.132 59.7404 147.787L57.4448 146.346V150.318C58.1955 150.994 59.0767 151.627 60.0885 152.217C60.7304 152.588 61.4049 152.926 62.1011 153.231L65.0385 151.529C66.616 152.173 68.3458 152.631 70.1517 152.904V155.348C72.4146 155.61 74.7319 155.654 77.0056 155.457V153.046C78.9421 152.838 80.8351 152.413 82.554 151.78L85.5131 153.493C86.4379 153.111 87.3191 152.686 88.1459 152.217C88.9727 151.736 89.7125 151.224 90.3653 150.689V146.717L88.4832 147.808C88.9945 147.154 89.3644 146.466 89.582 145.768H93.7596V145.757ZM80.6284 147.852C77.0383 149.936 71.2179 149.936 67.6169 147.852C64.0268 145.768 64.0268 142.396 67.6169 140.323C71.207 138.239 77.0274 138.239 80.6284 140.323C84.2185 142.396 84.2185 145.768 80.6284 147.852Z" fill="url(#paint23_linear_62_438)"/>
<path d="M89.9192 133.143C89.3861 132.74 88.7987 132.347 88.1568 131.976C87.145 131.387 86.0462 130.874 84.8822 130.448L81.8904 132.183C80.3564 131.681 78.7028 131.332 77.0165 131.157V128.746C74.7428 128.55 72.4146 128.593 70.1626 128.855V131.299C68.6069 131.539 67.0947 131.91 65.6913 132.423L62.7213 130.71C61.7965 131.092 60.9153 131.518 60.0885 131.998C59.2617 132.478 58.5219 132.98 57.88 133.525L60.8392 135.238C59.9471 136.046 59.2943 136.919 58.8918 137.824H54.6707C54.2137 139.134 54.1485 140.476 54.4857 141.796H58.6525C58.968 142.778 59.5554 143.727 60.4366 144.622L57.4449 146.357C58.1955 147.033 59.0767 147.666 60.0885 148.255C60.7304 148.626 61.4049 148.965 62.1012 149.27L65.0385 147.568C66.616 148.212 68.3458 148.67 70.1517 148.943V151.387C72.4146 151.649 74.7319 151.692 77.0056 151.496V149.085C78.9421 148.877 80.8351 148.452 82.554 147.819L85.5132 149.532C86.4379 149.15 87.3191 148.725 88.1459 148.255C88.9727 147.775 89.7125 147.262 90.3653 146.728L87.3953 145.015C88.4941 144.022 89.223 142.931 89.582 141.807H93.7487C94.086 140.487 94.0207 139.144 93.5638 137.835H89.3426C88.8748 136.788 88.0806 135.784 86.971 134.878L89.9192 133.143ZM80.6284 143.869C77.0383 145.953 71.2179 145.953 67.6169 143.869C64.0268 141.785 64.0268 138.413 67.6169 136.34C71.207 134.256 77.0274 134.256 80.6284 136.34C84.2185 138.424 84.2185 141.796 80.6284 143.869Z" fill="url(#paint24_linear_62_438)"/>
<path d="M99.6126 69.1597L98.4811 71.8766C98.4811 71.8766 99.3297 73.0659 100.559 73.0659C101.788 73.0659 102.539 73.0659 102.539 73.0659L103.246 70.9382L99.6126 69.1597Z" fill="#FFBDBD"/>
<path d="M114.147 65.6899C114.147 65.6899 116.334 67.7194 114.985 68.5705C113.636 69.4325 110.818 70.2836 110.698 69.127C110.579 67.9595 110.698 67.403 110.698 67.403L114.147 65.6899Z" fill="#FFBDBD"/>
<path d="M128.703 39.874C128.703 39.874 131.151 43.802 124.537 46.7044C117.922 49.6068 111.144 52.7383 111.351 52.9566C111.558 53.1748 113.124 55.2479 113.538 58.6522C113.951 62.0565 114.528 65.4499 114.528 65.4499C114.528 65.4499 115.279 66.3665 112.994 67.1085C110.72 67.8504 109.893 67.1085 109.893 67.1085L108.827 61.631L103.616 71.5821C103.616 71.5821 101.549 71.5821 100.635 70.9165C99.7213 70.2509 99.1447 69.4216 99.1447 69.4216C99.1447 69.4216 104.954 55.3243 104.323 54.1568C103.692 53.0002 99.8954 44.8713 101.375 42.7982C102.865 40.725 114.136 36.0332 114.136 36.0332C114.136 36.0332 119.478 40.6596 128.703 39.874Z" fill="url(#paint25_linear_62_438)"/>
<path opacity="0.5" d="M115.453 40.9326C115.453 40.9326 108.969 43.6604 107.674 45.3626C106.379 47.0647 104.367 54.5171 104.367 54.5171C104.367 54.5171 105.248 48.3632 105.085 47.3157C104.922 46.2682 104.04 45.7445 104.04 45.7445C104.04 45.7445 106.053 45.2316 107.75 44.2496C109.458 43.2458 115.453 40.9326 115.453 40.9326Z" fill="#1E183D"/>
<path d="M111.906 26.333C111.906 26.333 112.232 27.7515 111.656 28.2534C111.079 28.7553 105.422 30.4575 105.422 30.4575C105.422 30.4575 107.282 32.847 108.827 32.5306C110.383 32.2142 114.963 30.4575 114.963 30.4575V27.1732L111.906 26.333Z" fill="#FFBDBD"/>
<path d="M116.617 4.81643C116.617 4.81643 116.29 6.20216 116.595 6.94413C116.9 7.68609 116.269 9.03909 116.932 10.774C117.596 12.5089 117.672 13.1635 118.466 13.1963C119.271 13.229 119.445 13.0217 119.445 13.0217L119.728 14.6038C119.728 14.6038 120.174 15.1385 121.654 15.2367C123.123 15.324 125.407 15.3567 125.407 15.3567C125.407 15.3567 124.613 11.5705 124.863 10.9922C125.113 10.4139 123.405 5.37291 122.829 4.59821C122.241 3.8126 116.617 4.81643 116.617 4.81643Z" fill="#FFBDBD"/>
<path d="M126.995 14.9857C126.995 14.9857 122.285 14.7348 121.23 14.7893C120.174 14.8439 119.141 14.2219 119.141 14.2219C119.141 14.2219 114.517 14.0474 113.462 16.2842C112.406 18.5101 111.645 26.1479 111.645 26.1479C111.645 26.1479 112.058 26.4971 112.82 26.8572C113.581 27.2063 114.049 27.2063 114.049 27.2063C114.049 27.2063 113.636 34.8988 114.223 36.7209C114.811 38.5431 118.194 41.9692 127.724 40.1252C131.663 39.3615 129.215 32.4874 129.215 32.4874L132.185 32.6838C132.185 32.6838 132.196 18.9792 130.499 17.9863C128.801 16.9825 128.279 17.2553 127.409 16.2842C127.246 16.0878 126.995 14.9857 126.995 14.9857Z" fill="#FC4C7E"/>
<path d="M111.351 43.1694L96.7621 34.8659V22.1543L111.351 30.4578V43.1694Z" fill="url(#paint26_linear_62_438)"/>
<path d="M111.351 32.6616L121.926 38.3791L111.351 43.1692V32.6616Z" fill="url(#paint27_linear_62_438)"/>
<path d="M130.651 32.5745C130.651 32.5745 130.988 35.5641 129.041 36.0661C127.093 36.568 119.685 37.3536 118.956 38.0737C118.227 38.8048 117.618 39.1321 116.116 39.3613C114.615 39.5795 115.007 40.0923 114.441 40.4197C113.886 40.7579 112.439 40.0268 113.266 38.9139C114.104 37.801 115.681 36.9608 115.681 36.9608C115.681 36.9608 114.767 37.299 114.767 36.8517C114.767 36.4043 117.585 37.1026 118.477 36.4807C119.369 35.8697 125.44 33.5019 126.18 33.1091C126.908 32.7163 127.104 31.5815 127.104 31.5815C127.104 31.5815 129.302 31.7779 130.651 32.5745Z" fill="#FFBDBD"/>
<path d="M111.351 30.4575L111.906 30.2065V42.3289L121.926 38.3791V38.9901L111.351 43.1691V30.4575Z" fill="#FFFFFE"/>
<path d="M111.906 30.2066L97.5237 21.9795L96.7621 22.1541L111.351 30.4575L111.906 30.2066Z" fill="#FFFFFE"/>
<path opacity="0.5" d="M111.351 52.9565C111.351 52.9565 111.253 54.2877 110.394 57.3538C109.523 60.4198 108.838 61.631 108.838 61.631L109.469 64.8716C109.469 64.8716 111.449 59.5033 111.656 57.3538C111.862 55.1934 111.351 52.9565 111.351 52.9565Z" fill="#1E183D"/>
<path d="M115.453 66.9448C115.453 66.9448 113.353 69.0943 111.699 68.7234C110.046 68.3524 109.447 68.4288 109.447 69.3126C109.447 70.2073 108.49 71.3202 107.076 71.9858C105.672 72.6514 104.117 73.688 106.26 73.9935C108.403 74.2881 109.959 74.9537 112.624 72.9569C115.289 70.9493 116.845 69.9127 116.845 68.6579C116.856 67.3922 115.453 66.9448 115.453 66.9448Z" fill="url(#paint28_linear_62_438)"/>
<path d="M103.681 72.6624C103.681 72.6624 101.68 72.957 100.428 72.3678C99.1664 71.7786 98.2852 71.1785 97.6869 71.5931C97.0994 71.9968 97.2408 72.8915 95.1738 73.4153C93.1067 73.939 91.9209 73.8627 91.6272 75.052C91.3334 76.2413 91.3334 76.2413 91.3334 76.2413C91.3334 76.2413 100.135 76.8305 102.213 76.2413C104.28 75.6303 104.421 76.2195 103.681 72.6624Z" fill="url(#paint29_linear_62_438)"/>
<path opacity="0.2" d="M127.104 31.5814C127.104 31.5814 126.593 24.4673 126.528 22.6451C126.462 20.8229 127.104 19.9282 127.104 19.9282C127.104 19.9282 125.755 20.9975 125.679 23.9654C125.592 26.9223 125.407 30.8722 125.407 31.5814C125.407 32.2798 125.407 33.4582 125.407 33.4582C125.407 33.4582 127.202 32.8799 127.104 31.5814Z" fill="url(#paint30_linear_62_438)"/>
<path opacity="0.2" d="M114.06 27.2064C114.06 27.2064 114.386 20.5614 114.528 19.1102C114.669 17.6699 114.669 17.6699 114.669 17.6699C114.669 17.6699 113.668 20.0704 113.494 22.4381C113.32 24.8059 112.831 26.8572 112.831 26.8572L114.06 27.2064Z" fill="url(#paint31_linear_62_438)"/>
<path d="M118.793 6.87842C121.317 6.78021 121.937 6.45288 121.73 7.23849C121.534 8.03501 121.502 9.14796 121.915 9.50803C122.328 9.8681 122.448 7.55491 123.318 8.03501C124.189 8.5151 123.155 9.47529 123.851 10.13C124.548 10.7846 124.667 11.3957 125.788 10.5119C126.898 9.62805 128.725 6.99844 128.529 5.28537C128.334 3.57231 127.104 2.97219 127.104 2.97219C127.104 2.97219 126.419 -0.181165 122.013 0.102528C117.607 0.38622 115.594 2.53574 114.669 2.89581C113.745 3.24497 115.616 6.99844 118.793 6.87842Z" fill="#0B1F45"/>
<path opacity="0.7" d="M105.085 95.2922C105.085 95.7614 104.726 96.0124 104.28 95.8596L92.6717 91.7024C92.2256 91.5497 91.8775 91.0368 91.8775 90.5676C91.8775 90.0985 92.2365 89.8475 92.6826 90.0003L104.28 94.1575C104.726 94.3102 105.085 94.823 105.085 95.2922Z" fill="#F9FCFB"/>
<path opacity="0.7" d="M105.085 99.1442C105.085 99.6134 104.726 99.8644 104.28 99.7116L92.6824 95.5545C92.2364 95.4017 91.8882 94.8889 91.8882 94.4197C91.8882 93.9505 92.2472 93.6996 92.6933 93.8523L104.291 98.0095C104.726 98.1622 105.085 98.6751 105.085 99.1442Z" fill="#F9FCFB"/>
<path opacity="0.7" d="M105.085 103.007C105.085 103.476 104.726 103.727 104.28 103.574L92.6717 99.4168C92.2256 99.264 91.8775 98.7512 91.8775 98.282C91.8775 97.8128 92.2365 97.5619 92.6826 97.7146L104.28 101.872C104.726 102.025 105.085 102.537 105.085 103.007Z" fill="#F9FCFB"/>
<path opacity="0.7" d="M105.085 106.858C105.085 107.327 104.726 107.578 104.28 107.425L92.6717 103.268C92.2256 103.116 91.8775 102.603 91.8775 102.134C91.8775 101.664 92.2365 101.413 92.6826 101.566L104.28 105.723C104.726 105.876 105.085 106.389 105.085 106.858Z" fill="#F9FCFB"/>
<path opacity="0.7" d="M132.196 106.553C132.196 107.022 131.837 107.273 131.391 107.12L119.783 102.963C119.336 102.81 118.988 102.298 118.988 101.828C118.988 101.359 119.347 101.108 119.793 101.261L131.391 105.418C131.837 105.582 132.196 106.084 132.196 106.553Z" fill="#F9FCFB"/>
<path opacity="0.7" d="M132.196 110.415C132.196 110.884 131.837 111.135 131.391 110.983L119.783 106.825C119.336 106.673 118.988 106.16 118.988 105.691C118.988 105.222 119.347 104.971 119.793 105.123L131.391 109.281C131.837 109.433 132.196 109.946 132.196 110.415Z" fill="#F9FCFB"/>
<path opacity="0.7" d="M132.196 114.267C132.196 114.736 131.837 114.987 131.391 114.834L119.783 110.677C119.336 110.524 118.988 110.011 118.988 109.542C118.988 109.073 119.347 108.822 119.793 108.975L131.391 113.132C131.837 113.296 132.196 113.798 132.196 114.267Z" fill="#F9FCFB"/>
<path opacity="0.7" d="M132.196 118.13C132.196 118.599 131.837 118.85 131.391 118.697L119.783 114.54C119.336 114.387 118.988 113.874 118.988 113.405C118.988 112.936 119.347 112.685 119.793 112.838L131.391 116.995C131.837 117.148 132.196 117.66 132.196 118.13Z" fill="#F9FCFB"/>
<defs>
<linearGradient id="paint0_linear_62_438" x1="59.7199" y1="82.6569" x2="149.801" y2="82.6569" gradientUnits="userSpaceOnUse">
<stop stop-color="#04C6CC"/>
<stop offset="1" stop-color="#00C3CC"/>
</linearGradient>
<linearGradient id="paint1_linear_62_438" x1="161.699" y1="57.6112" x2="35.9667" y2="113.973" gradientUnits="userSpaceOnUse">
<stop stop-color="#63FFCD"/>
<stop offset="1" stop-color="#00C3CC"/>
</linearGradient>
<linearGradient id="paint2_linear_62_438" x1="102.181" y1="130.137" x2="102.181" y2="75.784" gradientUnits="userSpaceOnUse">
<stop stop-color="#DEDEDE"/>
<stop offset="1" stop-color="#F7F7F7"/>
</linearGradient>
<linearGradient id="paint3_linear_62_438" x1="85.3427" y1="99.3278" x2="111.763" y2="99.3278" gradientUnits="userSpaceOnUse">
<stop stop-color="#04C6CC"/>
<stop offset="1" stop-color="#00C3CC"/>
</linearGradient>
<linearGradient id="paint4_linear_62_438" x1="114.089" y1="110.824" x2="140.51" y2="110.824" gradientUnits="userSpaceOnUse">
<stop stop-color="#04C6CC"/>
<stop offset="1" stop-color="#00C3CC"/>
</linearGradient>
<linearGradient id="paint5_linear_62_438" x1="60.4768" y1="51.8889" x2="143.893" y2="51.8889" gradientUnits="userSpaceOnUse">
<stop stop-color="#04C6CC"/>
<stop offset="1" stop-color="#00C3CC"/>
</linearGradient>
<linearGradient id="paint6_linear_62_438" x1="140.59" y1="85.4974" x2="154.572" y2="85.4974" gradientUnits="userSpaceOnUse">
<stop stop-color="#04C6CC"/>
<stop offset="1" stop-color="#00C3CC"/>
</linearGradient>
<linearGradient id="paint7_linear_62_438" x1="155.675" y1="89.8887" x2="163.315" y2="89.8887" gradientUnits="userSpaceOnUse">
<stop stop-color="#04C6CC"/>
<stop offset="1" stop-color="#00C3CC"/>
</linearGradient>
<linearGradient id="paint8_linear_62_438" x1="140.59" y1="95.7079" x2="161.961" y2="95.7079" gradientUnits="userSpaceOnUse">
<stop stop-color="#04C6CC"/>
<stop offset="1" stop-color="#00C3CC"/>
</linearGradient>
<linearGradient id="paint9_linear_62_438" x1="140.59" y1="98.7111" x2="161.961" y2="98.7111" gradientUnits="userSpaceOnUse">
<stop stop-color="#04C6CC"/>
<stop offset="1" stop-color="#00C3CC"/>
</linearGradient>
<linearGradient id="paint10_linear_62_438" x1="140.59" y1="99.9428" x2="152.173" y2="99.9428" gradientUnits="userSpaceOnUse">
<stop stop-color="#04C6CC"/>
<stop offset="1" stop-color="#00C3CC"/>
</linearGradient>
<linearGradient id="paint11_linear_62_438" x1="129.479" y1="85.0589" x2="139.331" y2="85.0589" gradientUnits="userSpaceOnUse">
<stop stop-color="#04C6CC"/>
<stop offset="1" stop-color="#00C3CC"/>
</linearGradient>
<linearGradient id="paint12_linear_62_438" x1="129.484" y1="76.3234" x2="164.887" y2="76.3234" gradientUnits="userSpaceOnUse">
<stop stop-color="#04C6CC"/>
<stop offset="1" stop-color="#00C3CC"/>
</linearGradient>
<linearGradient id="paint13_linear_62_438" x1="85.3482" y1="62.1041" x2="111.762" y2="62.1041" gradientUnits="userSpaceOnUse">
<stop stop-color="#04C6CC"/>
<stop offset="1" stop-color="#00C3CC"/>
</linearGradient>
<linearGradient id="paint14_linear_62_438" x1="90.8357" y1="72.7663" x2="104.568" y2="72.7663" gradientUnits="userSpaceOnUse">
<stop stop-color="#04C6CC"/>
<stop offset="1" stop-color="#00C3CC"/>
</linearGradient>
<linearGradient id="paint15_linear_62_438" x1="36.5426" y1="50.013" x2="62.9639" y2="50.013" gradientUnits="userSpaceOnUse">
<stop stop-color="#04C6CC"/>
<stop offset="1" stop-color="#00C3CC"/>
</linearGradient>
<linearGradient id="paint16_linear_62_438" x1="31.1134" y1="123.393" x2="8.62228" y2="124.48" gradientUnits="userSpaceOnUse">
<stop stop-color="#6A3BC4"/>
<stop offset="1" stop-color="#8C58DD"/>
</linearGradient>
<linearGradient id="paint17_linear_62_438" x1="4.93198" y1="92.848" x2="33.7468" y2="92.848" gradientUnits="userSpaceOnUse">
<stop stop-color="#63FFCD"/>
<stop offset="1" stop-color="#00C3CC"/>
</linearGradient>
<linearGradient id="paint18_linear_62_438" x1="7.58556" y1="147.047" x2="16.994" y2="147.047" gradientUnits="userSpaceOnUse">
<stop stop-color="#4A31BB"/>
<stop offset="1" stop-color="#1E183D"/>
</linearGradient>
<linearGradient id="paint19_linear_62_438" x1="22.1398" y1="146.702" x2="32.6304" y2="146.702" gradientUnits="userSpaceOnUse">
<stop stop-color="#4A31BB"/>
<stop offset="1" stop-color="#1E183D"/>
</linearGradient>
<linearGradient id="paint20_linear_62_438" x1="14.9465" y1="96.2789" x2="11.9774" y2="96.4225" gradientUnits="userSpaceOnUse">
<stop stop-color="#4A31BB"/>
<stop offset="1" stop-color="#1E183D"/>
</linearGradient>
<linearGradient id="paint21_linear_62_438" x1="27.8638" y1="85.6201" x2="32.0382" y2="85.6201" gradientUnits="userSpaceOnUse">
<stop stop-color="#4A31BB"/>
<stop offset="1" stop-color="#1E183D"/>
</linearGradient>
<linearGradient id="paint22_linear_62_438" x1="12.4875" y1="71.5597" x2="25.1122" y2="71.5597" gradientUnits="userSpaceOnUse">
<stop stop-color="#4A31BB"/>
<stop offset="1" stop-color="#1E183D"/>
</linearGradient>
<linearGradient id="paint23_linear_62_438" x1="54.262" y1="144.081" x2="93.9673" y2="144.081" gradientUnits="userSpaceOnUse">
<stop stop-color="#4A31BB"/>
<stop offset="1" stop-color="#1E183D"/>
</linearGradient>
<linearGradient id="paint24_linear_62_438" x1="54.2816" y1="140.108" x2="93.9673" y2="140.108" gradientUnits="userSpaceOnUse">
<stop stop-color="#04C6CC"/>
<stop offset="1" stop-color="#00C3CC"/>
</linearGradient>
<linearGradient id="paint25_linear_62_438" x1="99.4184" y1="48.7985" x2="115.889" y2="55.9054" gradientUnits="userSpaceOnUse">
<stop stop-color="#6A3BC4"/>
<stop offset="1" stop-color="#8C58DD"/>
</linearGradient>
<linearGradient id="paint26_linear_62_438" x1="105.261" y1="24.5676" x2="102.922" y2="40.176" gradientUnits="userSpaceOnUse">
<stop stop-color="#FDFFFC"/>
<stop offset="1" stop-color="#E9EAEB"/>
</linearGradient>
<linearGradient id="paint27_linear_62_438" x1="119.058" y1="41.362" x2="109.03" y2="36.8983" gradientUnits="userSpaceOnUse">
<stop stop-color="#FDFFFC"/>
<stop offset="1" stop-color="#E9EAEB"/>
</linearGradient>
<linearGradient id="paint28_linear_62_438" x1="105.217" y1="70.6448" x2="116.856" y2="70.6448" gradientUnits="userSpaceOnUse">
<stop stop-color="#6A3BC4"/>
<stop offset="1" stop-color="#8C58DD"/>
</linearGradient>
<linearGradient id="paint29_linear_62_438" x1="91.3304" y1="73.9673" x2="104.092" y2="73.9673" gradientUnits="userSpaceOnUse">
<stop stop-color="#6A3BC4"/>
<stop offset="1" stop-color="#8C58DD"/>
</linearGradient>
<linearGradient id="paint30_linear_62_438" x1="125.405" y1="26.6931" x2="127.111" y2="26.6931" gradientUnits="userSpaceOnUse">
<stop stop-color="#4A31BB"/>
<stop offset="1" stop-color="#1E183D"/>
</linearGradient>
<linearGradient id="paint31_linear_62_438" x1="112.825" y1="22.4334" x2="114.67" y2="22.4334" gradientUnits="userSpaceOnUse">
<stop stop-color="#4A31BB"/>
<stop offset="1" stop-color="#1E183D"/>
</linearGradient>
</defs>
</svg>
