<svg width="184" height="140" viewBox="0 0 184 140" fill="none" xmlns="http://www.w3.org/2000/svg">
<path d="M183.542 78.653C183.57 78.2892 183.528 77.9253 183.415 77.5615C183.359 77.3795 183.289 77.1976 183.204 77.0297C183.204 77.0157 183.19 77.0017 183.19 77.0017C183.106 76.8337 183.007 76.6658 182.895 76.4979C182.881 76.4699 182.853 76.4419 182.825 76.4139C182.712 76.2739 182.599 76.12 182.473 75.9801C182.431 75.9241 182.36 75.8821 182.318 75.8261C182.206 75.7142 182.079 75.5882 181.952 75.4763C181.854 75.3923 181.742 75.3083 181.629 75.2244C181.516 75.1404 181.432 75.0564 181.306 74.9725C181.066 74.8045 180.827 74.6506 180.56 74.4966L133.738 47.599C129.35 45.08 121.797 44.6882 116.86 46.7314L4.93162 92.9695C4.60813 93.1094 4.2987 93.2494 4.0174 93.3893C3.93301 93.4313 3.86269 93.4733 3.7783 93.5293C3.58139 93.6412 3.38448 93.7392 3.2157 93.8651C3.13131 93.9211 3.06099 93.9771 2.99066 94.0191C2.83595 94.131 2.66717 94.243 2.52652 94.3689C2.4562 94.4249 2.39994 94.4809 2.34368 94.5369C2.20303 94.6628 2.07644 94.7888 1.94986 94.9147C1.90767 94.9707 1.86547 95.0127 1.82328 95.0687C1.71076 95.2086 1.59824 95.3486 1.49978 95.4885C1.47165 95.5305 1.44352 95.5725 1.41539 95.6145C1.31694 95.7684 1.23255 95.9223 1.16223 96.0903C1.14816 96.1183 1.1341 96.1603 1.12003 96.1882C1.04971 96.3562 0.993447 96.5381 0.965317 96.72C0.965317 96.734 0.951252 96.762 0.951252 96.776C0.909057 96.9719 0.894992 97.1679 0.909057 97.3778C0.909057 97.3218 0.894992 97.2798 0.894992 97.2238L0.613694 106.782C0.5715 108.196 1.57011 109.637 3.62358 110.827L50.4175 137.71C50.7551 137.906 51.1067 138.074 51.4865 138.242C51.5286 138.256 51.5708 138.284 51.613 138.298C51.6834 138.326 51.7677 138.354 51.8381 138.382C52.0912 138.494 52.3585 138.592 52.6257 138.69C52.696 138.718 52.7664 138.746 52.8367 138.774C52.8929 138.788 52.9492 138.802 53.0055 138.83C53.1883 138.886 53.3711 138.942 53.5681 138.998C53.6806 139.026 53.779 139.068 53.8916 139.096C53.9478 139.11 54.0041 139.124 54.0603 139.138C54.215 139.18 54.3698 139.222 54.5245 139.25C54.6511 139.278 54.7636 139.306 54.8902 139.334C54.9605 139.348 55.0308 139.362 55.1011 139.376C55.2418 139.404 55.3824 139.432 55.5371 139.459C55.6497 139.473 55.7481 139.501 55.8606 139.529C55.9591 139.543 56.0575 139.557 56.156 139.571C56.2966 139.599 56.4373 139.613 56.5779 139.641C56.6623 139.655 56.7467 139.669 56.8311 139.683C56.9577 139.697 57.0983 139.711 57.2249 139.725C57.3656 139.739 57.5062 139.753 57.6469 139.767C57.7031 139.767 57.7594 139.781 57.8157 139.781C57.9844 139.795 58.1392 139.795 58.3079 139.809C58.4486 139.823 58.5892 139.823 58.7439 139.837C58.7861 139.837 58.8143 139.837 58.8565 139.851C59.0252 139.865 59.194 139.851 59.3769 139.865C59.5456 139.865 59.7144 139.879 59.8832 139.879C59.9113 139.879 59.9395 139.879 59.9676 139.879C60.0942 139.879 60.2348 139.865 60.3614 139.865C60.6005 139.865 60.8256 139.851 61.0647 139.851C61.1068 139.851 61.149 139.851 61.1912 139.851C61.2756 139.851 61.36 139.837 61.4444 139.823C61.782 139.795 62.1195 139.767 62.4571 139.739C62.5274 139.725 62.6118 139.725 62.6821 139.725C62.7524 139.711 62.8228 139.697 62.9072 139.697C63.1322 139.669 63.3713 139.627 63.5963 139.599C63.751 139.571 63.9198 139.543 64.0745 139.515C64.3136 139.473 64.5387 139.418 64.7637 139.376C64.9044 139.348 65.0591 139.306 65.1997 139.278C65.4388 139.222 65.6779 139.152 65.917 139.068C66.0296 139.026 66.1562 138.998 66.2687 138.97C66.6203 138.858 66.9578 138.732 67.2813 138.592L179.252 92.2977C179.632 92.1438 179.969 91.9759 180.293 91.7939C180.321 91.7799 180.363 91.7659 180.391 91.752C180.462 91.71 180.518 91.668 180.588 91.626C180.785 91.5141 180.982 91.3881 181.165 91.2621C181.207 91.2342 181.263 91.2062 181.32 91.1642C181.376 91.1222 181.432 91.0802 181.488 91.0242C181.601 90.9403 181.699 90.8563 181.798 90.7723C181.84 90.7304 181.896 90.6884 181.952 90.6464C182.009 90.5904 182.051 90.5344 182.107 90.4785C182.178 90.4085 182.248 90.3385 182.304 90.2685C182.332 90.2265 182.374 90.1986 182.403 90.1566C182.459 90.0866 182.515 90.0026 182.571 89.9327C182.614 89.8767 182.67 89.8207 182.698 89.7507C182.712 89.7227 182.726 89.7087 182.74 89.6808C182.825 89.5548 182.895 89.4149 182.951 89.2889C182.965 89.2609 182.979 89.2469 182.993 89.2189C182.993 89.2189 182.993 89.2189 182.993 89.2049C183.064 89.051 183.12 88.8831 183.162 88.7151C183.162 88.7011 183.162 88.6871 183.176 88.6731C183.19 88.6172 183.19 88.5612 183.204 88.4912C183.218 88.3933 183.246 88.3093 183.261 88.2113C183.261 88.1553 183.275 88.0994 183.275 88.0434L183.556 78.4851C183.556 78.5691 183.542 78.611 183.542 78.653ZM183.5 78.9609C183.5 78.9749 183.5 78.9749 183.5 78.9609C183.486 79.0169 183.486 79.0589 183.472 79.0869C183.472 79.1008 183.472 79.1288 183.457 79.1428C183.457 79.1708 183.443 79.1848 183.429 79.2128C183.443 79.1708 183.457 79.1149 183.457 79.0589C183.472 79.0449 183.486 79.0029 183.5 78.9609ZM183.218 79.8006C183.261 79.7166 183.289 79.6327 183.331 79.5487C183.317 79.6047 183.303 79.6466 183.275 79.7026C183.275 79.7166 183.261 79.7306 183.261 79.7306C183.246 79.7446 183.246 79.7586 183.246 79.7726C183.232 79.7726 183.232 79.7866 183.218 79.8006ZM183.021 80.1644C183.007 80.1784 182.993 80.2064 182.979 80.2204C182.965 80.2344 182.965 80.2344 182.951 80.2484C182.937 80.2624 182.923 80.2904 182.909 80.3044C182.951 80.2344 182.993 80.1644 183.035 80.0945C183.035 80.1225 183.021 80.1365 183.021 80.1644ZM182.656 80.6543C182.628 80.6822 182.614 80.7102 182.585 80.7382C182.571 80.7522 182.557 80.7662 182.543 80.7802C182.529 80.7942 182.529 80.7942 182.515 80.8082C182.543 80.7802 182.557 80.7522 182.585 80.7242C182.614 80.6962 182.628 80.6682 182.656 80.6543ZM182.135 81.1721C182.121 81.1721 182.121 81.186 182.121 81.186C182.107 81.2 182.093 81.214 182.079 81.214C182.079 81.214 182.065 81.228 182.051 81.228L182.037 81.242C182.065 81.228 182.107 81.2 182.135 81.1721ZM181.488 81.6899C181.474 81.7038 181.46 81.7038 181.46 81.7178H181.446C181.46 81.7038 181.474 81.6899 181.488 81.6899ZM180.701 82.1797C180.659 82.2077 180.63 82.2216 180.588 82.2496C180.588 82.2496 180.588 82.2496 180.574 82.2496C180.616 82.2356 180.644 82.2077 180.687 82.1797C180.687 82.1797 180.687 82.1797 180.701 82.1797Z" fill="#00BFE0"/>
<path d="M183.542 78.653C183.654 77.1976 182.67 75.7002 180.546 74.4826L133.738 47.599C129.35 45.08 121.797 44.6882 116.86 46.7314L4.93159 92.9695C2.23113 94.0891 0.880901 95.6984 0.923095 97.3498C0.923095 97.2938 0.90903 97.2518 0.90903 97.1959L0.627732 106.754C0.585538 108.168 1.58415 109.609 3.63762 110.799L50.4316 137.682C50.7691 137.878 51.1207 138.046 51.5005 138.214C51.5427 138.228 51.5849 138.256 51.6271 138.27C51.6974 138.298 51.7818 138.326 51.8521 138.354C52.1053 138.466 52.3725 138.564 52.6398 138.662C52.7101 138.69 52.7804 138.718 52.8507 138.746C52.907 138.76 52.9632 138.774 53.0195 138.802C53.2023 138.858 53.3852 138.914 53.5821 138.97C53.6946 138.998 53.7931 139.04 53.9056 139.068C53.9619 139.082 54.0181 139.096 54.0744 139.11C54.2291 139.152 54.3838 139.194 54.5385 139.222C54.6651 139.25 54.7776 139.278 54.9042 139.306C54.9745 139.32 55.0448 139.334 55.1152 139.348C55.2558 139.376 55.3965 139.404 55.5512 139.432C55.6637 139.446 55.7622 139.473 55.8747 139.501C55.9731 139.515 56.0716 139.529 56.17 139.543C56.3107 139.571 56.4513 139.585 56.592 139.613C56.6764 139.627 56.7608 139.641 56.8452 139.655C56.9717 139.669 57.1124 139.683 57.239 139.697C57.3796 139.711 57.5203 139.725 57.6609 139.739C57.7172 139.739 57.7734 139.753 57.8297 139.753C57.9985 139.767 58.1532 139.767 58.322 139.781C58.4626 139.795 58.6033 139.795 58.758 139.809C58.8002 139.809 58.8283 139.809 58.8705 139.823C59.0393 139.837 59.2081 139.823 59.3909 139.837C59.5597 139.837 59.7285 139.851 59.8972 139.851C59.9254 139.851 59.9535 139.851 59.9816 139.851C60.1082 139.851 60.2489 139.837 60.3754 139.837C60.6146 139.837 60.8537 139.823 61.0787 139.823C61.1209 139.823 61.1631 139.823 61.2053 139.823C61.2897 139.823 61.3741 139.809 61.4584 139.795C61.796 139.767 62.1336 139.739 62.4711 139.711C62.5414 139.697 62.6258 139.697 62.6962 139.697C62.7665 139.683 62.8368 139.669 62.9212 139.669C63.1462 139.641 63.3853 139.599 63.6104 139.571C63.7651 139.543 63.9339 139.515 64.0886 139.487C64.3277 139.446 64.5527 139.39 64.7778 139.348C64.9184 139.32 65.0731 139.278 65.2138 139.25C65.4529 139.194 65.692 139.124 65.9311 139.04C66.0436 138.998 66.1702 138.97 66.2827 138.928C66.6343 138.816 66.9719 138.69 67.2954 138.55L179.252 92.2977C179.632 92.1438 179.969 91.9759 180.293 91.7939C180.321 91.7799 180.363 91.7659 180.391 91.752C180.462 91.71 180.518 91.668 180.588 91.626C180.785 91.5141 180.982 91.3881 181.165 91.2621C181.207 91.2342 181.263 91.2062 181.32 91.1642C181.376 91.1222 181.432 91.0802 181.488 91.0242C181.601 90.9403 181.699 90.8563 181.798 90.7723C181.84 90.7304 181.896 90.6884 181.952 90.6464C182.009 90.5904 182.051 90.5344 182.107 90.4785C182.178 90.4085 182.248 90.3385 182.304 90.2685C182.332 90.2265 182.374 90.1986 182.403 90.1566C182.459 90.0866 182.515 90.0026 182.571 89.9327C182.614 89.8767 182.67 89.8207 182.698 89.7507C182.712 89.7227 182.726 89.7087 182.74 89.6808C182.825 89.5548 182.895 89.4149 182.951 89.2889C182.965 89.2609 182.979 89.2469 182.993 89.2189C182.993 89.2189 182.993 89.2189 182.993 89.2049C183.064 89.051 183.12 88.8831 183.162 88.7151C183.162 88.7011 183.162 88.6871 183.176 88.6731C183.19 88.6172 183.19 88.5612 183.204 88.4912C183.218 88.3933 183.246 88.3093 183.261 88.2113C183.261 88.1553 183.275 88.0994 183.275 88.0434L183.556 78.4851C183.556 78.5691 183.542 78.611 183.542 78.653ZM183.5 78.9749C183.486 79.0309 183.486 79.1008 183.471 79.1568C183.471 79.1848 183.457 79.1988 183.443 79.2268C183.457 79.1428 183.471 79.0589 183.5 78.9749ZM180.574 82.2496C180.616 82.2216 180.659 82.2077 180.701 82.1797C180.659 82.1937 180.616 82.2216 180.574 82.2496ZM181.446 81.7178C181.46 81.7038 181.474 81.7038 181.488 81.6899C181.474 81.6899 181.474 81.7038 181.446 81.7178C181.46 81.7038 181.446 81.7178 181.446 81.7178ZM182.037 81.256C182.065 81.228 182.093 81.2 182.135 81.1721C182.121 81.186 182.093 81.214 182.079 81.228C182.065 81.242 182.051 81.242 182.037 81.256ZM182.515 80.7942C182.557 80.7382 182.599 80.6962 182.642 80.6403C182.614 80.6682 182.599 80.6962 182.571 80.7242C182.557 80.7522 182.543 80.7802 182.515 80.7942ZM182.923 80.3044C182.965 80.2344 183.007 80.1644 183.05 80.0945C183.021 80.1365 183.007 80.1784 182.979 80.2204C182.965 80.2484 182.937 80.2764 182.923 80.3044ZM183.232 79.7586C183.232 79.7726 183.218 79.7726 183.218 79.7866C183.261 79.7026 183.289 79.6187 183.331 79.5347C183.317 79.5907 183.303 79.6327 183.275 79.6886C183.261 79.7166 183.246 79.7446 183.232 79.7586ZM1.58415 99.2251C1.65447 99.323 1.73886 99.421 1.82325 99.5329C1.73886 99.435 1.65447 99.323 1.58415 99.2251ZM0.93716 97.6017C0.951225 97.6997 0.96529 97.7976 0.99342 97.8956C0.96529 97.7976 0.951225 97.6997 0.93716 97.6017ZM1.04968 98.1475C1.07781 98.2454 1.12 98.3434 1.1622 98.4554C1.12 98.3434 1.07781 98.2454 1.04968 98.1475ZM1.26065 98.6933C1.31691 98.7912 1.37317 98.8892 1.42943 99.0012C1.37317 98.8892 1.31691 98.7912 1.26065 98.6933ZM2.00609 99.7569C2.10455 99.8548 2.21707 99.9668 2.31552 100.065C2.21707 99.9668 2.10455 99.8548 2.00609 99.7569ZM3.17348 100.764C3.39852 100.918 3.65169 101.086 3.91892 101.24C3.65169 101.072 3.41258 100.918 3.17348 100.764ZM2.54056 100.261C2.66714 100.373 2.82186 100.485 2.96251 100.583C2.82186 100.485 2.66714 100.373 2.54056 100.261Z" fill="#BFBFBF"/>
<path d="M183.556 78.5273L183.275 88.0857C183.232 89.681 181.868 91.2204 179.252 92.298L179.533 82.7397C182.149 81.6621 183.514 80.1227 183.556 78.5273Z" fill="#0AA0D0"/>
<path d="M183.556 78.5273L183.274 88.0857C183.274 88.1416 183.274 88.1976 183.26 88.2536L183.542 78.6953C183.542 78.6393 183.556 78.5833 183.556 78.5273Z" fill="#0AA0D0"/>
<path d="M183.542 78.6953L183.26 88.2536C183.246 88.4216 183.218 88.5895 183.176 88.7574L183.457 79.1991C183.5 79.0312 183.528 78.8632 183.542 78.6953Z" fill="#0AA0D0"/>
<path d="M183.457 79.1992L183.176 88.7575C183.134 88.9255 183.078 89.0794 183.007 89.2473L183.289 79.689C183.359 79.5211 183.415 79.3672 183.457 79.1992Z" fill="#0AA0D0"/>
<path d="M183.289 79.6885L183.007 89.2468C182.937 89.4007 182.853 89.5686 182.754 89.7226L183.035 80.1643C183.12 79.9964 183.204 79.8424 183.289 79.6885Z" fill="#0AA0D0"/>
<path d="M183.021 80.1504L182.74 89.7087C182.642 89.8626 182.529 90.0306 182.388 90.1845L182.67 80.6262C182.81 80.4723 182.923 80.3183 183.021 80.1504Z" fill="#0AA0D0"/>
<path d="M182.684 80.626L182.403 90.1843C182.262 90.3522 182.107 90.5062 181.938 90.6601L182.22 81.1018C182.388 80.9479 182.543 80.7939 182.684 80.626Z" fill="#0AA0D0"/>
<path d="M182.22 81.1025L181.938 90.6608C181.756 90.8288 181.545 90.9967 181.32 91.1646L181.601 81.6063C181.826 81.4524 182.037 81.2845 182.22 81.1025Z" fill="#0AA0D0"/>
<path d="M181.601 81.6201L181.32 91.1785C181.038 91.3744 180.729 91.5703 180.391 91.7662L180.673 82.2079C181.024 82.012 181.334 81.816 181.601 81.6201Z" fill="#0AA0D0"/>
<path d="M180.687 82.1934L180.405 91.7517C180.054 91.9476 179.674 92.1295 179.252 92.2975L179.533 82.7392C179.955 82.5712 180.335 82.3893 180.687 82.1934Z" fill="#0AA0D0"/>
<path d="M0.627732 106.755L0.90903 97.1963C0.866836 98.6097 1.86544 100.051 3.91892 101.241L3.63762 110.799C1.58415 109.609 0.585538 108.168 0.627732 106.755Z" fill="#0CBBEA"/>
<path d="M3.91894 101.226L3.63764 110.784C1.5701 109.595 0.585555 108.153 0.62775 106.74L0.909048 97.1816C0.866853 98.6091 1.86546 100.051 3.91894 101.226Z" fill="#0CBBEA"/>
<path d="M50.7128 128.11L50.4456 137.668L3.63762 110.785L3.91892 101.227L50.7128 128.11Z" fill="#0CBBEA"/>
<path d="M179.533 82.7393L179.252 92.2976L67.3234 138.536L67.6047 128.977L179.533 82.7393Z" fill="url(#paint0_linear_62_883)"/>
<path d="M67.6048 128.978L67.3235 138.536C62.3867 140.58 54.8198 140.188 50.4316 137.669L50.7129 128.11C55.1011 130.629 62.668 131.021 67.6048 128.978Z" fill="#0CBBEA"/>
<path d="M67.6047 128.978L67.3234 138.536C65.945 139.11 64.3698 139.487 62.7101 139.683L62.9914 130.125C64.6511 129.929 66.2263 129.551 67.6047 128.978Z" fill="#0CBBEA"/>
<path d="M62.9915 130.125L62.7102 139.683C62.2179 139.739 61.7116 139.781 61.2052 139.809L61.4865 130.251C62.0069 130.223 62.4992 130.181 62.9915 130.125Z" fill="#0CBBEA"/>
<path d="M61.5006 130.251L61.2193 139.809C60.8114 139.837 60.4035 139.837 59.9957 139.837L60.277 130.279C60.6848 130.293 61.0927 130.279 61.5006 130.251Z" fill="#0CBBEA"/>
<path d="M60.277 130.294L59.9957 139.852C59.63 139.852 59.2502 139.852 58.8846 139.824L59.1659 130.266C59.5315 130.28 59.9113 130.294 60.277 130.294Z" fill="#0CBBEA"/>
<path d="M59.1658 130.265L58.8845 139.824C58.5329 139.81 58.1953 139.782 57.8437 139.754L58.125 130.195C58.4766 130.223 58.8142 130.251 59.1658 130.265Z" fill="#0CBBEA"/>
<path d="M58.1251 130.195L57.8438 139.753C57.5062 139.725 57.1827 139.683 56.8451 139.641L57.1264 130.083C57.464 130.139 57.8016 130.167 58.1251 130.195Z" fill="#0CBBEA"/>
<path d="M57.1405 130.097L56.8592 139.655C56.5357 139.613 56.2122 139.571 55.8887 139.515L56.17 129.957C56.4794 129.999 56.8029 130.055 57.1405 130.097Z" fill="#0CBBEA"/>
<path d="M56.17 129.943L55.8887 139.501C55.5652 139.445 55.2417 139.375 54.9183 139.305L55.1996 129.747C55.509 129.831 55.8325 129.887 56.17 129.943Z" fill="#0CBBEA"/>
<path d="M55.1854 129.762L54.9042 139.32C54.5666 139.25 54.2291 139.166 53.9056 139.068L54.1869 129.51C54.5103 129.608 54.8479 129.692 55.1854 129.762Z" fill="#0CBBEA"/>
<path d="M54.1868 129.509L53.9055 139.068C53.5398 138.97 53.1882 138.858 52.8506 138.746L53.1319 129.188C53.4695 129.313 53.8211 129.411 54.1868 129.509Z" fill="#0CBBEA"/>
<path d="M53.1319 129.188L52.8506 138.746C52.4287 138.606 52.0208 138.438 51.627 138.27L51.9083 128.712C52.3021 128.88 52.71 129.048 53.1319 129.188Z" fill="#0CBBEA"/>
<path d="M51.9083 128.712L51.627 138.27C51.2051 138.088 50.8113 137.893 50.4456 137.669L50.7269 128.11C51.0926 128.334 51.4864 128.53 51.9083 128.712Z" fill="#0CBBEA"/>
<path d="M3.91894 101.226C-0.46931 98.7073 -0.0192331 95.0127 4.93161 92.9695L116.86 46.7314C121.797 44.6882 129.364 45.08 133.738 47.599L180.532 74.4826C184.92 77.0017 184.47 80.6962 179.533 82.7394L67.6048 128.978C62.6681 131.021 55.1011 130.629 50.7129 128.11L3.91894 101.226Z" fill="url(#paint1_linear_62_883)"/>
<path d="M75.5374 118.566C72.9354 118.566 70.3475 118.02 68.8144 117.124L28.645 94.061C26.6478 92.9135 26.8306 89.9746 28.9685 89.093L118.984 51.8113C120.376 51.2376 122.247 50.9297 124.258 50.9297C126.86 50.9297 129.448 51.4755 130.995 52.3711L171.151 75.4482C173.148 76.5958 172.965 79.5346 170.827 80.4163L80.8258 117.67C79.4334 118.244 77.5487 118.566 75.5374 118.566Z" fill="#5488F5"/>
<path d="M30.5015 108.532C29.4607 106.335 31.4017 104.921 34.8476 105.383C38.2794 105.845 41.9222 108.014 42.963 110.211C44.0038 112.408 42.0628 113.822 38.631 113.36C35.1851 112.912 31.5423 110.743 30.5015 108.532ZM44.3273 110.407C43.0474 107.72 38.6029 105.075 34.4115 104.501C30.2061 103.928 27.8432 105.663 29.1091 108.35C30.389 111.037 34.8335 113.682 39.0248 114.256C43.2302 114.829 45.6072 113.108 44.3273 110.407Z" fill="#13B5FF"/>
<path d="M42.1192 110.113C41.219 108.21 38.0685 106.334 35.1008 105.929C32.119 105.523 30.4453 106.74 31.3454 108.658C32.2456 110.561 35.3961 112.436 38.3638 112.842C41.3315 113.234 43.0193 112.016 42.1192 110.113Z" fill="#13B5FF"/>
<path d="M124.258 50.916C122.247 50.916 120.376 51.2379 118.984 51.7977L28.9685 89.0933C26.8306 89.975 26.6478 92.9138 28.645 94.0614L30.1078 94.9011C30.1781 94.9011 30.2203 94.9151 30.2203 94.9151C30.2203 94.9151 29.503 91.9902 32.9348 90.5347C36.3526 89.0793 112.472 57.4935 118.295 55.2683C124.118 53.0292 125.834 52.4834 132.585 53.2951L130.995 52.3854C129.434 51.4758 126.86 50.916 124.258 50.916Z" fill="url(#paint2_linear_62_883)"/>
<path d="M127.859 32.079C127.451 28.7902 125.074 16.0832 112.05 5.51724C103.977 -1.04622 98.6038 -0.3325 95.5377 1.41682C93.4842 2.57837 92.0777 4.41167 91.2479 6.11901C88.7865 3.96384 84.5811 1.12294 79.8694 1.50079C77.7315 1.68272 75.9593 2.56438 74.7497 4.08979C73.9762 5.06941 73.512 6.17498 73.2448 7.26656C70.263 4.43965 66.1842 2.32647 62.3867 4.77552C62.1335 4.94346 61.8944 5.12539 61.6694 5.30732L61.6553 5.29332L61.0365 5.90909C61.0083 5.93708 60.9661 5.96506 60.938 6.00705L51.7395 15.1595L126.016 67.0095L135.243 57.829H135.229C135.777 57.3392 136.27 56.7654 136.706 56.0937C139.983 50.8597 138.562 41.1754 127.859 32.079Z" fill="url(#paint3_linear_62_883)"/>
<path d="M118.674 41.2172C118.267 37.9284 115.89 25.2213 102.866 14.6554C94.7923 8.10597 89.4195 8.81969 86.3533 10.569C84.2998 11.7306 82.8934 13.5639 82.0635 15.2712C79.6022 13.116 75.3968 10.2751 70.685 10.653C68.5472 10.8349 66.775 11.7166 65.5654 13.242C64.7918 14.2216 64.3277 15.3272 64.0604 16.4188C61.0787 13.5918 56.9999 11.4787 53.2023 13.9277C51.0223 15.3412 49.869 17.6643 49.9674 20.4772C50.1362 25.6132 54.3416 31.5049 60.2067 34.7797L60.2348 34.7936C68.2518 39.118 79.2083 45.6814 89.7992 52.021C101.642 59.1162 112.838 65.8197 117.648 67.9748C118.871 68.5206 120.109 68.7865 121.276 68.7865C123.794 68.7865 126.073 67.555 127.521 65.2319C130.784 60.0119 129.364 50.3276 118.674 41.2172Z" fill="#174B75"/>
<path d="M61.0645 33.2262C78.294 42.5047 109.518 62.391 118.365 66.3514C127.226 70.3119 133.414 55.6876 116.944 42.1128C116.944 42.1128 116.058 27.6564 101.712 16.0269C87.3659 4.39739 82.6682 16.9086 82.9355 18.6719C82.9355 18.6719 77.2673 11.8845 70.7974 12.4163C64.3276 12.9481 65.5794 20.967 65.5794 20.967C65.5794 20.967 59.4752 11.9825 54.1587 15.4111C48.8562 18.8538 52.7522 28.566 61.0645 33.2262Z" fill="url(#paint4_linear_62_883)"/>
<defs>
<linearGradient id="paint0_linear_62_883" x1="67.3266" y1="110.639" x2="179.536" y2="110.639" gradientUnits="userSpaceOnUse">
<stop stop-color="#0CBBEA"/>
<stop offset="0.4317" stop-color="#7DF3F5"/>
<stop offset="1" stop-color="#0AA0D0"/>
</linearGradient>
<linearGradient id="paint1_linear_62_883" x1="0.906871" y1="87.8589" x2="183.554" y2="87.8589" gradientUnits="userSpaceOnUse">
<stop stop-color="#5488F5"/>
<stop offset="0.4317" stop-color="#7DF3F5"/>
<stop offset="1" stop-color="#0AA0D0"/>
</linearGradient>
<linearGradient id="paint2_linear_62_883" x1="27.2542" y1="72.9124" x2="132.576" y2="72.9124" gradientUnits="userSpaceOnUse">
<stop stop-color="#5488F5"/>
<stop offset="0.4317" stop-color="#7DF3F5"/>
<stop offset="1" stop-color="#0AA0D0"/>
</linearGradient>
<linearGradient id="paint3_linear_62_883" x1="121.878" y1="10.1032" x2="98.4346" y2="32.1007" gradientUnits="userSpaceOnUse">
<stop stop-color="#7DF3F5"/>
<stop offset="1" stop-color="#5488F5"/>
</linearGradient>
<linearGradient id="paint4_linear_62_883" x1="51.7392" y1="39.0757" x2="127.246" y2="39.0757" gradientUnits="userSpaceOnUse">
<stop stop-color="#0AA0D0"/>
<stop offset="1" stop-color="#5488F5"/>
</linearGradient>
</defs>
</svg>
