<svg width="51" height="51" viewBox="0 0 51 51" fill="none" xmlns="http://www.w3.org/2000/svg">
<circle cx="25.7136" cy="25.0461" r="25" fill="#CD181D"/>
<path d="M18.2199 21.1962L19.9886 19.4312L24.1586 23.6012L31.4524 16.3062L33.2211 18.0749L24.1586 27.1349L18.2199 21.1962Z" fill="white"/>
<path d="M36.9636 12.5461H14.4636C13.8012 12.5481 13.1665 12.8121 12.698 13.2806C12.2296 13.749 11.9656 14.3837 11.9636 15.0461L11.9686 30.0511C11.9699 30.7125 12.2332 31.3463 12.7009 31.8139C13.1685 32.2815 13.8023 32.5448 14.4636 32.5461H23.2136V35.0461L20.7186 35.0511L20.7136 37.5461H30.7136L30.7186 35.0511L28.2136 35.0461V32.5461H36.9636C37.6261 32.5442 38.2608 32.2801 38.7292 31.8117C39.1976 31.3433 39.4616 30.7086 39.4636 30.0461V15.0461C39.4616 14.3837 39.1976 13.749 38.7292 13.2806C38.2608 12.8121 37.6261 12.5481 36.9636 12.5461ZM36.9636 30.0461H14.4636V15.0461H36.9636V30.0461Z" fill="white"/>
</svg>
