<svg width="51" height="51" viewBox="0 0 51 51" fill="none" xmlns="http://www.w3.org/2000/svg">
<circle cx="25.2936" cy="25.3418" r="25" fill="#464545"/>
<path d="M36.753 19.5536C36.7713 19.806 36.7713 20.0585 36.7713 20.3109C36.7713 28.0101 30.822 36.8814 19.9484 36.8814C16.5985 36.8814 13.4866 35.9257 10.8688 34.267C11.3448 34.321 11.8024 34.3391 12.2967 34.3391C15.0608 34.3391 17.6053 33.4195 19.6372 31.8508C17.0378 31.7967 14.8594 30.1198 14.1089 27.8118C14.475 27.8659 14.8411 27.902 15.2256 27.902C15.7564 27.902 16.2873 27.8298 16.7816 27.7037C14.0723 27.1627 12.0403 24.8187 12.0403 21.9878V21.9157C12.8275 22.3485 13.7428 22.6189 14.7129 22.6549C13.1204 21.6091 12.077 19.8241 12.077 17.8046C12.077 16.7228 12.3698 15.7311 12.8824 14.8656C15.793 18.3996 20.1681 20.7076 25.0739 20.96C24.9824 20.5273 24.9275 20.0766 24.9275 19.6258C24.9275 16.4162 27.5635 13.8018 30.8402 13.8018C32.5426 13.8018 34.0803 14.505 35.1603 15.6409C36.4966 15.3885 37.778 14.9016 38.913 14.2345C38.4736 15.5869 37.54 16.7228 36.3136 17.444C37.5035 17.3178 38.6567 16.9932 39.7184 16.5425C38.9131 17.6964 37.9062 18.7241 36.753 19.5536V19.5536Z" fill="white"/>
</svg>
