<svg width="49" height="49" viewBox="0 0 49 49" fill="none" xmlns="http://www.w3.org/2000/svg">
<path d="M14.6485 31.3843C12.9492 31.3843 11.567 32.7665 11.567 34.4658C11.567 36.1651 12.9492 37.5473 14.6485 37.5473C16.3478 37.5473 17.73 36.1651 17.73 34.4658C17.73 32.7665 16.3478 31.3843 14.6485 31.3843ZM14.6485 36.0066C13.7987 36.0066 13.1077 35.3156 13.1077 34.4658C13.1077 33.616 13.7987 32.925 14.6485 32.925C15.4983 32.925 16.1892 33.616 16.1892 34.4658C16.1892 35.3156 15.4983 36.0066 14.6485 36.0066Z" fill="#D8454A"/>
<path d="M12.3831 30.439C13.7674 29.658 15.531 29.658 16.9153 30.439L17.4907 30.764L21.2903 25.9299L20.5932 25.4684C18.8237 24.2984 16.7687 23.6797 14.6488 23.6797C12.5289 23.6797 10.474 24.2984 8.70519 25.4684L8.00806 25.9299L11.8077 30.764L12.3831 30.439ZM19.0214 26.3219L17.0738 28.802C16.3082 28.4739 15.4814 28.3019 14.6488 28.3019C13.8162 28.3019 12.9894 28.4739 12.2245 28.8013L10.2769 26.3213C12.9595 24.8761 16.3382 24.8761 19.0214 26.3219V26.3219Z" fill="#D8454A"/>
<path d="M10.6222 36.7306C10.2322 36.0387 10.0258 35.2552 10.0258 34.4649C10.0258 33.6746 10.2322 32.8911 10.6222 32.1992L10.9472 31.6238L6.11309 27.8252L5.65155 28.5216C4.48154 30.2894 3.86285 32.345 3.86285 34.4649C3.86285 36.5848 4.48156 38.6405 5.65155 40.4086L6.11309 41.105L10.9472 37.3064L10.6222 36.7306ZM8.98442 36.8892L6.50511 38.8375C5.78185 37.4972 5.40351 36.0001 5.40351 34.4649C5.40351 32.9297 5.78182 31.4326 6.50511 30.0923L8.98512 32.0399C8.65702 32.8055 8.48506 33.6323 8.48506 34.4649C8.48506 35.2975 8.65702 36.1244 8.98443 36.8892H8.98442Z" fill="#D8454A"/>
<path d="M16.9138 38.492C15.5295 39.273 13.7659 39.273 12.3816 38.492L11.8062 38.167L8.00757 43.0011L8.70401 43.4626C10.4725 44.6327 12.5281 45.2513 14.648 45.2513C16.7679 45.2513 18.8236 44.6326 20.5916 43.4626L21.2881 43.0011L17.4894 38.167L16.9138 38.492ZM10.2755 42.6091L12.2231 40.1291C13.7532 40.7853 15.5426 40.7853 17.0727 40.1291L19.0203 42.6091C16.3391 44.0549 12.957 44.0549 10.2755 42.6091Z" fill="#D8454A"/>
<path d="M25.4338 34.4653C25.4338 32.3454 24.8151 30.2897 23.6451 28.5216L23.1835 27.8252L18.3494 31.6238L18.6744 32.1992C19.0644 32.8915 19.2708 33.675 19.2708 34.4653C19.2708 35.2556 19.0644 36.0391 18.6744 36.731L18.3494 37.3064L23.1835 41.105L23.6451 40.4086C24.8151 38.6408 25.4338 36.5852 25.4338 34.4653ZM22.7914 38.8379L20.3114 36.8903C20.6395 36.1247 20.8115 35.2979 20.8115 34.4653C20.8115 33.6327 20.6395 32.8058 20.3121 32.041L22.7921 30.0934C23.5147 31.433 23.893 32.9301 23.893 34.4653C23.893 36.0005 23.5147 37.4976 22.7914 38.8379H22.7914Z" fill="#D8454A"/>
<path d="M46.2341 12.8947H21.5335L45.7771 6.68693C46.6067 6.51359 47.1432 5.69301 46.9736 4.8573L46.3474 1.80571C46.2641 1.39886 46.0268 1.04909 45.6808 0.822092C45.3366 0.596481 44.9242 0.517726 44.4868 0.610242L10.2141 9.53785C9.1964 9.80301 8.48518 10.7227 8.48518 11.7743V22.0622C3.9269 24.3362 0.781372 29.0348 0.781372 34.4658C0.781372 42.1118 7.00218 48.3326 14.6482 48.3326C17.9403 48.3326 20.9639 47.1747 23.3443 45.2511H46.2338C47.5081 45.2511 48.545 44.2142 48.545 42.94V15.2063C48.545 13.932 47.5083 12.8947 46.2341 12.8947ZM47.0045 15.2058V17.517H46.1402L44.9076 14.4355H46.234C46.6591 14.4355 47.0045 14.7815 47.0045 15.2058ZM36.8354 7.38653L35.0766 7.83706L36.4932 4.28882L38.2589 3.829L36.8354 7.38653ZM40.1109 3.34577L42.5523 2.7102L41.124 6.28803L38.6842 6.91259L40.1109 3.34577ZM33.2284 8.31028L30.7879 8.93484L32.1993 5.40588L34.6415 4.77032L33.2284 8.31028ZM28.939 9.4081L27.1808 9.85794L28.5823 6.34721L30.3473 5.88808L28.939 9.4081ZM25.333 10.3318L22.8925 10.9568L24.2884 7.46627L26.7306 6.8307L25.333 10.3318ZM21.0432 11.4297L18.9426 11.9676L20.3286 8.49706L22.4364 7.9485L21.0432 11.4297ZM17.0943 12.4411L16.1891 12.6729V9.57457L18.4765 8.9789L17.0943 12.4411ZM16.1891 14.4355H16.9041L18.1337 17.517H16.1891L16.1891 14.4355ZM19.7931 17.517L18.5636 14.4355H20.7522L21.9849 17.517H19.7931ZM23.6439 17.517L22.4113 14.4355H24.2994L25.529 17.517H23.6439ZM27.1888 17.517L25.9592 14.4355H28.1479L29.3805 17.517H27.1888ZM31.0396 17.517L29.807 14.4355H32.0032L33.2328 17.517H31.0396ZM34.8926 17.517L33.663 14.4355H35.8517L37.0843 17.517H34.8926ZM38.7434 17.517L37.5108 14.4355H39.3996L40.6298 17.517H38.7434ZM42.2895 17.517L41.0593 14.4355H43.2474L44.48 17.517H42.2895ZM44.838 2.11554L45.4281 5.18641L42.9722 5.81475L44.4043 2.22803L44.838 2.11554ZM10.6022 11.0291L14.6481 9.97598V17.5171H10.0258V11.7746C10.0258 11.4242 10.2631 11.1175 10.6022 11.0291ZM2.32201 34.4654C2.32201 27.6692 7.85193 22.1393 14.6481 22.1393C21.4443 22.1393 26.9742 27.6692 26.9742 34.4654C26.9742 41.2615 21.4443 46.7915 14.6481 46.7915C7.85193 46.7915 2.32201 41.2615 2.32201 34.4654ZM46.2337 43.7099H24.9545C27.1601 41.2533 28.515 38.0184 28.515 34.4654C28.515 26.8193 22.2942 20.5985 14.6482 20.5985C13.0259 20.5985 11.4741 20.8936 10.0259 21.4074V19.0577H47.0042V42.9395C47.0042 43.3646 46.6588 43.7099 46.2337 43.7099Z" fill="#D8454A"/>
<path d="M30.056 42.1694H45.4636V32.9248H30.056V42.1694ZM31.5968 34.4656H43.9229V40.6286H31.5968V34.4656Z" fill="#D8454A"/>
<path d="M30.056 31.3832H45.4636V22.1387H30.056V31.3832ZM31.5968 23.6794H43.9229V29.8425H31.5968V23.6794Z" fill="#D8454A"/>
</svg>
