<svg width="50" height="51" viewBox="0 0 50 51" fill="none" xmlns="http://www.w3.org/2000/svg">
<circle cx="25" cy="25.4653" r="25" fill="white"/>
<path d="M7.82759 14.7258L8.36644 15.2646L7.82759 15.8035C7.66641 15.9647 7.66641 16.2321 7.82759 16.3933C7.98878 16.5545 8.25623 16.5545 8.41742 16.3933L8.95627 15.8545L9.49512 16.3933C9.6563 16.5545 9.92376 16.5545 10.0849 16.3933C10.2461 16.2321 10.2461 15.9647 10.0849 15.8035L9.54609 15.2646L10.0849 14.7258C10.2461 14.5646 10.2461 14.2972 10.0849 14.136C9.92376 13.9748 9.6563 13.9748 9.49512 14.136L8.95627 14.6748L8.41762 14.1358C8.25643 13.9746 7.98898 13.9746 7.82779 14.1358C7.66641 14.2972 7.66246 14.5607 7.82759 14.7258V14.7258Z" fill="#CA151A"/>
<path d="M28.1673 27.0761H36.9219C37.0722 27.0761 37.2166 26.9926 37.289 26.8591C37.3613 26.7255 37.3558 26.5588 37.2722 26.4308L34.2354 21.714C34.1575 21.5973 34.024 21.5249 33.8851 21.5249L28.1671 21.5252C27.9392 21.5252 27.7501 21.7143 27.7501 21.9422V26.6591C27.7501 26.887 27.9392 27.0761 28.1671 27.0761L28.1673 27.0761ZM28.5846 22.3596H33.6517L36.1547 26.242H28.5843L28.5846 22.3596Z" fill="#CA151A"/>
<path d="M44.2814 30.2191V30.2079V29.6238C44.2814 29.1564 44.0479 28.7282 43.6585 28.4835L39.5646 25.8749L35.3375 20.0737C35.0816 19.729 34.6758 19.5231 34.2419 19.5231H21.2208V16.8087C22.2164 17.2981 23.3011 17.554 24.3967 17.554C26.032 17.554 27.6673 16.9978 28.9912 15.8798C29.0803 15.8019 29.1359 15.6963 29.1359 15.5795C29.1414 15.4628 29.097 15.3516 29.0135 15.2681L24.5917 10.8463L25.5429 9.89505C25.7041 9.73387 25.7041 9.46681 25.5429 9.30535C25.3817 9.14417 25.1146 9.14417 24.9532 9.30535L24.002 10.2565L19.5802 5.83474C19.4966 5.75121 19.4022 5.70679 19.2687 5.71239C19.1519 5.71797 19.0407 5.76798 18.9684 5.85708C16.6713 8.56594 16.7657 12.6151 19.1296 15.2239L16.126 19.5289H11.5595C10.9254 19.5289 10.3692 19.9795 10.2413 20.5969L8.96747 26.6596C8.96189 26.6875 8.9563 26.7152 8.9563 26.7431V35.1424C8.9563 35.8877 9.56249 36.4938 10.3078 36.4938H11.8375C11.9822 38.2179 13.4284 39.5809 15.1913 39.5809C16.9546 39.5809 18.4008 38.2182 18.5452 36.4938H32.9401C33.0848 38.2179 34.531 39.5809 36.2939 39.5809C38.0571 39.5809 39.5033 38.2182 39.6477 36.4938H42.9295C43.6749 36.4938 44.281 35.8876 44.281 35.1424V30.2364C44.2816 30.2308 44.2816 30.2252 44.2816 30.2196L44.2814 30.2191ZM34.6643 20.5633L38.9416 26.4258C38.9749 26.4702 39.0084 26.5037 39.0528 26.5314L43.2135 29.1847C43.3582 29.2791 43.447 29.4406 43.447 29.6185V29.802L26.5935 29.8023V20.3525H34.2418C34.4089 20.3525 34.5645 20.4358 34.6645 20.5637L34.6643 20.5633ZM17.1493 33.4729C16.5987 33.0779 15.9257 32.8444 15.1913 32.8444C14.8186 32.8444 14.4627 32.9056 14.129 33.0168V30.6417H25.7592V33.4785H17.149L17.1493 33.4729ZM14.1293 29.802V20.3522H25.7545V29.802H14.1293ZM19.3187 6.74111L28.0955 15.5179C25.6258 17.3144 22.1328 17.0697 19.9466 14.8894C17.7607 12.7091 17.5213 9.21053 19.318 6.74046L19.3187 6.74111ZM19.7246 15.8076C19.936 15.9911 20.1584 16.1635 20.3864 16.3193V19.5176H17.1381L19.7246 15.8076ZM11.0586 20.7579C11.1086 20.5244 11.3201 20.3518 11.5592 20.3518H13.2945V29.8015L9.79596 29.8018V26.7815L11.0586 20.7579ZM9.79596 35.1414V30.6361H13.2945V33.4282C12.5492 33.9343 12.0263 34.7352 11.8707 35.6585L10.3134 35.6588C10.0295 35.6532 9.796 35.4253 9.796 35.1414L9.79596 35.1414ZM15.1913 38.7402C13.7951 38.7402 12.6604 37.6055 12.6604 36.2093C12.6604 34.8132 13.7951 33.6784 15.1913 33.6784C16.5874 33.6784 17.7222 34.8131 17.7222 36.2093C17.7219 37.6055 16.5872 38.7402 15.1913 38.7402ZM36.2941 38.7402C34.898 38.7402 33.7632 37.6055 33.7632 36.2093C33.7632 34.8132 34.8979 33.6784 36.2941 33.6784C37.6903 33.6784 38.8251 34.8131 38.8251 36.2093C38.8251 37.6055 37.6904 38.7402 36.2941 38.7402V38.7402ZM42.9298 35.6532H39.6148C39.3477 34.057 37.9627 32.8388 36.2941 32.8388C34.6256 32.8388 33.2406 34.057 32.9735 35.6532H18.5121C18.4285 35.1581 18.245 34.702 17.9726 34.3017H26.1767C26.4046 34.3017 26.5937 34.1126 26.5937 33.8846V30.6308H43.4415V35.1361C43.4471 35.4252 43.2136 35.6532 42.9298 35.6532L42.9298 35.6532Z" fill="#CA151A"/>
<path d="M36.2933 34.6572C35.4368 34.6572 34.7416 35.3525 34.7416 36.209C34.7416 37.0655 35.4369 37.7608 36.2933 37.7608C37.1499 37.7608 37.8451 37.0655 37.8451 36.209C37.8454 35.3525 37.1501 34.6572 36.2933 34.6572ZM36.2933 36.9266C35.8984 36.9266 35.5757 36.604 35.5757 36.209C35.5757 35.814 35.8984 35.4914 36.2933 35.4914C36.6883 35.4914 37.011 35.814 37.011 36.209C37.011 36.604 36.6883 36.9266 36.2933 36.9266Z" fill="#CA151A"/>
<path d="M15.1912 34.6572C14.3347 34.6572 13.6394 35.3525 13.6394 36.209C13.6394 37.0655 14.3347 37.7608 15.1912 37.7608C16.0477 37.7608 16.7429 37.0655 16.7429 36.209C16.7429 35.3525 16.0476 34.6572 15.1912 34.6572ZM15.1912 36.9266C14.7962 36.9266 14.4735 36.604 14.4735 36.209C14.4735 35.814 14.7962 35.4914 15.1912 35.4914C15.5862 35.4914 15.9088 35.814 15.9088 36.209C15.9085 36.604 15.5859 36.9266 15.1912 36.9266Z" fill="#CA151A"/>
<path d="M23.9623 26.375C23.7343 26.375 23.5452 26.5641 23.5452 26.7921V28.0047C23.5452 28.2327 23.7343 28.4218 23.9623 28.4218C24.1902 28.4218 24.3794 28.2327 24.3794 28.0047V26.7921C24.3796 26.5641 24.1961 26.375 23.9623 26.375Z" fill="#CA151A"/>
<path d="M24.947 6.30142C26.9271 6.30142 28.5403 7.9144 28.5403 9.89467C28.5403 10.1226 28.7294 10.3117 28.9574 10.3117C29.1853 10.3117 29.3744 10.1226 29.3744 9.89467C29.3744 7.45285 27.3888 5.46729 24.947 5.46729C24.7191 5.46729 24.53 5.6564 24.53 5.88435C24.5297 6.1123 24.7132 6.30142 24.947 6.30142V6.30142Z" fill="#CA151A"/>
<path d="M24.9471 8.1986C25.8759 8.1986 26.638 8.95507 26.638 9.88954C26.638 10.1175 26.8271 10.3066 27.0551 10.3066C27.283 10.3066 27.4721 10.1175 27.4721 9.88954C27.4721 8.49896 26.3374 7.36426 24.9469 7.36426C24.7189 7.36426 24.5298 7.55337 24.5298 7.78132C24.5298 8.00955 24.7133 8.19867 24.9471 8.19867L24.9471 8.1986Z" fill="#CA151A"/>
<path d="M15.9249 12.2864C15.7025 12.342 15.569 12.5699 15.6246 12.7925C15.6802 13.0096 15.747 13.232 15.8193 13.4599C15.8805 13.6323 16.0417 13.7434 16.2143 13.7434C16.2587 13.7434 16.3034 13.7379 16.3478 13.7211C16.5649 13.6487 16.6872 13.4096 16.6093 13.1926C16.537 12.9867 16.4814 12.7811 16.4258 12.5808C16.3755 12.3584 16.1473 12.2252 15.9249 12.2864V12.2864Z" fill="#CA151A"/>
<path d="M15.7919 11.802H15.8363C16.0643 11.7741 16.2313 11.5685 16.2034 11.3403C15.9475 9.03761 16.704 7.41347 16.7095 7.39666C16.8096 7.19078 16.7207 6.94049 16.5148 6.84048C16.309 6.74048 16.0587 6.82931 15.9587 7.03519C15.9254 7.10754 15.091 8.87637 15.3745 11.4293C15.3969 11.6464 15.5804 11.802 15.7919 11.802L15.7919 11.802Z" fill="#CA151A"/>
<path d="M40.0929 24.551C40.1764 24.6621 40.2988 24.7177 40.4267 24.7177C40.5158 24.7177 40.5991 24.6898 40.677 24.6342C40.8605 24.4951 40.8994 24.2336 40.7605 24.0501L40.3211 23.4551C40.182 23.2715 39.9205 23.2327 39.737 23.3715C39.5535 23.5107 39.5146 23.7721 39.6535 23.9557L40.0929 24.551Z" fill="#CA151A"/>
<path d="M38.7748 22.827C38.8584 22.9382 38.9807 22.9994 39.1142 22.9994C39.1978 22.9994 39.2866 22.9714 39.3589 22.9158C39.5425 22.7823 39.5869 22.5208 39.4481 22.3317L37.2565 19.3449C37.123 19.1614 36.8615 19.1169 36.6724 19.2558C36.4889 19.3893 36.4445 19.6508 36.5833 19.8399L38.7748 22.827Z" fill="#CA151A"/>
<path fill-rule="evenodd" clip-rule="evenodd" d="M40.9685 14.2426C40.1356 14.8361 39.1164 15.1853 38.0157 15.1853C35.2026 15.1853 32.9221 12.9048 32.9221 10.0917C32.9221 9.32636 33.0908 8.60049 33.3932 7.94922C32.0974 8.87267 31.2524 10.3877 31.2524 12.1001C31.2524 14.9133 33.5329 17.1938 36.346 17.1938C38.3939 17.1938 40.1595 15.9853 40.9685 14.2426Z" fill="#CA151A"/>
</svg>
