<svg width="39" height="35" viewBox="0 0 39 35" fill="none" xmlns="http://www.w3.org/2000/svg">
<path d="M1.82759 9.7258L2.36644 10.2646L1.82759 10.8035C1.66641 10.9647 1.66641 11.2321 1.82759 11.3933C1.98878 11.5545 2.25623 11.5545 2.41742 11.3933L2.95627 10.8545L3.49512 11.3933C3.65631 11.5545 3.92376 11.5545 4.08494 11.3933C4.24613 11.2321 4.24613 10.9647 4.08494 10.8035L3.54609 10.2646L4.08494 9.7258C4.24613 9.56462 4.24613 9.29717 4.08494 9.13598C3.92376 8.9748 3.65631 8.9748 3.49512 9.13598L2.95627 9.67483L2.41762 9.13579C2.25643 8.9746 1.98898 8.9746 1.82779 9.13579C1.66641 9.29717 1.66246 9.56067 1.82759 9.7258Z" fill="#CA151A"/>
<path d="M22.1673 22.0761H30.9219C31.0722 22.0761 31.2166 21.9926 31.289 21.8591C31.3613 21.7255 31.3558 21.5588 31.2722 21.4308L28.2354 16.714C28.1575 16.5973 28.024 16.5249 27.8851 16.5249L22.1671 16.5252C21.9392 16.5252 21.7501 16.7143 21.7501 16.9422V21.6591C21.7501 21.887 21.9392 22.0761 22.1671 22.0761L22.1673 22.0761ZM22.5846 17.3596H27.6517L30.1547 21.242H22.5843L22.5846 17.3596Z" fill="#CA151A"/>
<path d="M38.2814 25.2191V25.2079V24.6238C38.2814 24.1564 38.0479 23.7282 37.6585 23.4835L33.5646 20.8749L29.3375 15.0737C29.0816 14.729 28.6758 14.5231 28.2419 14.5231H15.2208V11.8087C16.2164 12.2981 17.3011 12.554 18.3967 12.554C20.032 12.554 21.6673 11.9978 22.9912 10.8798C23.0803 10.8019 23.1359 10.6963 23.1359 10.5795C23.1414 10.4628 23.097 10.3516 23.0135 10.2681L18.5917 5.84625L19.5429 4.89505C19.7041 4.73387 19.7041 4.46681 19.5429 4.30535C19.3817 4.14417 19.1146 4.14417 18.9532 4.30535L18.002 5.25655L13.5802 0.834737C13.4966 0.75121 13.4022 0.706793 13.2687 0.712385C13.1519 0.717972 13.0407 0.767975 12.9684 0.857085C10.6713 3.56594 10.7657 7.61509 13.1296 10.2239L10.126 14.5289H5.55954C4.92542 14.5289 4.3692 14.9795 4.24127 15.5969L2.96747 21.6596C2.96189 21.6875 2.9563 21.7152 2.9563 21.7431V30.1424C2.9563 30.8877 3.56249 31.4938 4.30776 31.4938H5.8375C5.9822 33.2179 7.42838 34.5809 9.19133 34.5809C10.9546 34.5809 12.4008 33.2182 12.5452 31.4938H26.9401C27.0848 33.2179 28.531 34.5809 30.2939 34.5809C32.0571 34.5809 33.5033 33.2182 33.6477 31.4938H36.9296C37.6749 31.4938 38.281 30.8876 38.281 30.1424V25.2364C38.2816 25.2308 38.2816 25.2252 38.2816 25.2196L38.2814 25.2191ZM28.6643 15.5633L32.9416 21.4258C32.9749 21.4702 33.0084 21.5037 33.0528 21.5314L37.2135 24.1847C37.3582 24.2791 37.447 24.4406 37.447 24.6185V24.802L20.5935 24.8023V15.3525H28.2418C28.4089 15.3525 28.5645 15.4358 28.6645 15.5637L28.6643 15.5633ZM11.1493 28.4729C10.5987 28.0779 9.92574 27.8444 9.1913 27.8444C8.81865 27.8444 8.46272 27.9056 8.12897 28.0168V25.6417H19.7592V28.4785H11.149L11.1493 28.4729ZM8.12925 24.802V15.3522H19.7545V24.802H8.12925ZM13.3187 1.74111L22.0955 10.5179C19.6258 12.3144 16.1328 12.0697 13.9466 9.88941C11.7607 7.70911 11.5213 4.21053 13.318 1.74046L13.3187 1.74111ZM13.7246 10.8076C13.936 10.9911 14.1584 11.1635 14.3864 11.3193V14.5176H11.1381L13.7246 10.8076ZM5.0586 15.7579C5.1086 15.5244 5.32007 15.3518 5.55919 15.3518H7.29453V24.8015L3.79596 24.8018V21.7815L5.0586 15.7579ZM3.79596 30.1414V25.6361H7.29453V28.4282C6.54922 28.9343 6.02632 29.7352 5.8707 30.6585L4.31336 30.6588C4.02954 30.6532 3.796 30.4253 3.796 30.1414L3.79596 30.1414ZM9.19128 33.7402C7.79513 33.7402 6.66035 32.6055 6.66035 31.2093C6.66035 29.8132 7.79506 28.6784 9.19128 28.6784C10.5874 28.6784 11.7222 29.8131 11.7222 31.2093C11.7219 32.6055 10.5872 33.7402 9.19128 33.7402ZM30.2941 33.7402C28.898 33.7402 27.7632 32.6055 27.7632 31.2093C27.7632 29.8132 28.8979 28.6784 30.2941 28.6784C31.6903 28.6784 32.8251 29.8131 32.8251 31.2093C32.8251 32.6055 31.6904 33.7402 30.2941 33.7402ZM36.9298 30.6532H33.6148C33.3477 29.057 31.9627 27.8388 30.2941 27.8388C28.6256 27.8388 27.2406 29.057 26.9735 30.6532H12.5121C12.4285 30.1581 12.245 29.702 11.9726 29.3017H20.1767C20.4046 29.3017 20.5937 29.1126 20.5937 28.8846V25.6308H37.4415V30.1361C37.4471 30.4252 37.2136 30.6532 36.9298 30.6532L36.9298 30.6532Z" fill="#CA151A"/>
<path d="M30.2933 29.6572C29.4368 29.6572 28.7416 30.3525 28.7416 31.209C28.7416 32.0655 29.4369 32.7608 30.2933 32.7608C31.1499 32.7608 31.8451 32.0655 31.8451 31.209C31.8454 30.3525 31.1501 29.6572 30.2933 29.6572ZM30.2933 31.9266C29.8984 31.9266 29.5757 31.604 29.5757 31.209C29.5757 30.814 29.8984 30.4914 30.2933 30.4914C30.6883 30.4914 31.011 30.814 31.011 31.209C31.011 31.604 30.6883 31.9266 30.2933 31.9266Z" fill="#CA151A"/>
<path d="M9.19118 29.6572C8.33466 29.6572 7.63941 30.3525 7.63941 31.209C7.63941 32.0655 8.33471 32.7608 9.19118 32.7608C10.0477 32.7608 10.7429 32.0655 10.7429 31.209C10.7429 30.3525 10.0476 29.6572 9.19118 29.6572ZM9.19118 31.9266C8.79618 31.9266 8.47354 31.604 8.47354 31.209C8.47354 30.814 8.79619 30.4914 9.19118 30.4914C9.58617 30.4914 9.90881 30.814 9.90881 31.209C9.90853 31.604 9.58589 31.9266 9.19118 31.9266Z" fill="#CA151A"/>
<path d="M17.9623 21.375C17.7343 21.375 17.5452 21.5641 17.5452 21.7921V23.0047C17.5452 23.2327 17.7343 23.4218 17.9623 23.4218C18.1902 23.4218 18.3794 23.2327 18.3794 23.0047V21.7921C18.3796 21.5641 18.1961 21.375 17.9623 21.375Z" fill="#CA151A"/>
<path d="M18.947 1.30142C20.9271 1.30142 22.5403 2.9144 22.5403 4.89467C22.5403 5.12262 22.7294 5.31174 22.9574 5.31174C23.1853 5.31174 23.3744 5.12262 23.3744 4.89467C23.3744 2.45285 21.3888 0.467285 18.947 0.467285C18.7191 0.467285 18.53 0.656402 18.53 0.884351C18.5297 1.1123 18.7132 1.30142 18.947 1.30142Z" fill="#CA151A"/>
<path d="M18.9471 3.1986C19.8759 3.1986 20.638 3.95507 20.638 4.88954C20.638 5.11748 20.8271 5.3066 21.0551 5.3066C21.283 5.3066 21.4721 5.11748 21.4721 4.88954C21.4721 3.49896 20.3374 2.36426 18.9469 2.36426C18.7189 2.36426 18.5298 2.55337 18.5298 2.78132C18.5298 3.00955 18.7133 3.19867 18.9471 3.19867L18.9471 3.1986Z" fill="#CA151A"/>
<path d="M9.9249 7.28637C9.70253 7.34196 9.569 7.5699 9.6246 7.79255C9.68019 8.0096 9.74695 8.23196 9.81931 8.45991C9.88049 8.63227 10.0417 8.74344 10.2143 8.74344C10.2587 8.74344 10.3034 8.73786 10.3478 8.7211C10.5649 8.64875 10.6872 8.40962 10.6093 8.19257C10.537 7.98669 10.4814 7.78109 10.4258 7.5808C10.3755 7.35843 10.1473 7.22518 9.9249 7.28636V7.28637Z" fill="#CA151A"/>
<path d="M9.79189 6.80202H9.83631C10.0643 6.77409 10.2313 6.56849 10.2034 6.34026C9.94749 4.03761 10.704 2.41347 10.7095 2.39666C10.8096 2.19078 10.7207 1.94049 10.5148 1.84048C10.309 1.74048 10.0587 1.82931 9.95866 2.03519C9.92542 2.10754 9.09099 3.87637 9.37454 6.42933C9.39689 6.64638 9.58042 6.80197 9.79188 6.80197L9.79189 6.80202Z" fill="#CA151A"/>
<path d="M34.0929 19.551C34.1764 19.6621 34.2988 19.7177 34.4267 19.7177C34.5158 19.7177 34.5991 19.6898 34.677 19.6342C34.8605 19.4951 34.8994 19.2336 34.7605 19.0501L34.3211 18.4551C34.182 18.2715 33.9205 18.2327 33.737 18.3715C33.5535 18.5107 33.5146 18.7721 33.6535 18.9557L34.0929 19.551Z" fill="#CA151A"/>
<path d="M32.7748 17.827C32.8584 17.9382 32.9807 17.9994 33.1142 17.9994C33.1978 17.9994 33.2866 17.9714 33.3589 17.9158C33.5425 17.7823 33.5869 17.5208 33.4481 17.3317L31.2565 14.3449C31.123 14.1614 30.8615 14.1169 30.6724 14.2558C30.4889 14.3893 30.4445 14.6508 30.5833 14.8399L32.7748 17.827Z" fill="#CA151A"/>
</svg>
