<svg width="51" height="51" viewBox="0 0 51 51" fill="none" xmlns="http://www.w3.org/2000/svg">
<circle cx="25.4069" cy="25.4456" r="25" fill="#FBFBFB"/>
<path d="M31.7402 15.5625C32.0938 15.5625 32.433 15.703 32.683 15.953C32.9331 16.2031 33.0735 16.5422 33.0735 16.8958V22.4958L40.0242 17.6292C40.1241 17.5591 40.2414 17.5178 40.3632 17.5098C40.485 17.5018 40.6066 17.5274 40.7149 17.5838C40.8231 17.6402 40.9138 17.7252 40.9771 17.8296C41.0403 17.934 41.0737 18.0538 41.0735 18.1758V34.2825C41.0737 34.4046 41.0403 34.5243 40.9771 34.6287C40.9138 34.7331 40.8231 34.8181 40.7149 34.8745C40.6066 34.9309 40.485 34.9565 40.3632 34.9485C40.2414 34.9405 40.1241 34.8992 40.0242 34.8292L33.0735 29.9625V35.5625C33.0735 35.9161 32.9331 36.2553 32.683 36.5053C32.433 36.7554 32.0938 36.8958 31.7402 36.8958H13.0735C12.7199 36.8958 12.3808 36.7554 12.1307 36.5053C11.8807 36.2553 11.7402 35.9161 11.7402 35.5625V16.8958C11.7402 16.5422 11.8807 16.2031 12.1307 15.953C12.3808 15.703 12.7199 15.5625 13.0735 15.5625H31.7402ZM30.4069 18.2292H14.4069V34.2292H30.4069V18.2292ZM20.2735 22.0012C20.375 22.0009 20.4745 22.0296 20.5602 22.0838L26.3669 25.7798C26.4423 25.8281 26.5044 25.8945 26.5474 25.973C26.5904 26.0516 26.6129 26.1396 26.6129 26.2292C26.6129 26.3187 26.5904 26.4068 26.5474 26.4853C26.5044 26.5638 26.4423 26.6303 26.3669 26.6785L20.5602 30.3758C20.4793 30.4274 20.386 30.4562 20.2902 30.4592C20.1943 30.4622 20.0994 30.4393 20.0155 30.3929C19.9315 30.3464 19.8617 30.2783 19.8132 30.1955C19.7648 30.1127 19.7395 30.0184 19.7402 29.9225V22.5358C19.7402 22.3944 19.7964 22.2587 19.8964 22.1587C19.9964 22.0587 20.1321 22.0025 20.2735 22.0025V22.0012ZM38.4069 22.0158L33.0735 25.7492V26.7065L38.4069 30.4398V22.0158Z" fill="#CA1419"/>
</svg>
