<svg width="51" height="51" viewBox="0 0 51 51" fill="none" xmlns="http://www.w3.org/2000/svg">
<circle cx="25.9069" cy="25.0461" r="25" fill="#CD181D"/>
<g clip-path="url(#clip0_50_542)">
<path d="M13.4069 14.1086C13.4069 13.6942 13.5715 13.2968 13.8645 13.0038C14.1575 12.7108 14.555 12.5461 14.9694 12.5461H36.8444C37.2588 12.5461 37.6562 12.7108 37.9492 13.0038C38.2422 13.2968 38.4069 13.6942 38.4069 14.1086V35.9836C38.4069 36.398 38.2422 36.7955 37.9492 37.0885C37.6562 37.3815 37.2588 37.5461 36.8444 37.5461H14.9694C14.555 37.5461 14.1575 37.3815 13.8645 37.0885C13.5715 36.7955 13.4069 36.398 13.4069 35.9836V14.1086ZM19.6569 14.1086V23.4836H32.1569V14.1086H19.6569ZM32.1569 26.6086H19.6569V35.9836H32.1569V26.6086ZM14.9694 14.1086V17.2336H18.0944V14.1086H14.9694ZM18.0944 18.7961H14.9694V21.9211H18.0944V18.7961ZM14.9694 23.4836V26.6086H18.0944V23.4836H14.9694ZM18.0944 28.1711H14.9694V31.2961H18.0944V28.1711ZM14.9694 32.8586V35.9836H18.0944V32.8586H14.9694ZM36.8444 14.1086H33.7194V17.2336H36.8444V14.1086ZM33.7194 18.7961V21.9211H36.8444V18.7961H33.7194ZM36.8444 23.4836H33.7194V26.6086H36.8444V23.4836ZM33.7194 28.1711V31.2961H36.8444V28.1711H33.7194ZM36.8444 32.8586H33.7194V35.9836H36.8444V32.8586Z" fill="white"/>
</g>
<defs>
<clipPath id="clip0_50_542">
<rect width="25" height="25" fill="white" transform="translate(13.4069 12.5461)"/>
</clipPath>
</defs>
</svg>
